<svg xmlns="http://www.w3.org/2000/svg" width="572.5557861328125" height="582.2863159179688" viewBox="-145.0476531982422 -157.2602081298828 572.5557861328125 582.2863159179688"><title>Neo4j Graph Visualization</title><desc>Created using Neo4j (http://www.neo4j.com/)</desc><g class="layer relationships"><g class="relationship" transform="translate(1.411105487154924 383.0272404091986) rotate(366.8654834742249)"><path class="outline" fill="#A5ABB6" stroke="none" d="M 25 0.5 L 28.08976971530621 0.5 L 28.08976971530621 -0.5 L 25 -0.5 Z M 73.6522697153062 0.5 L 76.74203943061242 0.5 L 76.74203943061242 3.5 L 83.74203943061242 0 L 76.74203943061242 -3.5 L 76.74203943061242 -0.5 L 73.6522697153062 -0.5 Z"/><text text-anchor="middle" pointer-events="none" font-size="8px" fill="#000000" x="50.87101971530621" y="3" font-family="sans-serif">ACTED_IN</text></g><g class="relationship" transform="translate(218.35192513184123 381.9243082389314) rotate(532.6268962718983)"><path class="outline" fill="#A5ABB6" stroke="none" d="M 25 0.5 L 28.662305627227568 0.5 L 28.662305627227568 -0.5 L 25 -0.5 Z M 74.22480562722757 0.5 L 77.88711125445514 0.5 L 77.88711125445514 3.5 L 84.88711125445514 0 L 77.88711125445514 -3.5 L 77.88711125445514 -0.5 L 74.22480562722757 -0.5 Z"/><text text-anchor="middle" pointer-events="none" font-size="8px" fill="#000000" x="51.44355562722757" y="3" transform="rotate(180 51.44355562722757 0)" font-family="sans-serif">ACTED_IN</text></g><g class="relationship" transform="translate(132.9429047869527 290.6868751369849) rotate(462.61211004537313)"><path class="outline" fill="#A5ABB6" stroke="none" d="M 25 0.5 L 27.690685156571583 0.5 L 27.690685156571583 -0.5 L 25 -0.5 Z M 73.25318515657159 0.5 L 75.94387031314317 0.5 L 75.94387031314317 3.5 L 82.94387031314317 0 L 75.94387031314317 -3.5 L 75.94387031314317 -0.5 L 73.25318515657159 -0.5 Z"/><text text-anchor="middle" pointer-events="none" font-size="8px" fill="#000000" x="50.47193515657158" y="3" transform="rotate(180 50.47193515657158 0)" font-family="sans-serif">ACTED_IN</text></g><g class="relationship" transform="translate(398.508128791242 111.64303546685282) rotate(235.6380726254041)"><path class="outline" fill="#A5ABB6" stroke="none" d="M 25 0.5 L 28.244103016711442 0.5 L 28.244103016711442 -0.5 L 25 -0.5 Z M 73.80660301671145 0.5 L 77.05070603342288 0.5 L 77.05070603342288 3.5 L 84.05070603342288 0 L 77.05070603342288 -3.5 L 77.05070603342288 -0.5 L 73.80660301671145 -0.5 Z"/><text text-anchor="middle" pointer-events="none" font-size="8px" fill="#000000" x="51.02535301671144" y="3" transform="rotate(180 51.02535301671144 0)" font-family="sans-serif">ACTED_IN</text></g><g class="relationship" transform="translate(355.7683627278359 -85.44712705816973) rotate(459.9642609783478)"><path class="outline" fill="#A5ABB6" stroke="none" d="M 25 0.5 L 28.073662911793555 0.5 L 28.073662911793555 -0.5 L 25 -0.5 Z M 73.63616291179355 0.5 L 76.70982582358711 0.5 L 76.70982582358711 3.5 L 83.70982582358711 0 L 76.70982582358711 -3.5 L 76.70982582358711 -0.5 L 73.63616291179355 -0.5 Z"/><text text-anchor="middle" pointer-events="none" font-size="8px" fill="#000000" x="50.854912911793555" y="3" transform="rotate(180 50.854912911793555 0)" font-family="sans-serif">ACTED_IN</text></g><g class="relationship" transform="translate(271.11931720151364 109.56614386889017) rotate(306.820303698555)"><path class="outline" fill="#A5ABB6" stroke="none" d="M 25 0.5 L 28.64763511030015 0.5 L 28.64763511030015 -0.5 L 25 -0.5 Z M 74.21013511030014 0.5 L 77.8577702206003 0.5 L 77.8577702206003 3.5 L 84.8577702206003 0 L 77.8577702206003 -3.5 L 77.8577702206003 -0.5 L 74.21013511030014 -0.5 Z"/><text text-anchor="middle" pointer-events="none" font-size="8px" fill="#000000" x="51.42888511030015" y="3" font-family="sans-serif">ACTED_IN</text></g><g class="relationship" transform="translate(248.59901582985125 -46.0303290996373) rotate(397.43999351014816)"><path class="outline" fill="#A5ABB6" stroke="none" d="M 25 0.5 L 29.36102159570204 0.5 L 29.36102159570204 -0.5 L 25 -0.5 Z M 74.92352159570204 0.5 L 79.28454319140408 0.5 L 79.28454319140408 3.5 L 86.28454319140408 0 L 79.28454319140408 -3.5 L 79.28454319140408 -0.5 L 74.92352159570204 -0.5 Z"/><text text-anchor="middle" pointer-events="none" font-size="8px" fill="#000000" x="52.14227159570204" y="3" font-family="sans-serif">ACTED_IN</text></g><g class="relationship" transform="translate(11.037233817247422 -18.442138269135246) rotate(250.59158759839858)"><path class="outline" fill="#A5ABB6" stroke="none" d="M 25 0.5 L 31.93604532731419 0.5 L 31.93604532731419 -0.5 L 25 -0.5 Z M 77.49854532731419 0.5 L 84.43459065462838 0.5 L 84.43459065462838 3.5 L 91.43459065462838 0 L 84.43459065462838 -3.5 L 84.43459065462838 -0.5 L 77.49854532731419 -0.5 Z"/><text text-anchor="middle" pointer-events="none" font-size="8px" fill="#000000" x="54.71729532731419" y="3" transform="rotate(180 54.71729532731419 0)" font-family="sans-serif">ACTED_IN</text></g><g class="relationship" transform="translate(11.037233817247422 -18.442138269135246) rotate(508.1344776073941)"><path class="outline" fill="#A5ABB6" stroke="none" d="M 25 0.5 L 43.63239172978332 0.5 L 43.63239172978332 -0.5 L 25 -0.5 Z M 89.19489172978332 0.5 L 107.82728345956664 0.5 L 107.82728345956664 3.5 L 114.82728345956664 0 L 107.82728345956664 -3.5 L 107.82728345956664 -0.5 L 89.19489172978332 -0.5 Z"/><text text-anchor="middle" pointer-events="none" font-size="8px" fill="#000000" x="66.41364172978332" y="3" transform="rotate(180 66.41364172978332 0)" font-family="sans-serif">ACTED_IN</text></g><g class="relationship" transform="translate(11.037233817247422 -18.442138269135246) rotate(476.3549836555311)"><path class="outline" fill="#A5ABB6" stroke="none" d="M 25 0.5 L 25.057117149084505 0.5 L 25.057117149084505 -0.5 L 25 -0.5 Z M 66.1703983990845 0.5 L 66.22751554816901 0.5 L 66.22751554816901 3.5 L 73.22751554816901 0 L 66.22751554816901 -3.5 L 66.22751554816901 -0.5 L 66.1703983990845 -0.5 Z"/><text text-anchor="middle" pointer-events="none" font-size="8px" fill="#000000" x="45.613757774084505" y="3" transform="rotate(180 45.613757774084505 0)" font-family="sans-serif">ACTED…</text></g><g class="relationship" transform="translate(-53.3220438877756 -33.602570721331325) rotate(285.17192391351296)"><path class="outline" fill="#A5ABB6" stroke="none" d="M 25 0.5 L 27.87007531316135 0.5 L 27.87007531316135 -0.5 L 25 -0.5 Z M 63.20601281316135 0.5 L 66.0760881263227 0.5 L 66.0760881263227 3.5 L 73.0760881263227 0 L 66.0760881263227 -3.5 L 66.0760881263227 -0.5 L 63.20601281316135 -0.5 Z"/><text text-anchor="middle" pointer-events="none" font-size="8px" fill="#000000" x="45.53804406316135" y="3" font-family="sans-serif">ACTE…</text></g><g class="relationship" transform="translate(-53.3220438877756 -33.602570721331325) rotate(481.4382207566199)"><path class="outline" fill="#A5ABB6" stroke="none" d="M 25 0.5 L 25.86289226200504 0.5 L 25.86289226200504 -0.5 L 25 -0.5 Z M 71.42539226200503 0.5 L 72.28828452401008 0.5 L 72.28828452401008 3.5 L 79.28828452401008 0 L 72.28828452401008 -3.5 L 72.28828452401008 -0.5 L 71.42539226200503 -0.5 Z"/><text text-anchor="middle" pointer-events="none" font-size="8px" fill="#000000" x="48.64414226200504" y="3" transform="rotate(180 48.64414226200504 0)" font-family="sans-serif">ACTED_IN</text></g><g class="relationship" transform="translate(-53.3220438877756 -33.602570721331325) rotate(438.62741832020595)"><path class="outline" fill="#A5ABB6" stroke="none" d="M 25 0.5 L 26.341085995528026 0.5 L 26.341085995528026 -0.5 L 25 -0.5 Z M 71.90358599552803 0.5 L 73.24467199105605 0.5 L 73.24467199105605 3.5 L 80.24467199105605 0 L 73.24467199105605 -3.5 L 73.24467199105605 -0.5 L 71.90358599552803 -0.5 Z"/><text text-anchor="middle" pointer-events="none" font-size="8px" fill="#000000" x="49.122335995528026" y="3" font-family="sans-serif">ACTED_IN</text></g><g class="relationship" transform="translate(-116.0476535742503 -39.82116307807021) rotate(314.98531515558716)"><path class="outline" fill="#A5ABB6" stroke="none" d="M 25 0.5 L 36.23857295271496 0.5 L 36.23857295271496 -0.5 L 25 -0.5 Z M 81.80107295271496 0.5 L 93.03964590542992 0.5 L 93.03964590542992 3.5 L 100.03964590542992 0 L 93.03964590542992 -3.5 L 93.03964590542992 -0.5 L 81.80107295271496 -0.5 Z"/><text text-anchor="middle" pointer-events="none" font-size="8px" fill="#000000" x="59.01982295271496" y="3" font-family="sans-serif">ACTED_IN</text></g><g class="relationship" transform="translate(-116.0476535742503 -39.82116307807021) rotate(444.99861220000776)"><path class="outline" fill="#A5ABB6" stroke="none" d="M 25 0.5 L 26.612789912179878 0.5 L 26.612789912179878 -0.5 L 25 -0.5 Z M 61.94872741217988 0.5 L 63.561517324359755 0.5 L 63.561517324359755 3.5 L 70.56151732435976 0 L 63.561517324359755 -3.5 L 63.561517324359755 -0.5 L 61.94872741217988 -0.5 Z"/><text text-anchor="middle" pointer-events="none" font-size="8px" fill="#000000" x="44.28075866217988" y="3" font-family="sans-serif">ACTE…</text></g><g class="relationship" transform="translate(-116.0476535742503 -39.82116307807021) rotate(412.6534489296484)"><path class="outline" fill="#A5ABB6" stroke="none" d="M 25 0.5 L 42.523458075046506 0.5 L 42.523458075046506 -0.5 L 25 -0.5 Z M 88.0859580750465 0.5 L 105.60941615009301 0.5 L 105.60941615009301 3.5 L 112.60941615009301 0 L 105.60941615009301 -3.5 L 105.60941615009301 -0.5 L 88.0859580750465 -0.5 Z"/><text text-anchor="middle" pointer-events="none" font-size="8px" fill="#000000" x="65.3047080750465" y="3" font-family="sans-serif">ACTED_IN</text></g><g class="relationship" transform="translate(-52.56424668935148 181.2855738038737) rotate(280.14804054627837)"><path class="outline" fill="#A5ABB6" stroke="none" d="M 25 0.5 L 30.461385084845823 0.5 L 30.461385084845823 -0.5 L 25 -0.5 Z M 76.02388508484583 0.5 L 81.48527016969165 0.5 L 81.48527016969165 3.5 L 88.48527016969165 0 L 81.48527016969165 -3.5 L 81.48527016969165 -0.5 L 76.02388508484583 -0.5 Z"/><text text-anchor="middle" pointer-events="none" font-size="8px" fill="#000000" x="53.24263508484582" y="3" font-family="sans-serif">ACTED_IN</text></g></g><g class="layer nodes"><g class="node" transform="translate(1.411105487154924,383.0272404091986)"><circle class="outline" cx="0" cy="0" r="25" fill="#57C7E3" stroke="#23b3d7" stroke-width="2px"/><text text-anchor="middle" pointer-events="none" font-family="sans-serif" dy="1.5625" font-size="25" fill="#2A2C34"/><text text-anchor="middle" pointer-events="none" font-family="sans-serif" dy="1.5625" font-size="25" fill="#2A2C34"/><text text-anchor="middle" pointer-events="none" x="0" y="0" font-size="10px" fill="#2A2C34" font-family="sans-serif"> Tom</text><text text-anchor="middle" pointer-events="none" x="0" y="10" font-size="10px" fill="#2A2C34" font-family="sans-serif"> Hanks</text></g><g class="node" transform="translate(109.37341397981719,396.02612822562713)"><circle class="outline" cx="0" cy="0" r="25" fill="#F79767" stroke="#f36924" stroke-width="2px"/><text text-anchor="middle" pointer-events="none" font-family="sans-serif" dy="1.5625" font-size="25" fill="#FFFFFF"/><text text-anchor="middle" pointer-events="none" font-family="sans-serif" dy="1.5625" font-size="25" fill="#FFFFFF"/><text text-anchor="middle" pointer-events="none" x="0" y="0" font-size="10px" fill="#FFFFFF" font-family="sans-serif"> Cloud</text><text text-anchor="middle" pointer-events="none" x="0" y="10" font-size="10px" fill="#FFFFFF" font-family="sans-serif"> Atlas</text></g><g class="node" transform="translate(218.35192513184123,381.9243082389314)"><circle class="outline" cx="0" cy="0" r="25" fill="#57C7E3" stroke="#23b3d7" stroke-width="2px"/><text text-anchor="middle" pointer-events="none" font-family="sans-serif" dy="1.5625" font-size="25" fill="#2A2C34"/><text text-anchor="middle" pointer-events="none" font-family="sans-serif" dy="1.5625" font-size="25" fill="#2A2C34"/><text text-anchor="middle" pointer-events="none" x="0" y="0" font-size="10px" fill="#2A2C34" font-family="sans-serif"> Jim</text><text text-anchor="middle" pointer-events="none" x="0" y="10" font-size="10px" fill="#2A2C34" font-family="sans-serif"> Broadb…</text></g><g class="node" transform="translate(132.9429047869527,290.6868751369849)"><circle class="outline" cx="0" cy="0" r="25" fill="#57C7E3" stroke="#23b3d7" stroke-width="2px"/><text text-anchor="middle" pointer-events="none" font-family="sans-serif" dy="1.5625" font-size="25" fill="#2A2C34"/><text text-anchor="middle" pointer-events="none" font-family="sans-serif" dy="1.5625" font-size="25" fill="#2A2C34"/><text text-anchor="middle" pointer-events="none" x="0" y="0" font-size="10px" fill="#2A2C34" font-family="sans-serif"> Halle</text><text text-anchor="middle" pointer-events="none" x="0" y="10" font-size="10px" fill="#2A2C34" font-family="sans-serif"> Berry</text></g><g class="node" transform="translate(398.508128791242,111.64303546685282)"><circle class="outline" cx="0" cy="0" r="25" fill="#57C7E3" stroke="#23b3d7" stroke-width="2px"/><text text-anchor="middle" pointer-events="none" font-family="sans-serif" dy="1.5625" font-size="25" fill="#2A2C34"/><text text-anchor="middle" pointer-events="none" x="0" y="5" font-size="10px" fill="#2A2C34" font-family="sans-serif"> Ben Miles</text></g><g class="node" transform="translate(336.95788230477046,21.622906363176142)"><circle class="outline" cx="0" cy="0" r="25" fill="#F79767" stroke="#f36924" stroke-width="2px"/><text text-anchor="middle" pointer-events="none" font-family="sans-serif" dy="1.5625" font-size="25" fill="#FFFFFF"/><text text-anchor="middle" pointer-events="none" font-family="sans-serif" dy="1.5625" font-size="25" fill="#FFFFFF"/><text text-anchor="middle" pointer-events="none" x="0" y="0" font-size="10px" fill="#FFFFFF" font-family="sans-serif"> V for</text><text text-anchor="middle" pointer-events="none" x="0" y="10" font-size="10px" fill="#FFFFFF" font-family="sans-serif"> Vendetta</text></g><g class="node" transform="translate(355.7683627278359,-85.44712705816973)"><circle class="outline" cx="0" cy="0" r="25" fill="#57C7E3" stroke="#23b3d7" stroke-width="2px"/><text text-anchor="middle" pointer-events="none" font-family="sans-serif" dy="1.5625" font-size="25" fill="#2A2C34"/><text text-anchor="middle" pointer-events="none" font-family="sans-serif" dy="1.5625" font-size="25" fill="#2A2C34"/><text text-anchor="middle" pointer-events="none" x="0" y="0" font-size="10px" fill="#2A2C34" font-family="sans-serif"> Natalie</text><text text-anchor="middle" pointer-events="none" x="0" y="10" font-size="10px" fill="#2A2C34" font-family="sans-serif"> Portman</text></g><g class="node" transform="translate(271.11931720151364,109.56614386889017)"><circle class="outline" cx="0" cy="0" r="25" fill="#57C7E3" stroke="#23b3d7" stroke-width="2px"/><text text-anchor="middle" pointer-events="none" font-family="sans-serif" dy="1.5625" font-size="25" fill="#2A2C34"/><text text-anchor="middle" pointer-events="none" x="0" y="5" font-size="10px" fill="#2A2C34" font-family="sans-serif"> John Hurt</text></g><g class="node" transform="translate(248.59901582985125,-46.0303290996373)"><circle class="outline" cx="0" cy="0" r="25" fill="#57C7E3" stroke="#23b3d7" stroke-width="2px"/><text text-anchor="middle" pointer-events="none" font-family="sans-serif" dy="1.5625" font-size="25" fill="#2A2C34"/><text text-anchor="middle" pointer-events="none" font-family="sans-serif" dy="1.5625" font-size="25" fill="#2A2C34"/><text text-anchor="middle" pointer-events="none" x="0" y="0" font-size="10px" fill="#2A2C34" font-family="sans-serif"> Stephen</text><text text-anchor="middle" pointer-events="none" x="0" y="10" font-size="10px" fill="#2A2C34" font-family="sans-serif"> Rea</text></g><g class="node" transform="translate(11.037233817247422,-18.442138269135246)"><circle class="outline" cx="0" cy="0" r="25" fill="#57C7E3" stroke="#23b3d7" stroke-width="2px"/><text text-anchor="middle" pointer-events="none" font-family="sans-serif" dy="1.5625" font-size="25" fill="#2A2C34"/><text text-anchor="middle" pointer-events="none" font-family="sans-serif" dy="1.5625" font-size="25" fill="#2A2C34"/><text text-anchor="middle" pointer-events="none" x="0" y="0" font-size="10px" fill="#2A2C34" font-family="sans-serif"> Laurence</text><text text-anchor="middle" pointer-events="none" x="0" y="10" font-size="10px" fill="#2A2C34" font-family="sans-serif"> Fishbur…</text></g><g class="node" transform="translate(-27.653935961121743,-128.26020273073595)"><circle class="outline" cx="0" cy="0" r="25" fill="#F79767" stroke="#f36924" stroke-width="2px"/><text text-anchor="middle" pointer-events="none" font-family="sans-serif" dy="1.5625" font-size="25" fill="#FFFFFF"/><text text-anchor="middle" pointer-events="none" font-family="sans-serif" dy="1.5625" font-size="25" fill="#FFFFFF"/><text text-anchor="middle" pointer-events="none" font-family="sans-serif" dy="1.5625" font-size="25" fill="#FFFFFF"/><text text-anchor="middle" pointer-events="none" x="0" y="-5" font-size="10px" fill="#FFFFFF" font-family="sans-serif"> The</text><text text-anchor="middle" pointer-events="none" x="0" y="5" font-size="10px" fill="#FFFFFF" font-family="sans-serif"> Matrix</text><text text-anchor="middle" pointer-events="none" x="0" y="15" font-size="10px" fill="#FFFFFF" font-family="sans-serif"> Revol…</text></g><g class="node" transform="translate(-53.3220438877756,-33.602570721331325)"><circle class="outline" cx="0" cy="0" r="25" fill="#57C7E3" stroke="#23b3d7" stroke-width="2px"/><text text-anchor="middle" pointer-events="none" font-family="sans-serif" dy="1.5625" font-size="25" fill="#2A2C34"/><text text-anchor="middle" pointer-events="none" x="0" y="5" font-size="10px" fill="#2A2C34" font-family="sans-serif"> Carrie-A…</text></g><g class="node" transform="translate(-116.0476535742503,-39.82116307807021)"><circle class="outline" cx="0" cy="0" r="25" fill="#57C7E3" stroke="#23b3d7" stroke-width="2px"/><text text-anchor="middle" pointer-events="none" font-family="sans-serif" dy="1.5625" font-size="25" fill="#2A2C34"/><text text-anchor="middle" pointer-events="none" font-family="sans-serif" dy="1.5625" font-size="25" fill="#2A2C34"/><text text-anchor="middle" pointer-events="none" x="0" y="0" font-size="10px" fill="#2A2C34" font-family="sans-serif"> Keanu</text><text text-anchor="middle" pointer-events="none" x="0" y="10" font-size="10px" fill="#2A2C34" font-family="sans-serif"> Reeves</text></g><g class="node" transform="translate(-107.71661270375888,55.376512058185675)"><circle class="outline" cx="0" cy="0" r="25" fill="#F79767" stroke="#f36924" stroke-width="2px"/><text text-anchor="middle" pointer-events="none" font-family="sans-serif" dy="1.5625" font-size="25" fill="#FFFFFF"/><text text-anchor="middle" pointer-events="none" font-family="sans-serif" dy="1.5625" font-size="25" fill="#FFFFFF"/><text text-anchor="middle" pointer-events="none" font-family="sans-serif" dy="1.5625" font-size="25" fill="#FFFFFF"/><text text-anchor="middle" pointer-events="none" x="0" y="-5" font-size="10px" fill="#FFFFFF" font-family="sans-serif"> The</text><text text-anchor="middle" pointer-events="none" x="0" y="5" font-size="10px" fill="#FFFFFF" font-family="sans-serif"> Matrix</text><text text-anchor="middle" pointer-events="none" x="0" y="15" font-size="10px" fill="#FFFFFF" font-family="sans-serif"> Reloa…</text></g><g class="node" transform="translate(-52.56424668935148,181.2855738038737)"><circle class="outline" cx="0" cy="0" r="25" fill="#57C7E3" stroke="#23b3d7" stroke-width="2px"/><text text-anchor="middle" pointer-events="none" font-family="sans-serif" dy="1.5625" font-size="25" fill="#2A2C34"/><text text-anchor="middle" pointer-events="none" font-family="sans-serif" dy="1.5625" font-size="25" fill="#2A2C34"/><text text-anchor="middle" pointer-events="none" x="0" y="0" font-size="10px" fill="#2A2C34" font-family="sans-serif"> Emil</text><text text-anchor="middle" pointer-events="none" x="0" y="10" font-size="10px" fill="#2A2C34" font-family="sans-serif"> Eifrem</text></g><g class="node" transform="translate(-32.56903447613042,69.5756904719314)"><circle class="outline" cx="0" cy="0" r="25" fill="#F79767" stroke="#f36924" stroke-width="2px"/><text text-anchor="middle" pointer-events="none" font-family="sans-serif" dy="1.5625" font-size="25" fill="#FFFFFF"/><text text-anchor="middle" pointer-events="none" font-family="sans-serif" dy="1.5625" font-size="25" fill="#FFFFFF"/><text text-anchor="middle" pointer-events="none" x="0" y="0" font-size="10px" fill="#FFFFFF" font-family="sans-serif"> The</text><text text-anchor="middle" pointer-events="none" x="0" y="10" font-size="10px" fill="#FFFFFF" font-family="sans-serif"> Matrix</text></g></g></svg>