<svg xmlns="http://www.w3.org/2000/svg" width="326.5332336425781" height="347.08819580078125" viewBox="-53.375328063964844 -65.91070556640625 326.5332336425781 347.08819580078125"><title>Neo4j Graph Visualization</title><desc>Created using Neo4j (http://www.neo4j.com/)</desc><g class="layer relationships"><g class="relationship" transform="translate(238.329481225764 252.1774871517197) rotate(233.918373191257)"><path class="outline" fill="#A5ABB6" stroke="none" d="M 25 0.5 L 28.0279877201462 0.5 L 28.0279877201462 -0.5 L 25 -0.5 Z M 74.9186127201462 0.5 L 77.9466004402924 0.5 L 77.9466004402924 3.5 L 84.9466004402924 0 L 77.9466004402924 -3.5 L 77.9466004402924 -0.5 L 74.9186127201462 -0.5 Z"/><text text-anchor="middle" pointer-events="none" font-size="8px" fill="#000000" x="51.4733002201462" y="3" transform="rotate(180 51.4733002201462 0)" font-family="sans-serif">DIRECTED</text></g><g class="relationship" transform="translate(81.93943771641801 132.27956652624061) rotate(321.4179284044533)"><path class="outline" fill="#A5ABB6" stroke="none" d="M 24.018736134675446,6.953439040707552 L 24.277555179777966,5.987513214418485 A 144.8283484299458 144.8283484299458 0 0 0 42.03194616136232,9.572222121072542 L 41.895716313568585,10.562899378593954 A 145.8283484299458 145.8283484299458 0 0 1 24.018736134675446,6.953439040707552 Z M 77.69837254801098,11.049014882011164 L 77.58909007519003,10.055004147092205 A 144.8283484299458 144.8283484299458 0 0 0 95.43426195646019,6.953653215589208 L 94.73676649447425,4.035862942024464 L 102.35868850510892,5.812462183216142 L 96.36425590577478,10.844040247008866 L 95.66676044378885,7.926249973444122 A 145.8283484299458 145.8283484299458 0 0 1 77.69837254801098,11.049014882011164"/><text text-anchor="middle" pointer-events="none" font-size="8px" fill="#000000" x="59.78885618593667" y="14.409025564817256" font-family="sans-serif">WROTE</text></g><g class="relationship" transform="translate(81.93943771641801 132.27956652624061) rotate(378.71319560134356)"><path class="outline" fill="#A5ABB6" stroke="none" d="M 25 0.5 L 25.431244595835487 0.5 L 25.431244595835487 -0.5 L 25 -0.5 Z M 64.3218695958355 0.5 L 64.75311419167097 0.5 L 64.75311419167097 3.5 L 71.75311419167097 0 L 64.75311419167097 -3.5 L 64.75311419167097 -0.5 L 64.3218695958355 -0.5 Z"/><text text-anchor="middle" pointer-events="none" font-size="8px" fill="#000000" x="44.87655709583549" y="3" font-family="sans-serif">DIREC…</text></g><g class="relationship" transform="translate(81.93943771641801 132.27956652624061) rotate(321.4179284044533)"><path class="outline" fill="#A5ABB6" stroke="none" d="M 24.018736134675446,-6.953439040707552 L 24.277555179777966,-5.987513214418485 A 144.8283484299458 144.8283484299458 0 0 1 34.163848033207415,-8.268606736848454 L 33.97329112711707,-9.250282887898948 A 145.8283484299458 145.8283484299458 0 0 0 24.018736134675446,-6.953439040707552 Z M 85.65351513200301,-9.951978257771572 L 85.48968124534764,-8.96549031685015 A 144.8283484299458 144.8283484299458 0 0 1 95.43426195646019,-6.953653215589208 L 94.73676649447425,-4.035862942024464 L 102.35868850510892,-5.812462183216142 L 96.36425590577478,-10.844040247008866 L 95.66676044378885,-7.926249973444122 A 145.8283484299458 145.8283484299458 0 0 0 85.65351513200301,-9.951978257771572"/><text text-anchor="middle" pointer-events="none" font-size="8px" fill="#000000" x="59.788856185936694" y="-8.409025564817256" font-family="sans-serif">PRODUCED</text></g><g class="relationship" transform="translate(81.93943771641801 132.27956652624061) rotate(240.51126613351227)"><path class="outline" fill="#A5ABB6" stroke="none" d="M 25 0.5 L 40.46013076826702 0.5 L 40.46013076826702 -0.5 L 25 -0.5 Z M 87.35075576826702 0.5 L 102.81088653653404 0.5 L 102.81088653653404 3.5 L 109.81088653653404 0 L 102.81088653653404 -3.5 L 102.81088653653404 -0.5 L 87.35075576826702 -0.5 Z"/><text text-anchor="middle" pointer-events="none" font-size="8px" fill="#000000" x="63.90544326826702" y="3" transform="rotate(180 63.90544326826702 0)" font-family="sans-serif">DIRECTED</text></g><g class="relationship" transform="translate(81.93943771641801 132.27956652624061) rotate(199.1352796080788)"><path class="outline" fill="#A5ABB6" stroke="none" d="M 25 0.5 L 29.320934589462397 0.5 L 29.320934589462397 -0.5 L 25 -0.5 Z M 76.2115595894624 0.5 L 80.5324941789248 0.5 L 80.5324941789248 3.5 L 87.5324941789248 0 L 80.5324941789248 -3.5 L 80.5324941789248 -0.5 L 76.2115595894624 -0.5 Z"/><text text-anchor="middle" pointer-events="none" font-size="8px" fill="#000000" x="52.7662470894624" y="3" transform="rotate(180 52.7662470894624 0)" font-family="sans-serif">DIRECTED</text></g><g class="relationship" transform="translate(81.93943771641801 132.27956652624061) rotate(507.6385631403421)"><path class="outline" fill="#A5ABB6" stroke="none" d="M 25 0.5 L 25.12314617837115 0.5 L 25.12314617837115 -0.5 L 25 -0.5 Z M 58.23642742837115 0.5 L 58.3595736067423 0.5 L 58.3595736067423 3.5 L 65.3595736067423 0 L 58.3595736067423 -3.5 L 58.3595736067423 -0.5 L 58.23642742837115 -0.5 Z"/><text text-anchor="middle" pointer-events="none" font-size="8px" fill="#000000" x="41.67978680337115" y="3" transform="rotate(180 41.67978680337115 0)" font-family="sans-serif">DIRE…</text></g><g class="relationship" transform="translate(85.91241685322217 72.48079437010689) rotate(348.5803465166996)"><path class="outline" fill="#A5ABB6" stroke="none" d="M 24.018736134675446,6.953439040707552 L 24.277555179777966,5.987513214418485 A 85.5803071642284 85.5803071642284 0 0 0 27.3125859104263,6.741591997143601 L 27.08923099055558,7.716329182116837 A 86.5803071642284 86.5803071642284 0 0 1 24.018736134675446,6.953439040707552 Z M 62.806642894246906,8.340158868454651 L 62.61746275766488,7.358216468961288 A 85.5803071642284 85.5803071642284 0 0 0 65.67697537442461,6.710583166525665 L 65.00218438151965,3.78745861976165 L 72.61006448235815,5.623258274208073 L 66.57669669829791,10.608082562211017 L 65.90190570539295,7.684958015447003 A 86.5803071642284 86.5803071642284 0 0 1 62.806642894246906,8.340158868454651"/><text text-anchor="middle" pointer-events="none" font-size="8px" fill="#000000" x="44.92414479559925" y="12.39046503850625" font-family="sans-serif">WROTE</text></g><g class="relationship" transform="translate(85.91241685322217 72.48079437010689) rotate(348.5803465166996)"><path class="outline" fill="#A5ABB6" stroke="none" d="M 24.018736134675446,-6.953439040707552 L 24.277555179777966,-5.987513214418485 A 85.5803071642284 85.5803071642284 0 0 1 26.66396652380782,-6.590306071835286 L 26.433032531039245,-7.56327549118204 A 86.5803071642284 86.5803071642284 0 0 0 24.018736134675446,-6.953439040707552 Z M 63.467785878185026,-8.21011347111309 L 63.27096955959357,-7.229673092132245 A 85.5803071642284 85.5803071642284 0 0 1 65.67697537442461,-6.710583166525665 L 65.00218438151965,-3.78745861976165 L 72.61006448235815,-5.623258274208073 L 66.57669669829791,-10.608082562211017 L 65.90190570539295,-7.684958015447003 A 86.5803071642284 86.5803071642284 0 0 0 63.467785878185026,-8.21011347111309"/><text text-anchor="middle" pointer-events="none" font-size="8px" fill="#000000" x="44.924144795599226" y="-6.39046503850625" font-family="sans-serif">PROD…</text></g><g class="relationship" transform="translate(85.91241685322217 72.48079437010689) rotate(406.0189117097201)"><path class="outline" fill="#A5ABB6" stroke="none" d="M 25 0.5 L 36.17592891399554 0.5 L 36.17592891399554 -0.5 L 25 -0.5 Z M 83.06655391399553 0.5 L 94.24248282799108 0.5 L 94.24248282799108 3.5 L 101.24248282799108 0 L 94.24248282799108 -3.5 L 94.24248282799108 -0.5 L 83.06655391399553 -0.5 Z"/><text text-anchor="middle" pointer-events="none" font-size="8px" fill="#000000" x="59.62124141399554" y="3" font-family="sans-serif">DIRECTED</text></g><g class="relationship" transform="translate(85.91241685322217 72.48079437010689) rotate(219.29025195337965)"><path class="outline" fill="#A5ABB6" stroke="none" d="M 25 0.5 L 25.381791192374777 0.5 L 25.381791192374777 -0.5 L 25 -0.5 Z M 58.49507244237478 0.5 L 58.876863634749554 0.5 L 58.876863634749554 3.5 L 65.87686363474955 0 L 58.876863634749554 -3.5 L 58.876863634749554 -0.5 L 58.49507244237478 -0.5 Z"/><text text-anchor="middle" pointer-events="none" font-size="8px" fill="#000000" x="41.93843181737478" y="3" transform="rotate(180 41.93843181737478 0)" font-family="sans-serif">DIRE…</text></g><g class="relationship" transform="translate(85.91241685322217 72.48079437010689) rotate(528.264555174896)"><path class="outline" fill="#A5ABB6" stroke="none" d="M 25 0.5 L 29.37583037845794 0.5 L 29.37583037845794 -0.5 L 25 -0.5 Z M 76.26645537845795 0.5 L 80.64228575691588 0.5 L 80.64228575691588 3.5 L 87.64228575691588 0 L 80.64228575691588 -3.5 L 80.64228575691588 -0.5 L 76.26645537845795 -0.5 Z"/><text text-anchor="middle" pointer-events="none" font-size="8px" fill="#000000" x="52.82114287845794" y="3" transform="rotate(180 52.82114287845794 0)" font-family="sans-serif">DIRECTED</text></g><g class="relationship" transform="translate(85.91241685322217 72.48079437010689) rotate(486.58928485820644)"><path class="outline" fill="#A5ABB6" stroke="none" d="M 25 0.5 L 40.410890488376225 0.5 L 40.410890488376225 -0.5 L 25 -0.5 Z M 87.30151548837622 0.5 L 102.71240597675245 0.5 L 102.71240597675245 3.5 L 109.71240597675245 0 L 102.71240597675245 -3.5 L 102.71240597675245 -0.5 L 87.30151548837622 -0.5 Z"/><text text-anchor="middle" pointer-events="none" font-size="8px" fill="#000000" x="63.856202988376225" y="3" transform="rotate(180 63.856202988376225 0)" font-family="sans-serif">DIRECTED</text></g><g class="relationship" transform="translate(244.15790496664778 -36.91070297406033) rotate(485.0181068863055)"><path class="outline" fill="#A5ABB6" stroke="none" d="M 25 0.5 L 28.119030693185515 0.5 L 28.119030693185515 -0.5 L 25 -0.5 Z M 75.00965569318552 0.5 L 78.12868638637103 0.5 L 78.12868638637103 3.5 L 85.12868638637103 0 L 78.12868638637103 -3.5 L 78.12868638637103 -0.5 L 75.00965569318552 -0.5 Z"/><text text-anchor="middle" pointer-events="none" font-size="8px" fill="#000000" x="51.564343193185515" y="3" transform="rotate(180 51.564343193185515 0)" font-family="sans-serif">DIRECTED</text></g></g><g class="layer nodes"><g class="node" transform="translate(173.57783526843258,163.32097757479727)"><circle class="outline" cx="0" cy="0" r="25" fill="#F79767" stroke="#f36924" stroke-width="2px"/><text text-anchor="middle" pointer-events="none" font-family="sans-serif" dy="1.5625" font-size="25" fill="#FFFFFF"/><text text-anchor="middle" pointer-events="none" font-family="sans-serif" dy="1.5625" font-size="25" fill="#FFFFFF"/><text text-anchor="middle" pointer-events="none" x="0" y="0" font-size="10px" fill="#FFFFFF" font-family="sans-serif"> Cloud</text><text text-anchor="middle" pointer-events="none" x="0" y="10" font-size="10px" fill="#FFFFFF" font-family="sans-serif"> Atlas</text></g><g class="node" transform="translate(238.329481225764,252.1774871517197)"><circle class="outline" cx="0" cy="0" r="25" fill="#57C7E3" stroke="#23b3d7" stroke-width="2px"/><text text-anchor="middle" pointer-events="none" font-family="sans-serif" dy="1.5625" font-size="25" fill="#2A2C34"/><text text-anchor="middle" pointer-events="none" font-family="sans-serif" dy="1.5625" font-size="25" fill="#2A2C34"/><text text-anchor="middle" pointer-events="none" x="0" y="0" font-size="10px" fill="#2A2C34" font-family="sans-serif"> Tom</text><text text-anchor="middle" pointer-events="none" x="0" y="10" font-size="10px" fill="#2A2C34" font-family="sans-serif"> Tykwer</text></g><g class="node" transform="translate(81.93943771641801,132.27956652624061)"><circle class="outline" cx="0" cy="0" r="25" fill="#57C7E3" stroke="#23b3d7" stroke-width="2px"/><text text-anchor="middle" pointer-events="none" font-family="sans-serif" dy="1.5625" font-size="25" fill="#2A2C34"/><text text-anchor="middle" pointer-events="none" font-family="sans-serif" dy="1.5625" font-size="25" fill="#2A2C34"/><text text-anchor="middle" pointer-events="none" x="0" y="0" font-size="10px" fill="#2A2C34" font-family="sans-serif"> Lana</text><text text-anchor="middle" pointer-events="none" x="0" y="10" font-size="10px" fill="#2A2C34" font-family="sans-serif"> Wacho…</text></g><g class="node" transform="translate(85.91241685322217,72.48079437010689)"><circle class="outline" cx="0" cy="0" r="25" fill="#57C7E3" stroke="#23b3d7" stroke-width="2px"/><text text-anchor="middle" pointer-events="none" font-family="sans-serif" dy="1.5625" font-size="25" fill="#2A2C34"/><text text-anchor="middle" pointer-events="none" font-family="sans-serif" dy="1.5625" font-size="25" fill="#2A2C34"/><text text-anchor="middle" pointer-events="none" x="0" y="0" font-size="10px" fill="#2A2C34" font-family="sans-serif"> Andy</text><text text-anchor="middle" pointer-events="none" x="0" y="10" font-size="10px" fill="#2A2C34" font-family="sans-serif"> Wacho…</text></g><g class="node" transform="translate(180.9621793723636,53.28146870286295)"><circle class="outline" cx="0" cy="0" r="25" fill="#F79767" stroke="#f36924" stroke-width="2px"/><text text-anchor="middle" pointer-events="none" font-family="sans-serif" dy="1.5625" font-size="25" fill="#FFFFFF"/><text text-anchor="middle" pointer-events="none" font-family="sans-serif" dy="1.5625" font-size="25" fill="#FFFFFF"/><text text-anchor="middle" pointer-events="none" x="0" y="0" font-size="10px" fill="#FFFFFF" font-family="sans-serif"> V for</text><text text-anchor="middle" pointer-events="none" x="0" y="10" font-size="10px" fill="#FFFFFF" font-family="sans-serif"> Vendetta</text></g><g class="node" transform="translate(244.15790496664778,-36.91070297406033)"><circle class="outline" cx="0" cy="0" r="25" fill="#57C7E3" stroke="#23b3d7" stroke-width="2px"/><text text-anchor="middle" pointer-events="none" font-family="sans-serif" dy="1.5625" font-size="25" fill="#2A2C34"/><text text-anchor="middle" pointer-events="none" font-family="sans-serif" dy="1.5625" font-size="25" fill="#2A2C34"/><text text-anchor="middle" pointer-events="none" x="0" y="0" font-size="10px" fill="#2A2C34" font-family="sans-serif"> James</text><text text-anchor="middle" pointer-events="none" x="0" y="10" font-size="10px" fill="#2A2C34" font-family="sans-serif"> Marshall</text></g><g class="node" transform="translate(15.578453713387963,14.933092651156299)"><circle class="outline" cx="0" cy="0" r="25" fill="#F79767" stroke="#f36924" stroke-width="2px"/><text text-anchor="middle" pointer-events="none" font-family="sans-serif" dy="1.5625" font-size="25" fill="#FFFFFF"/><text text-anchor="middle" pointer-events="none" font-family="sans-serif" dy="1.5625" font-size="25" fill="#FFFFFF"/><text text-anchor="middle" pointer-events="none" font-family="sans-serif" dy="1.5625" font-size="25" fill="#FFFFFF"/><text text-anchor="middle" pointer-events="none" x="0" y="-5" font-size="10px" fill="#FFFFFF" font-family="sans-serif"> The</text><text text-anchor="middle" pointer-events="none" x="0" y="5" font-size="10px" fill="#FFFFFF" font-family="sans-serif"> Matrix</text><text text-anchor="middle" pointer-events="none" x="0" y="15" font-size="10px" fill="#FFFFFF" font-family="sans-serif"> Revol…</text></g><g class="node" transform="translate(-24.375326711121012,95.39145040672827)"><circle class="outline" cx="0" cy="0" r="25" fill="#F79767" stroke="#f36924" stroke-width="2px"/><text text-anchor="middle" pointer-events="none" font-family="sans-serif" dy="1.5625" font-size="25" fill="#FFFFFF"/><text text-anchor="middle" pointer-events="none" font-family="sans-serif" dy="1.5625" font-size="25" fill="#FFFFFF"/><text text-anchor="middle" pointer-events="none" font-family="sans-serif" dy="1.5625" font-size="25" fill="#FFFFFF"/><text text-anchor="middle" pointer-events="none" x="0" y="-5" font-size="10px" fill="#FFFFFF" font-family="sans-serif"> The</text><text text-anchor="middle" pointer-events="none" x="0" y="5" font-size="10px" fill="#FFFFFF" font-family="sans-serif"> Matrix</text><text text-anchor="middle" pointer-events="none" x="0" y="15" font-size="10px" fill="#FFFFFF" font-family="sans-serif"> Reloa…</text></g><g class="node" transform="translate(5.613756368034914,180.64528691886338)"><circle class="outline" cx="0" cy="0" r="25" fill="#F79767" stroke="#f36924" stroke-width="2px"/><text text-anchor="middle" pointer-events="none" font-family="sans-serif" dy="1.5625" font-size="25" fill="#FFFFFF"/><text text-anchor="middle" pointer-events="none" font-family="sans-serif" dy="1.5625" font-size="25" fill="#FFFFFF"/><text text-anchor="middle" pointer-events="none" x="0" y="0" font-size="10px" fill="#FFFFFF" font-family="sans-serif"> The</text><text text-anchor="middle" pointer-events="none" x="0" y="10" font-size="10px" fill="#FFFFFF" font-family="sans-serif"> Matrix</text></g></g></svg>