<svg xmlns="http://www.w3.org/2000/svg" width="285.6487121582031" height="265.8097839355469" viewBox="-31.791919708251953 -40.73615646362305 285.6487121582031 265.8097839355469"><title>Neo4j Graph Visualization</title><desc>Created using Neo4j (http://www.neo4j.com/)</desc><g class="layer relationships"><g class="relationship" transform="translate(162.257078666709 196.07364753211056) rotate(243.79362981206634)"><path class="outline" fill="#A5ABB6" stroke="none" d="M 25 0.5 L 36.32674425530966 0.5 L 36.32674425530966 -0.5 L 25 -0.5 Z M 72.10018175530966 0.5 L 83.42692601061933 0.5 L 83.42692601061933 3.5 L 90.42692601061933 0 L 83.42692601061933 -3.5 L 83.42692601061933 -0.5 L 72.10018175530966 -0.5 Z"/><text text-anchor="middle" pointer-events="none" font-size="8px" fill="#000000" x="54.21346300530966" y="3" transform="rotate(180 54.21346300530966 0)" font-family="sans-serif">WROTE</text></g><g class="relationship" transform="translate(224.85677332314995 91.44867541696611) rotate(539.463817370311)"><path class="outline" fill="#A5ABB6" stroke="none" d="M 25 0.5 L 35.40220412131142 0.5 L 35.40220412131142 -0.5 L 25 -0.5 Z M 71.17564162131143 0.5 L 81.57784574262284 0.5 L 81.57784574262284 3.5 L 88.57784574262284 0 L 81.57784574262284 -3.5 L 81.57784574262284 -0.5 L 71.17564162131143 -0.5 Z"/><text text-anchor="middle" pointer-events="none" font-size="8px" fill="#000000" x="53.28892287131142" y="3" transform="rotate(180 53.28892287131142 0)" font-family="sans-serif">WROTE</text></g><g class="relationship" transform="translate(156.2988708521811 -11.736156581998994) rotate(473.3550644675888)"><path class="outline" fill="#A5ABB6" stroke="none" d="M 25 0.5 L 30.494469927168325 0.5 L 30.494469927168325 -0.5 L 25 -0.5 Z M 76.05696992716832 0.5 L 81.55143985433665 0.5 L 81.55143985433665 3.5 L 88.55143985433665 0 L 81.55143985433665 -3.5 L 81.55143985433665 -0.5 L 76.05696992716832 -0.5 Z"/><text text-anchor="middle" pointer-events="none" font-size="8px" fill="#000000" x="53.275719927168325" y="3" transform="rotate(180 53.275719927168325 0)" font-family="sans-serif">ACTED_IN</text></g><g class="relationship" transform="translate(35.567127214360255 5.4458249121499325) rotate(408.9881187620334)"><path class="outline" fill="#A5ABB6" stroke="none" d="M 25 0.5 L 30.746689374904562 0.5 L 30.746689374904562 -0.5 L 25 -0.5 Z M 77.63731437490456 0.5 L 83.38400374980912 0.5 L 83.38400374980912 3.5 L 90.38400374980912 0 L 83.38400374980912 -3.5 L 83.38400374980912 -0.5 L 77.63731437490456 -0.5 Z"/><text text-anchor="middle" pointer-events="none" font-size="8px" fill="#000000" x="54.19200187490456" y="3" font-family="sans-serif">DIRECTED</text></g><g class="relationship" transform="translate(-2.791920474443461 106.2329949907273) rotate(353.14120581042994)"><path class="outline" fill="#A5ABB6" stroke="none" d="M 25 0.5 L 31.167795620257067 0.5 L 31.167795620257067 -0.5 L 25 -0.5 Z M 76.73029562025707 0.5 L 82.89809124051413 0.5 L 82.89809124051413 3.5 L 89.89809124051413 0 L 82.89809124051413 -3.5 L 82.89809124051413 -0.5 L 76.73029562025707 -0.5 Z"/><text text-anchor="middle" pointer-events="none" font-size="8px" fill="#000000" x="53.94904562025707" y="3" font-family="sans-serif">ACTED_IN</text></g><g class="relationship" transform="translate(54.48299630165925 192.41444205419987) rotate(299.62087586402265)"><path class="outline" fill="#A5ABB6" stroke="none" d="M 25 0.5 L 31.17946018202033 0.5 L 31.17946018202033 -0.5 L 25 -0.5 Z M 76.74196018202034 0.5 L 82.92142036404066 0.5 L 82.92142036404066 3.5 L 89.92142036404066 0 L 82.92142036404066 -3.5 L 82.92142036404066 -0.5 L 76.74196018202034 -0.5 Z"/><text text-anchor="middle" pointer-events="none" font-size="8px" fill="#000000" x="53.96071018202033" y="3" font-family="sans-serif">ACTED_IN</text></g></g><g class="layer nodes"><g class="node" transform="translate(111.28390083495357,92.5115386795325)"><circle class="outline" cx="0" cy="0" r="25" fill="#F79767" stroke="#f36924" stroke-width="2px"/><text text-anchor="middle" pointer-events="none" font-family="sans-serif" dy="1.5625" font-size="25" fill="#FFFFFF"/><text text-anchor="middle" pointer-events="none" font-family="sans-serif" dy="1.5625" font-size="25" fill="#FFFFFF"/><text text-anchor="middle" pointer-events="none" font-family="sans-serif" dy="1.5625" font-size="25" fill="#FFFFFF"/><text text-anchor="middle" pointer-events="none" x="0" y="-5" font-size="10px" fill="#FFFFFF" font-family="sans-serif"> Captain</text><text text-anchor="middle" pointer-events="none" x="0" y="5" font-size="10px" fill="#FFFFFF" font-family="sans-serif"> America:</text><text text-anchor="middle" pointer-events="none" x="0" y="15" font-size="10px" fill="#FFFFFF" font-family="sans-serif"> The Fi…</text></g><g class="node" transform="translate(162.257078666709,196.07364753211056)"><circle class="outline" cx="0" cy="0" r="25" fill="#57C7E3" stroke="#23b3d7" stroke-width="2px"/><text text-anchor="middle" pointer-events="none" font-family="sans-serif" dy="1.5625" font-size="25" fill="#2A2C34"/><text text-anchor="middle" pointer-events="none" font-family="sans-serif" dy="1.5625" font-size="25" fill="#2A2C34"/><text text-anchor="middle" pointer-events="none" x="0" y="0" font-size="10px" fill="#2A2C34" font-family="sans-serif"> Stephen</text><text text-anchor="middle" pointer-events="none" x="0" y="10" font-size="10px" fill="#2A2C34" font-family="sans-serif"> McFeely</text></g><g class="node" transform="translate(224.85677332314995,91.44867541696611)"><circle class="outline" cx="0" cy="0" r="25" fill="#57C7E3" stroke="#23b3d7" stroke-width="2px"/><text text-anchor="middle" pointer-events="none" font-family="sans-serif" dy="1.5625" font-size="25" fill="#2A2C34"/><text text-anchor="middle" pointer-events="none" x="0" y="5" font-size="10px" fill="#2A2C34" font-family="sans-serif"> Christop…</text></g><g class="node" transform="translate(156.2988708521811,-11.736156581998994)"><circle class="outline" cx="0" cy="0" r="25" fill="#57C7E3" stroke="#23b3d7" stroke-width="2px"/><text text-anchor="middle" pointer-events="none" font-family="sans-serif" dy="1.5625" font-size="25" fill="#2A2C34"/><text text-anchor="middle" pointer-events="none" font-family="sans-serif" dy="1.5625" font-size="25" fill="#2A2C34"/><text text-anchor="middle" pointer-events="none" x="0" y="0" font-size="10px" fill="#2A2C34" font-family="sans-serif"> Chris</text><text text-anchor="middle" pointer-events="none" x="0" y="10" font-size="10px" fill="#2A2C34" font-family="sans-serif"> Evans</text></g><g class="node" transform="translate(35.567127214360255,5.4458249121499325)"><circle class="outline" cx="0" cy="0" r="25" fill="#57C7E3" stroke="#23b3d7" stroke-width="2px"/><text text-anchor="middle" pointer-events="none" font-family="sans-serif" dy="1.5625" font-size="25" fill="#2A2C34"/><text text-anchor="middle" pointer-events="none" font-family="sans-serif" dy="1.5625" font-size="25" fill="#2A2C34"/><text text-anchor="middle" pointer-events="none" x="0" y="0" font-size="10px" fill="#2A2C34" font-family="sans-serif"> Joe</text><text text-anchor="middle" pointer-events="none" x="0" y="10" font-size="10px" fill="#2A2C34" font-family="sans-serif"> Johnston</text></g><g class="node" transform="translate(-2.791920474443461,106.2329949907273)"><circle class="outline" cx="0" cy="0" r="25" fill="#57C7E3" stroke="#23b3d7" stroke-width="2px"/><text text-anchor="middle" pointer-events="none" font-family="sans-serif" dy="1.5625" font-size="25" fill="#2A2C34"/><text text-anchor="middle" pointer-events="none" font-family="sans-serif" dy="1.5625" font-size="25" fill="#2A2C34"/><text text-anchor="middle" pointer-events="none" x="0" y="0" font-size="10px" fill="#2A2C34" font-family="sans-serif"> Hugo</text><text text-anchor="middle" pointer-events="none" x="0" y="10" font-size="10px" fill="#2A2C34" font-family="sans-serif"> Weaving</text></g><g class="node" transform="translate(54.48299630165925,192.41444205419987)"><circle class="outline" cx="0" cy="0" r="25" fill="#57C7E3" stroke="#23b3d7" stroke-width="2px"/><text text-anchor="middle" pointer-events="none" font-family="sans-serif" dy="1.5625" font-size="25" fill="#2A2C34"/><text text-anchor="middle" pointer-events="none" font-family="sans-serif" dy="1.5625" font-size="25" fill="#2A2C34"/><text text-anchor="middle" pointer-events="none" font-family="sans-serif" dy="1.5625" font-size="25" fill="#2A2C34"/><text text-anchor="middle" pointer-events="none" x="0" y="-5" font-size="10px" fill="#2A2C34" font-family="sans-serif"> Samuel</text><text text-anchor="middle" pointer-events="none" x="0" y="5" font-size="10px" fill="#2A2C34" font-family="sans-serif"> L.</text><text text-anchor="middle" pointer-events="none" x="0" y="15" font-size="10px" fill="#2A2C34" font-family="sans-serif"> Jackson</text></g></g></svg>