<svg xmlns="http://www.w3.org/2000/svg" width="237.98497009277344" height="247.42950439453125" viewBox="-8.93819808959961 -9.795249938964844 237.98497009277344 247.42950439453125"><title>Neo4j Graph Visualization</title><desc>Created using Neo4j (http://www.neo4j.com/)</desc><g class="layer relationships"><g class="relationship" transform="translate(125.41350959628932 128.47651937779312) rotate(408.053722628258)"><path class="outline" fill="#A5ABB6" stroke="none" d="M 25 0.5 L 27.604721399596286 0.5 L 27.604721399596286 -0.5 L 25 -0.5 Z M 73.16722139959629 0.5 L 75.77194279919257 0.5 L 75.77194279919257 3.5 L 82.77194279919257 0 L 75.77194279919257 -3.5 L 75.77194279919257 -0.5 L 73.16722139959629 -0.5 Z"/><text text-anchor="middle" pointer-events="none" font-size="8px" fill="#000000" x="50.385971399596286" y="3" font-family="sans-serif">ACTED_IN</text></g><g class="relationship" transform="translate(125.41350959628932 128.47651937779312) rotate(311.36539656853097)"><path class="outline" fill="#A5ABB6" stroke="none" d="M 25 0.5 L 30.185624072762693 0.5 L 30.185624072762693 -0.5 L 25 -0.5 Z M 75.74812407276269 0.5 L 80.93374814552539 0.5 L 80.93374814552539 3.5 L 87.93374814552539 0 L 80.93374814552539 -3.5 L 80.93374814552539 -0.5 L 75.74812407276269 -0.5 Z"/><text text-anchor="middle" pointer-events="none" font-size="8px" fill="#000000" x="52.96687407276269" y="3" font-family="sans-serif">ACTED_IN</text></g><g class="relationship" transform="translate(125.41350959628932 128.47651937779312) rotate(254.79236602460952)"><path class="outline" fill="#A5ABB6" stroke="none" d="M 25 0.5 L 30.33732918416181 0.5 L 30.33732918416181 -0.5 L 25 -0.5 Z M 75.8998291841618 0.5 L 81.23715836832362 0.5 L 81.23715836832362 3.5 L 88.23715836832362 0 L 81.23715836832362 -3.5 L 81.23715836832362 -0.5 L 75.8998291841618 -0.5 Z"/><text text-anchor="middle" pointer-events="none" font-size="8px" fill="#000000" x="53.11857918416181" y="3" transform="rotate(180 53.11857918416181 0)" font-family="sans-serif">ACTED_IN</text></g><g class="relationship" transform="translate(125.41350959628932 128.47651937779312) rotate(201.4950710932696)"><path class="outline" fill="#A5ABB6" stroke="none" d="M 25 0.5 L 30.332114242470766 0.5 L 30.332114242470766 -0.5 L 25 -0.5 Z M 75.89461424247077 0.5 L 81.22672848494153 0.5 L 81.22672848494153 3.5 L 88.22672848494153 0 L 81.22672848494153 -3.5 L 81.22672848494153 -0.5 L 75.89461424247077 -0.5 Z"/><text text-anchor="middle" pointer-events="none" font-size="8px" fill="#000000" x="53.113364242470766" y="3" transform="rotate(180 53.113364242470766 0)" font-family="sans-serif">ACTED_IN</text></g><g class="relationship" transform="translate(125.41350959628932 128.47651937779312) rotate(504.8899694053477)"><path class="outline" fill="#A5ABB6" stroke="none" d="M 25 0.5 L 30.169736474003656 0.5 L 30.169736474003656 -0.5 L 25 -0.5 Z M 75.73223647400366 0.5 L 80.90197294800731 0.5 L 80.90197294800731 3.5 L 87.90197294800731 0 L 80.90197294800731 -3.5 L 80.90197294800731 -0.5 L 75.73223647400366 -0.5 Z"/><text text-anchor="middle" pointer-events="none" font-size="8px" fill="#000000" x="52.950986474003656" y="3" transform="rotate(180 52.950986474003656 0)" font-family="sans-serif">ACTED_IN</text></g></g><g class="layer nodes"><g class="node" transform="translate(125.41350959628932,128.47651937779312)"><circle class="outline" cx="0" cy="0" r="25" fill="#57C7E3" stroke="#23b3d7" stroke-width="2px"/><text text-anchor="middle" pointer-events="none" font-family="sans-serif" dy="1.5625" font-size="25" fill="#2A2C34"/><text text-anchor="middle" pointer-events="none" font-family="sans-serif" dy="1.5625" font-size="25" fill="#2A2C34"/><text text-anchor="middle" pointer-events="none" x="0" y="0" font-size="10px" fill="#2A2C34" font-family="sans-serif"> Hugo</text><text text-anchor="middle" pointer-events="none" x="0" y="10" font-size="10px" fill="#2A2C34" font-family="sans-serif"> Weaving</text></g><g class="node" transform="translate(197.45188786271532,208.63426205718596)"><circle class="outline" cx="0" cy="0" r="25" fill="#F79767" stroke="#f36924" stroke-width="2px"/><text text-anchor="middle" pointer-events="none" font-family="sans-serif" dy="1.5625" font-size="25" fill="#FFFFFF"/><text text-anchor="middle" pointer-events="none" font-family="sans-serif" dy="1.5625" font-size="25" fill="#FFFFFF"/><text text-anchor="middle" pointer-events="none" x="0" y="0" font-size="10px" fill="#FFFFFF" font-family="sans-serif"> Cloud</text><text text-anchor="middle" pointer-events="none" x="0" y="10" font-size="10px" fill="#FFFFFF" font-family="sans-serif"> Atlas</text></g><g class="node" transform="translate(200.0467618186943,43.71857501324499)"><circle class="outline" cx="0" cy="0" r="25" fill="#F79767" stroke="#f36924" stroke-width="2px"/><text text-anchor="middle" pointer-events="none" font-family="sans-serif" dy="1.5625" font-size="25" fill="#FFFFFF"/><text text-anchor="middle" pointer-events="none" font-family="sans-serif" dy="1.5625" font-size="25" fill="#FFFFFF"/><text text-anchor="middle" pointer-events="none" x="0" y="0" font-size="10px" fill="#FFFFFF" font-family="sans-serif"> V for</text><text text-anchor="middle" pointer-events="none" x="0" y="10" font-size="10px" fill="#FFFFFF" font-family="sans-serif"> Vendetta</text></g><g class="node" transform="translate(95.70939263590715,19.204750512560864)"><circle class="outline" cx="0" cy="0" r="25" fill="#F79767" stroke="#f36924" stroke-width="2px"/><text text-anchor="middle" pointer-events="none" font-family="sans-serif" dy="1.5625" font-size="25" fill="#FFFFFF"/><text text-anchor="middle" pointer-events="none" font-family="sans-serif" dy="1.5625" font-size="25" fill="#FFFFFF"/><text text-anchor="middle" pointer-events="none" font-family="sans-serif" dy="1.5625" font-size="25" fill="#FFFFFF"/><text text-anchor="middle" pointer-events="none" x="0" y="-5" font-size="10px" fill="#FFFFFF" font-family="sans-serif"> The</text><text text-anchor="middle" pointer-events="none" x="0" y="5" font-size="10px" fill="#FFFFFF" font-family="sans-serif"> Matrix</text><text text-anchor="middle" pointer-events="none" x="0" y="15" font-size="10px" fill="#FFFFFF" font-family="sans-serif"> Revol…</text></g><g class="node" transform="translate(20.061802768925766,86.98784728571586)"><circle class="outline" cx="0" cy="0" r="25" fill="#F79767" stroke="#f36924" stroke-width="2px"/><text text-anchor="middle" pointer-events="none" font-family="sans-serif" dy="1.5625" font-size="25" fill="#FFFFFF"/><text text-anchor="middle" pointer-events="none" font-family="sans-serif" dy="1.5625" font-size="25" fill="#FFFFFF"/><text text-anchor="middle" pointer-events="none" font-family="sans-serif" dy="1.5625" font-size="25" fill="#FFFFFF"/><text text-anchor="middle" pointer-events="none" x="0" y="-5" font-size="10px" fill="#FFFFFF" font-family="sans-serif"> The</text><text text-anchor="middle" pointer-events="none" x="0" y="5" font-size="10px" fill="#FFFFFF" font-family="sans-serif"> Matrix</text><text text-anchor="middle" pointer-events="none" x="0" y="15" font-size="10px" fill="#FFFFFF" font-family="sans-serif"> Reloa…</text></g><g class="node" transform="translate(33.05415895566279,193.41191684939082)"><circle class="outline" cx="0" cy="0" r="25" fill="#F79767" stroke="#f36924" stroke-width="2px"/><text text-anchor="middle" pointer-events="none" font-family="sans-serif" dy="1.5625" font-size="25" fill="#FFFFFF"/><text text-anchor="middle" pointer-events="none" font-family="sans-serif" dy="1.5625" font-size="25" fill="#FFFFFF"/><text text-anchor="middle" pointer-events="none" x="0" y="0" font-size="10px" fill="#FFFFFF" font-family="sans-serif"> The</text><text text-anchor="middle" pointer-events="none" x="0" y="10" font-size="10px" fill="#FFFFFF" font-family="sans-serif"> Matrix</text></g></g></svg>