<svg xmlns="http://www.w3.org/2000/svg" width="421.85552978515625" height="444.2513427734375" viewBox="-140.42092895507812 -123.91365051269531 421.85552978515625 444.2513427734375"><title>Neo4j Graph Visualization</title><desc>Created using Neo4j (http://www.neo4j.com/)</desc><g class="layer relationships"><g class="relationship" transform="translate(147.98452433674143 -31.353151218489412) rotate(488.22733620926226)"><path class="outline" fill="#A5ABB6" stroke="none" d="M 25 0.5 L 38.2221680023315 0.5 L 38.2221680023315 -0.5 L 25 -0.5 Z M 83.7846680023315 0.5 L 97.006836004663 0.5 L 97.006836004663 3.5 L 104.006836004663 0 L 97.006836004663 -3.5 L 97.006836004663 -0.5 L 83.7846680023315 -0.5 Z"/><text text-anchor="middle" pointer-events="none" font-size="8px" fill="#000000" x="61.0034180023315" y="3" transform="rotate(180 61.0034180023315 0)" font-family="sans-serif">ACTED_IN</text></g><g class="relationship" transform="translate(-28.585927157091028 23.511796101846333) rotate(225.395564151715)"><path class="outline" fill="#A5ABB6" stroke="none" d="M 25 0.5 L 32.70054532900209 0.5 L 32.70054532900209 -0.5 L 25 -0.5 Z M 78.2630453290021 0.5 L 85.96359065800418 0.5 L 85.96359065800418 3.5 L 92.96359065800418 0 L 85.96359065800418 -3.5 L 85.96359065800418 -0.5 L 78.2630453290021 -0.5 Z"/><text text-anchor="middle" pointer-events="none" font-size="8px" fill="#000000" x="55.48179532900209" y="3" transform="rotate(180 55.48179532900209 0)" font-family="sans-serif">ACTED_IN</text></g><g class="relationship" transform="translate(-28.585927157091028 23.511796101846333) rotate(284.6629330681801)"><path class="outline" fill="#A5ABB6" stroke="none" d="M 25 0.5 L 34.9248505323022 0.5 L 34.9248505323022 -0.5 L 25 -0.5 Z M 80.4873505323022 0.5 L 90.4122010646044 0.5 L 90.4122010646044 3.5 L 97.4122010646044 0 L 90.4122010646044 -3.5 L 90.4122010646044 -0.5 L 80.4873505323022 -0.5 Z"/><text text-anchor="middle" pointer-events="none" font-size="8px" fill="#000000" x="57.7061005323022" y="3" font-family="sans-serif">ACTED_IN</text></g><g class="relationship" transform="translate(-28.585927157091028 23.511796101846333) rotate(446.05636700249914)"><path class="outline" fill="#A5ABB6" stroke="none" d="M 25 0.5 L 42.90005321340783 0.5 L 42.90005321340783 -0.5 L 25 -0.5 Z M 88.46255321340783 0.5 L 106.36260642681566 0.5 L 106.36260642681566 3.5 L 113.36260642681566 0 L 106.36260642681566 -3.5 L 106.36260642681566 -0.5 L 88.46255321340783 -0.5 Z"/><text text-anchor="middle" pointer-events="none" font-size="8px" fill="#000000" x="65.68130321340783" y="3" font-family="sans-serif">ACTED_IN</text></g><g class="relationship" transform="translate(-28.585927157091028 23.511796101846333) rotate(419.88353466651006)"><path class="outline" fill="#A5ABB6" stroke="none" d="M 25 0.5 L 27.395717412096005 0.5 L 27.395717412096005 -0.5 L 25 -0.5 Z M 72.958217412096 0.5 L 75.35393482419201 0.5 L 75.35393482419201 3.5 L 82.35393482419201 0 L 75.35393482419201 -3.5 L 75.35393482419201 -0.5 L 72.958217412096 -0.5 Z"/><text text-anchor="middle" pointer-events="none" font-size="8px" fill="#000000" x="50.176967412096005" y="3" font-family="sans-serif">ACTED_IN</text></g><g class="relationship" transform="translate(-28.585927157091028 23.511796101846333) rotate(385.66081598513955)"><path class="outline" fill="#A5ABB6" stroke="none" d="M 25 0.5 L 27.383070544827724 0.5 L 27.383070544827724 -0.5 L 25 -0.5 Z M 72.94557054482772 0.5 L 75.32864108965545 0.5 L 75.32864108965545 3.5 L 82.32864108965545 0 L 75.32864108965545 -3.5 L 75.32864108965545 -0.5 L 72.94557054482772 -0.5 Z"/><text text-anchor="middle" pointer-events="none" font-size="8px" fill="#000000" x="50.164320544827724" y="3" font-family="sans-serif">ACTED_IN</text></g><g class="relationship" transform="translate(51.866319458225874 211.3800529202237) rotate(215.08830030096192)"><path class="outline" fill="#A5ABB6" stroke="none" d="M 25 0.5 L 27.288833328770103 0.5 L 27.288833328770103 -0.5 L 25 -0.5 Z M 52.4021145787701 0.5 L 54.690947907540206 0.5 L 54.690947907540206 3.5 L 61.690947907540206 0 L 54.690947907540206 -3.5 L 54.690947907540206 -0.5 L 52.4021145787701 -0.5 Z"/><text text-anchor="middle" pointer-events="none" font-size="8px" fill="#000000" x="39.8454739537701" y="3" transform="rotate(180 39.8454739537701 0)" font-family="sans-serif">AC…</text></g><g class="relationship" transform="translate(51.866319458225874 211.3800529202237) rotate(254.36634551137024)"><path class="outline" fill="#A5ABB6" stroke="none" d="M 25 0.5 L 25.271440986756744 0.5 L 25.271440986756744 -0.5 L 25 -0.5 Z M 66.38472223675674 0.5 L 66.65616322351349 0.5 L 66.65616322351349 3.5 L 73.65616322351349 0 L 66.65616322351349 -3.5 L 66.65616322351349 -0.5 L 66.38472223675674 -0.5 Z"/><text text-anchor="middle" pointer-events="none" font-size="8px" fill="#000000" x="45.828081611756744" y="3" transform="rotate(180 45.828081611756744 0)" font-family="sans-serif">ACTED…</text></g><g class="relationship" transform="translate(51.866319458225874 211.3800529202237) rotate(276.57261098277337)"><path class="outline" fill="#A5ABB6" stroke="none" d="M 25 0.5 L 44.8816450433025 0.5 L 44.8816450433025 -0.5 L 25 -0.5 Z M 90.4441450433025 0.5 L 110.325790086605 0.5 L 110.325790086605 3.5 L 117.325790086605 0 L 110.325790086605 -3.5 L 110.325790086605 -0.5 L 90.4441450433025 -0.5 Z"/><text text-anchor="middle" pointer-events="none" font-size="8px" fill="#000000" x="67.6628950433025" y="3" font-family="sans-serif">ACTED_IN</text></g><g class="relationship" transform="translate(-72.4296521505819 85.58619026128618) rotate(414.91332204367814)"><path class="outline" fill="#A5ABB6" stroke="none" d="M 25 0.5 L 25.246633519435257 0.5 L 25.246633519435257 -0.5 L 25 -0.5 Z M 60.58257101943526 0.5 L 60.82920453887051 0.5 L 60.82920453887051 3.5 L 67.82920453887051 0 L 60.82920453887051 -3.5 L 60.82920453887051 -0.5 L 60.58257101943526 -0.5 Z"/><text text-anchor="middle" pointer-events="none" font-size="8px" fill="#000000" x="42.91460226943526" y="3" font-family="sans-serif">ACTE…</text></g><g class="relationship" transform="translate(-72.4296521505819 85.58619026128618) rotate(377.48924242334476)"><path class="outline" fill="#A5ABB6" stroke="none" d="M 25 0.5 L 27.165989958463236 0.5 L 27.165989958463236 -0.5 L 25 -0.5 Z M 68.27927120846323 0.5 L 70.44526116692647 0.5 L 70.44526116692647 3.5 L 77.44526116692647 0 L 70.44526116692647 -3.5 L 70.44526116692647 -0.5 L 68.27927120846323 -0.5 Z"/><text text-anchor="middle" pointer-events="none" font-size="8px" fill="#000000" x="47.722630583463236" y="3" font-family="sans-serif">ACTED…</text></g><g class="relationship" transform="translate(-72.4296521505819 85.58619026128618) rotate(353.6695759818283)"><path class="outline" fill="#A5ABB6" stroke="none" d="M 25 0.5 L 44.44344332846839 0.5 L 44.44344332846839 -0.5 L 25 -0.5 Z M 90.00594332846839 0.5 L 109.44938665693678 0.5 L 109.44938665693678 3.5 L 116.44938665693678 0 L 109.44938665693678 -3.5 L 109.44938665693678 -0.5 L 90.00594332846839 -0.5 Z"/><text text-anchor="middle" pointer-events="none" font-size="8px" fill="#000000" x="67.22469332846839" y="3" font-family="sans-serif">ACTED_IN</text></g><g class="relationship" transform="translate(124.7902942187292 165.27611072576872) rotate(402.8541341212198)"><path class="outline" fill="#A5ABB6" stroke="none" d="M 25 0.5 L 36.41506312236256 0.5 L 36.41506312236256 -0.5 L 25 -0.5 Z M 81.97756312236257 0.5 L 93.39262624472512 0.5 L 93.39262624472512 3.5 L 100.39262624472512 0 L 93.39262624472512 -3.5 L 93.39262624472512 -0.5 L 81.97756312236257 -0.5 Z"/><text text-anchor="middle" pointer-events="none" font-size="8px" fill="#000000" x="59.19631312236256" y="3" font-family="sans-serif">ACTED_IN</text></g><g class="relationship" transform="translate(124.7902942187292 165.27611072576872) rotate(324.28018776916537)"><path class="outline" fill="#A5ABB6" stroke="none" d="M 25 0.5 L 37.32938677531396 0.5 L 37.32938677531396 -0.5 L 25 -0.5 Z M 82.89188677531396 0.5 L 95.22127355062791 0.5 L 95.22127355062791 3.5 L 102.22127355062791 0 L 95.22127355062791 -3.5 L 95.22127355062791 -0.5 L 82.89188677531396 -0.5 Z"/><text text-anchor="middle" pointer-events="none" font-size="8px" fill="#000000" x="60.11063677531396" y="3" font-family="sans-serif">ACTED_IN</text></g><g class="relationship" transform="translate(124.7902942187292 165.27611072576872) rotate(446.8959922470558)"><path class="outline" fill="#A5ABB6" stroke="none" d="M 25 0.5 L 36.84216266853531 0.5 L 36.84216266853531 -0.5 L 25 -0.5 Z M 82.40466266853531 0.5 L 94.24682533707062 0.5 L 94.24682533707062 3.5 L 101.24682533707062 0 L 94.24682533707062 -3.5 L 94.24682533707062 -0.5 L 82.40466266853531 -0.5 Z"/><text text-anchor="middle" pointer-events="none" font-size="8px" fill="#000000" x="59.62341266853531" y="3" font-family="sans-serif">ACTED_IN</text></g><g class="relationship" transform="translate(124.7902942187292 165.27611072576872) rotate(362.5150789921054)"><path class="outline" fill="#A5ABB6" stroke="none" d="M 25 0.5 L 37.60244177454046 0.5 L 37.60244177454046 -0.5 L 25 -0.5 Z M 83.16494177454047 0.5 L 95.76738354908092 0.5 L 95.76738354908092 3.5 L 102.76738354908092 0 L 95.76738354908092 -3.5 L 95.76738354908092 -0.5 L 83.16494177454047 -0.5 Z"/><text text-anchor="middle" pointer-events="none" font-size="8px" fill="#000000" x="60.38369177454046" y="3" font-family="sans-serif">ACTED_IN</text></g><g class="relationship" transform="translate(124.7902942187292 165.27611072576872) rotate(181.48495900482482)"><path class="outline" fill="#A5ABB6" stroke="none" d="M 25 0.5 L 45.673078291140484 0.5 L 45.673078291140484 -0.5 L 25 -0.5 Z M 91.23557829114048 0.5 L 111.90865658228097 0.5 L 111.90865658228097 3.5 L 118.90865658228097 0 L 111.90865658228097 -3.5 L 111.90865658228097 -0.5 L 91.23557829114048 -0.5 Z"/><text text-anchor="middle" pointer-events="none" font-size="8px" fill="#000000" x="68.45432829114048" y="3" transform="rotate(180 68.45432829114048 0)" font-family="sans-serif">ACTED_IN</text></g><g class="relationship" transform="translate(124.7902942187292 165.27611072576872) rotate(206.17088361730623)"><path class="outline" fill="#A5ABB6" stroke="none" d="M 25 0.5 L 29.157362495323284 0.5 L 29.157362495323284 -0.5 L 25 -0.5 Z M 74.71986249532328 0.5 L 78.87722499064657 0.5 L 78.87722499064657 3.5 L 85.87722499064657 0 L 78.87722499064657 -3.5 L 78.87722499064657 -0.5 L 74.71986249532328 -0.5 Z"/><text text-anchor="middle" pointer-events="none" font-size="8px" fill="#000000" x="51.938612495323284" y="3" transform="rotate(180 51.938612495323284 0)" font-family="sans-serif">ACTED_IN</text></g><g class="relationship" transform="translate(124.7902942187292 165.27611072576872) rotate(239.27506535358714)"><path class="outline" fill="#A5ABB6" stroke="none" d="M 25 0.5 L 29.141678773983188 0.5 L 29.141678773983188 -0.5 L 25 -0.5 Z M 74.70417877398319 0.5 L 78.84585754796638 0.5 L 78.84585754796638 3.5 L 85.84585754796638 0 L 78.84585754796638 -3.5 L 78.84585754796638 -0.5 L 74.70417877398319 -0.5 Z"/><text text-anchor="middle" pointer-events="none" font-size="8px" fill="#000000" x="51.92292877398319" y="3" transform="rotate(180 51.92292877398319 0)" font-family="sans-serif">ACTED_IN</text></g></g><g class="layer nodes"><g class="node" transform="translate(68.15725344691893,69.9896855200631)"><circle class="outline" cx="0" cy="0" r="25" fill="#F79767" stroke="#f36924" stroke-width="2px"/><text text-anchor="middle" pointer-events="none" font-family="sans-serif" dy="1.5625" font-size="25" fill="#FFFFFF"/><text text-anchor="middle" pointer-events="none" font-family="sans-serif" dy="1.5625" font-size="25" fill="#FFFFFF"/><text text-anchor="middle" pointer-events="none" x="0" y="0" font-size="10px" fill="#FFFFFF" font-family="sans-serif"> The</text><text text-anchor="middle" pointer-events="none" x="0" y="10" font-size="10px" fill="#FFFFFF" font-family="sans-serif"> Matrix</text></g><g class="node" transform="translate(147.98452433674143,-31.353151218489412)"><circle class="outline" cx="0" cy="0" r="25" fill="#57C7E3" stroke="#23b3d7" stroke-width="2px"/><text text-anchor="middle" pointer-events="none" font-family="sans-serif" dy="1.5625" font-size="25" fill="#2A2C34"/><text text-anchor="middle" pointer-events="none" font-family="sans-serif" dy="1.5625" font-size="25" fill="#2A2C34"/><text text-anchor="middle" pointer-events="none" x="0" y="0" font-size="10px" fill="#2A2C34" font-family="sans-serif"> Emil</text><text text-anchor="middle" pointer-events="none" x="0" y="10" font-size="10px" fill="#2A2C34" font-family="sans-serif"> Eifrem</text></g><g class="node" transform="translate(-28.585927157091028,23.511796101846333)"><circle class="outline" cx="0" cy="0" r="25" fill="#57C7E3" stroke="#23b3d7" stroke-width="2px"/><text text-anchor="middle" pointer-events="none" font-family="sans-serif" dy="1.5625" font-size="25" fill="#2A2C34"/><text text-anchor="middle" pointer-events="none" font-family="sans-serif" dy="1.5625" font-size="25" fill="#2A2C34"/><text text-anchor="middle" pointer-events="none" x="0" y="0" font-size="10px" fill="#2A2C34" font-family="sans-serif"> Hugo</text><text text-anchor="middle" pointer-events="none" x="0" y="10" font-size="10px" fill="#2A2C34" font-family="sans-serif"> Weaving</text></g><g class="node" transform="translate(51.866319458225874,211.3800529202237)"><circle class="outline" cx="0" cy="0" r="25" fill="#57C7E3" stroke="#23b3d7" stroke-width="2px"/><text text-anchor="middle" pointer-events="none" font-family="sans-serif" dy="1.5625" font-size="25" fill="#2A2C34"/><text text-anchor="middle" pointer-events="none" font-family="sans-serif" dy="1.5625" font-size="25" fill="#2A2C34"/><text text-anchor="middle" pointer-events="none" x="0" y="0" font-size="10px" fill="#2A2C34" font-family="sans-serif"> Laurence</text><text text-anchor="middle" pointer-events="none" x="0" y="10" font-size="10px" fill="#2A2C34" font-family="sans-serif"> Fishbur…</text></g><g class="node" transform="translate(-72.4296521505819,85.58619026128618)"><circle class="outline" cx="0" cy="0" r="25" fill="#57C7E3" stroke="#23b3d7" stroke-width="2px"/><text text-anchor="middle" pointer-events="none" font-family="sans-serif" dy="1.5625" font-size="25" fill="#2A2C34"/><text text-anchor="middle" pointer-events="none" x="0" y="5" font-size="10px" fill="#2A2C34" font-family="sans-serif"> Carrie-A…</text></g><g class="node" transform="translate(124.7902942187292,165.27611072576872)"><circle class="outline" cx="0" cy="0" r="25" fill="#57C7E3" stroke="#23b3d7" stroke-width="2px"/><text text-anchor="middle" pointer-events="none" font-family="sans-serif" dy="1.5625" font-size="25" fill="#2A2C34"/><text text-anchor="middle" pointer-events="none" font-family="sans-serif" dy="1.5625" font-size="25" fill="#2A2C34"/><text text-anchor="middle" pointer-events="none" x="0" y="0" font-size="10px" fill="#2A2C34" font-family="sans-serif"> Keanu</text><text text-anchor="middle" pointer-events="none" x="0" y="10" font-size="10px" fill="#2A2C34" font-family="sans-serif"> Reeves</text></g><g class="node" transform="translate(25.279912188837564,116.37372949651284)"><circle class="outline" cx="0" cy="0" r="25" fill="#F79767" stroke="#f36924" stroke-width="2px"/><text text-anchor="middle" pointer-events="none" font-family="sans-serif" dy="1.5625" font-size="25" fill="#FFFFFF"/><text text-anchor="middle" pointer-events="none" font-family="sans-serif" dy="1.5625" font-size="25" fill="#FFFFFF"/><text text-anchor="middle" pointer-events="none" font-family="sans-serif" dy="1.5625" font-size="25" fill="#FFFFFF"/><text text-anchor="middle" pointer-events="none" x="0" y="-5" font-size="10px" fill="#FFFFFF" font-family="sans-serif"> The</text><text text-anchor="middle" pointer-events="none" x="0" y="5" font-size="10px" fill="#FFFFFF" font-family="sans-serif"> Matrix</text><text text-anchor="middle" pointer-events="none" x="0" y="15" font-size="10px" fill="#FFFFFF" font-family="sans-serif"> Reloa…</text></g><g class="node" transform="translate(-19.070032421233424,161.54678661004309)"><circle class="outline" cx="0" cy="0" r="25" fill="#F79767" stroke="#f36924" stroke-width="2px"/><text text-anchor="middle" pointer-events="none" font-family="sans-serif" dy="1.5625" font-size="25" fill="#FFFFFF"/><text text-anchor="middle" pointer-events="none" font-family="sans-serif" dy="1.5625" font-size="25" fill="#FFFFFF"/><text text-anchor="middle" pointer-events="none" font-family="sans-serif" dy="1.5625" font-size="25" fill="#FFFFFF"/><text text-anchor="middle" pointer-events="none" x="0" y="-5" font-size="10px" fill="#FFFFFF" font-family="sans-serif"> The</text><text text-anchor="middle" pointer-events="none" x="0" y="5" font-size="10px" fill="#FFFFFF" font-family="sans-serif"> Matrix</text><text text-anchor="middle" pointer-events="none" x="0" y="15" font-size="10px" fill="#FFFFFF" font-family="sans-serif"> Revol…</text></g><g class="node" transform="translate(252.43460038222057,170.88283909611394)"><circle class="outline" cx="0" cy="0" r="25" fill="#F79767" stroke="#f36924" stroke-width="2px"/><text text-anchor="middle" pointer-events="none" font-family="sans-serif" dy="1.5625" font-size="25" fill="#FFFFFF"/><text text-anchor="middle" pointer-events="none" font-family="sans-serif" dy="1.5625" font-size="25" fill="#FFFFFF"/><text text-anchor="middle" pointer-events="none" font-family="sans-serif" dy="1.5625" font-size="25" fill="#FFFFFF"/><text text-anchor="middle" pointer-events="none" x="0" y="-5" font-size="10px" fill="#FFFFFF" font-family="sans-serif"> The</text><text text-anchor="middle" pointer-events="none" x="0" y="5" font-size="10px" fill="#FFFFFF" font-family="sans-serif"> Devil's</text><text text-anchor="middle" pointer-events="none" x="0" y="15" font-size="10px" fill="#FFFFFF" font-family="sans-serif"> Advoc…</text></g><g class="node" transform="translate(216.71407218141363,250.55992959908383)"><circle class="outline" cx="0" cy="0" r="25" fill="#F79767" stroke="#f36924" stroke-width="2px"/><text text-anchor="middle" pointer-events="none" font-family="sans-serif" dy="1.5625" font-size="25" fill="#FFFFFF"/><text text-anchor="middle" pointer-events="none" font-family="sans-serif" dy="1.5625" font-size="25" fill="#FFFFFF"/><text text-anchor="middle" pointer-events="none" x="0" y="0" font-size="10px" fill="#FFFFFF" font-family="sans-serif"> The</text><text text-anchor="middle" pointer-events="none" x="0" y="10" font-size="10px" fill="#FFFFFF" font-family="sans-serif"> Replac…</text></g><g class="node" transform="translate(228.07891760868682,91.00153417328208)"><circle class="outline" cx="0" cy="0" r="25" fill="#F79767" stroke="#f36924" stroke-width="2px"/><text text-anchor="middle" pointer-events="none" font-family="sans-serif" dy="1.5625" font-size="25" fill="#FFFFFF"/><text text-anchor="middle" pointer-events="none" font-family="sans-serif" dy="1.5625" font-size="25" fill="#FFFFFF"/><text text-anchor="middle" pointer-events="none" x="0" y="0" font-size="10px" fill="#FFFFFF" font-family="sans-serif"> Johnny</text><text text-anchor="middle" pointer-events="none" x="0" y="10" font-size="10px" fill="#FFFFFF" font-family="sans-serif"> Mnemo…</text></g><g class="node" transform="translate(-111.42092499448444,-60.47494007838752)"><circle class="outline" cx="0" cy="0" r="25" fill="#F79767" stroke="#f36924" stroke-width="2px"/><text text-anchor="middle" pointer-events="none" font-family="sans-serif" dy="1.5625" font-size="25" fill="#FFFFFF"/><text text-anchor="middle" pointer-events="none" font-family="sans-serif" dy="1.5625" font-size="25" fill="#FFFFFF"/><text text-anchor="middle" pointer-events="none" x="0" y="0" font-size="10px" fill="#FFFFFF" font-family="sans-serif"> Cloud</text><text text-anchor="middle" pointer-events="none" x="0" y="10" font-size="10px" fill="#FFFFFF" font-family="sans-serif"> Atlas</text></g><g class="node" transform="translate(2.4005337085490335,-94.91364969635742)"><circle class="outline" cx="0" cy="0" r="25" fill="#F79767" stroke="#f36924" stroke-width="2px"/><text text-anchor="middle" pointer-events="none" font-family="sans-serif" dy="1.5625" font-size="25" fill="#FFFFFF"/><text text-anchor="middle" pointer-events="none" font-family="sans-serif" dy="1.5625" font-size="25" fill="#FFFFFF"/><text text-anchor="middle" pointer-events="none" x="0" y="0" font-size="10px" fill="#FFFFFF" font-family="sans-serif"> V for</text><text text-anchor="middle" pointer-events="none" x="0" y="10" font-size="10px" fill="#FFFFFF" font-family="sans-serif"> Vendetta</text></g><g class="node" transform="translate(131.62639051111404,291.3377174709235)"><circle class="outline" cx="0" cy="0" r="25" fill="#F79767" stroke="#f36924" stroke-width="2px"/><text text-anchor="middle" pointer-events="none" font-family="sans-serif" dy="1.5625" font-size="25" fill="#FFFFFF"/><text text-anchor="middle" pointer-events="none" x="0" y="5" font-size="10px" fill="#FFFFFF" font-family="sans-serif"> Somethi…</text></g></g></svg>