<svg xmlns="http://www.w3.org/2000/svg" width="1198.438720703125" height="724.7814331054688" viewBox="-423.34503173828125 -221.41004943847656 1198.438720703125 724.7814331054688"><title>Neo4j Graph Visualization</title><desc>Created using Neo4j (http://www.neo4j.com/)</desc><g class="layer relationships"><g class="relationship" transform="translate(-128.4765678814583 112.00834013489612) rotate(523.4028450560793)"><path class="outline" fill="#A5ABB6" stroke="none" d="M 25 0.5 L 117.9908219977554 0.5 L 117.9908219977554 -0.5 L 25 -0.5 Z M 152.4361344977554 0.5 L 245.4269564955108 0.5 L 245.4269564955108 3.5 L 252.4269564955108 0 L 245.4269564955108 -3.5 L 245.4269564955108 -0.5 L 152.4361344977554 -0.5 Z"/><text text-anchor="middle" pointer-events="none" font-size="8px" fill="#000000" x="135.2134782477554" y="3" transform="rotate(180 135.2134782477554 0)" font-family="sans-serif">ORIGIN</text></g><g class="relationship" transform="translate(-128.4765678814583 112.00834013489612) rotate(339.73852408973096)"><path class="outline" fill="#A5ABB6" stroke="none" d="M 25 0.5 L 119.28143460772256 0.5 L 119.28143460772256 -0.5 L 25 -0.5 Z M 178.46893460772256 0.5 L 272.7503692154451 0.5 L 272.7503692154451 3.5 L 279.7503692154451 0 L 272.7503692154451 -3.5 L 272.7503692154451 -0.5 L 178.46893460772256 -0.5 Z"/><text text-anchor="middle" pointer-events="none" font-size="8px" fill="#000000" x="148.87518460772256" y="3" font-family="sans-serif">DESTINATION</text></g><g class="relationship" transform="translate(212.9428836201983 106.7638198217254) rotate(241.0290085045698)"><path class="outline" fill="#A5ABB6" stroke="none" d="M 25 0.5 L 26.224830052987535 0.5 L 26.224830052987535 -0.5 L 25 -0.5 Z M 81.41233005298753 0.5 L 82.63716010597507 0.5 L 82.63716010597507 3.5 L 89.63716010597507 0 L 82.63716010597507 -3.5 L 82.63716010597507 -0.5 L 81.41233005298753 -0.5 Z"/><text text-anchor="middle" pointer-events="none" font-size="8px" fill="#000000" x="53.818580052987535" y="3" transform="rotate(180 53.818580052987535 0)" font-family="sans-serif">DESTINATI…</text></g><g class="relationship" transform="translate(212.9428836201983 106.7638198217254) rotate(425.14055170433414)"><path class="outline" fill="#A5ABB6" stroke="none" d="M 25 0.5 L 37.447584232587495 0.5 L 37.447584232587495 -0.5 L 25 -0.5 Z M 71.8928967325875 0.5 L 84.34048096517499 0.5 L 84.34048096517499 3.5 L 91.34048096517499 0 L 84.34048096517499 -3.5 L 84.34048096517499 -0.5 L 71.8928967325875 -0.5 Z"/><text text-anchor="middle" pointer-events="none" font-size="8px" fill="#000000" x="54.670240482587495" y="3" font-family="sans-serif">ORIGIN</text></g><g class="relationship" transform="translate(497.07056813995484 192.17586557462482) rotate(535.1040715146863)"><path class="outline" fill="#A5ABB6" stroke="none" d="M 25 0.5 L 84.94637293330263 0.5 L 84.94637293330263 -0.5 L 25 -0.5 Z M 144.13387293330263 0.5 L 204.08024586660525 0.5 L 204.08024586660525 3.5 L 211.08024586660525 0 L 204.08024586660525 -3.5 L 204.08024586660525 -0.5 L 144.13387293330263 -0.5 Z"/><text text-anchor="middle" pointer-events="none" font-size="8px" fill="#000000" x="114.54012293330263" y="3" transform="rotate(180 114.54012293330263 0)" font-family="sans-serif">DESTINATION</text></g><g class="relationship" transform="translate(497.07056813995484 192.17586557462482) rotate(266.74756295650644)"><path class="outline" fill="#A5ABB6" stroke="none" d="M 25 0.5 L 74.85063560329591 0.5 L 74.85063560329591 -0.5 L 25 -0.5 Z M 109.29594810329591 0.5 L 159.14658370659183 0.5 L 159.14658370659183 3.5 L 166.14658370659183 0 L 159.14658370659183 -3.5 L 159.14658370659183 -0.5 L 109.29594810329591 -0.5 Z"/><text text-anchor="middle" pointer-events="none" font-size="8px" fill="#000000" x="92.07329185329591" y="3" transform="rotate(180 92.07329185329591 0)" font-family="sans-serif">ORIGIN</text></g><g class="relationship" transform="translate(623.9126133217768 44.137755262387984) rotate(197.2681019379508)"><path class="outline" fill="#A5ABB6" stroke="none" d="M 25 0.5 L 51.37024157241456 0.5 L 51.37024157241456 -0.5 L 25 -0.5 Z M 85.81555407241456 0.5 L 112.18579564482911 0.5 L 112.18579564482911 3.5 L 119.18579564482911 0 L 112.18579564482911 -3.5 L 112.18579564482911 -0.5 L 85.81555407241456 -0.5 Z"/><text text-anchor="middle" pointer-events="none" font-size="8px" fill="#000000" x="68.59289782241456" y="3" transform="rotate(180 68.59289782241456 0)" font-family="sans-serif">ORIGIN</text></g><g class="relationship" transform="translate(623.9126133217768 44.137755262387984) rotate(340.87504802063415)"><path class="outline" fill="#A5ABB6" stroke="none" d="M 25 0.5 L 31.565597901278693 0.5 L 31.565597901278693 -0.5 L 25 -0.5 Z M 90.7530979012787 0.5 L 97.31869580255739 0.5 L 97.31869580255739 3.5 L 104.31869580255739 0 L 97.31869580255739 -3.5 L 97.31869580255739 -0.5 L 90.7530979012787 -0.5 Z"/><text text-anchor="middle" pointer-events="none" font-size="8px" fill="#000000" x="61.15934790127869" y="3" font-family="sans-serif">DESTINATION</text></g><g class="relationship" transform="translate(265.1805724363428 77.29602987637608) rotate(213.31354022271296)"><path class="outline" fill="#A5ABB6" stroke="none" d="M 25 0.5 L 31.383338862912325 0.5 L 31.383338862912325 -0.5 L 25 -0.5 Z M 90.57083886291232 0.5 L 96.95417772582465 0.5 L 96.95417772582465 3.5 L 103.95417772582465 0 L 96.95417772582465 -3.5 L 96.95417772582465 -0.5 L 90.57083886291232 -0.5 Z"/><text text-anchor="middle" pointer-events="none" font-size="8px" fill="#000000" x="60.977088862912325" y="3" transform="rotate(180 60.977088862912325 0)" font-family="sans-serif">DESTINATION</text></g><g class="relationship" transform="translate(265.1805724363428 77.29602987637608) rotate(451.4122373054863)"><path class="outline" fill="#A5ABB6" stroke="none" d="M 25 0.5 L 46.812041999217314 0.5 L 46.812041999217314 -0.5 L 25 -0.5 Z M 81.25735449921731 0.5 L 103.06939649843463 0.5 L 103.06939649843463 3.5 L 110.06939649843463 0 L 103.06939649843463 -3.5 L 103.06939649843463 -0.5 L 81.25735449921731 -0.5 Z"/><text text-anchor="middle" pointer-events="none" font-size="8px" fill="#000000" x="64.03469824921731" y="3" transform="rotate(180 64.03469824921731 0)" font-family="sans-serif">ORIGIN</text></g><g class="relationship" transform="translate(164.81139264339254 -142.8618781689498) rotate(452.83494609156077)"><path class="outline" fill="#A5ABB6" stroke="none" d="M 25 0.5 L 54.035662726054014 0.5 L 54.035662726054014 -0.5 L 25 -0.5 Z M 88.48097522605401 0.5 L 117.51663795210803 0.5 L 117.51663795210803 3.5 L 124.51663795210803 0 L 117.51663795210803 -3.5 L 117.51663795210803 -0.5 L 88.48097522605401 -0.5 Z"/><text text-anchor="middle" pointer-events="none" font-size="8px" fill="#000000" x="71.25831897605401" y="3" transform="rotate(180 71.25831897605401 0)" font-family="sans-serif">ORIGIN</text></g><g class="relationship" transform="translate(164.81139264339254 -142.8618781689498) rotate(202.7246768182996)"><path class="outline" fill="#A5ABB6" stroke="none" d="M 25 0.5 L 25.36364457443696 0.5 L 25.36364457443696 -0.5 L 25 -0.5 Z M 68.69958207443696 0.5 L 69.06322664887392 0.5 L 69.06322664887392 3.5 L 76.06322664887392 0 L 69.06322664887392 -3.5 L 69.06322664887392 -0.5 L 68.69958207443696 -0.5 Z"/><text text-anchor="middle" pointer-events="none" font-size="8px" fill="#000000" x="47.03161332443696" y="3" transform="rotate(180 47.03161332443696 0)" font-family="sans-serif">DESTIN…</text></g><g class="relationship" transform="translate(301.3450659068262 -118.95303178148656) rotate(195.32250283025763)"><path class="outline" fill="#A5ABB6" stroke="none" d="M 25 0.5 L 86.01592902872774 0.5 L 86.01592902872774 -0.5 L 25 -0.5 Z M 145.20342902872773 0.5 L 206.21935805745548 0.5 L 206.21935805745548 3.5 L 213.21935805745548 0 L 206.21935805745548 -3.5 L 206.21935805745548 -0.5 L 145.20342902872773 -0.5 Z"/><text text-anchor="middle" pointer-events="none" font-size="8px" fill="#000000" x="115.60967902872774" y="3" transform="rotate(180 115.60967902872774 0)" font-family="sans-serif">DESTINATION</text></g><g class="relationship" transform="translate(301.3450659068262 -118.95303178148656) rotate(393.0495049887128)"><path class="outline" fill="#A5ABB6" stroke="none" d="M 25 0.5 L 89.56177731557851 0.5 L 89.56177731557851 -0.5 L 25 -0.5 Z M 124.00708981557851 0.5 L 188.56886713115702 0.5 L 188.56886713115702 3.5 L 195.56886713115702 0 L 188.56886713115702 -3.5 L 188.56886713115702 -0.5 L 124.00708981557851 -0.5 Z"/><text text-anchor="middle" pointer-events="none" font-size="8px" fill="#000000" x="106.78443356557851" y="3" font-family="sans-serif">ORIGIN</text></g><g class="relationship" transform="translate(604.4631765165182 -12.506701935847133) rotate(533.3219050828113)"><path class="outline" fill="#A5ABB6" stroke="none" d="M 25 0.5 L 38.799872405328166 0.5 L 38.799872405328166 -0.5 L 25 -0.5 Z M 73.24518490532816 0.5 L 87.04505731065633 0.5 L 87.04505731065633 3.5 L 94.04505731065633 0 L 87.04505731065633 -3.5 L 87.04505731065633 -0.5 L 73.24518490532816 -0.5 Z"/><text text-anchor="middle" pointer-events="none" font-size="8px" fill="#000000" x="56.022528655328166" y="3" transform="rotate(180 56.022528655328166 0)" font-family="sans-serif">ORIGIN</text></g><g class="relationship" transform="translate(604.4631765165182 -12.506701935847133) rotate(365.7557688176925)"><path class="outline" fill="#A5ABB6" stroke="none" d="M 25 0.5 L 38.080358565748284 0.5 L 38.080358565748284 -0.5 L 25 -0.5 Z M 97.26785856574828 0.5 L 110.34821713149657 0.5 L 110.34821713149657 3.5 L 117.34821713149657 0 L 110.34821713149657 -3.5 L 110.34821713149657 -0.5 L 97.26785856574828 -0.5 Z"/><text text-anchor="middle" pointer-events="none" font-size="8px" fill="#000000" x="67.67410856574828" y="3" font-family="sans-serif">DESTINATION</text></g><g class="relationship" transform="translate(617.2379000169652 -71.00736469772662) rotate(511.09263319849754)"><path class="outline" fill="#A5ABB6" stroke="none" d="M 25 0.5 L 54.106978953149536 0.5 L 54.106978953149536 -0.5 L 25 -0.5 Z M 88.55229145314954 0.5 L 117.65927040629907 0.5 L 117.65927040629907 3.5 L 124.65927040629907 0 L 117.65927040629907 -3.5 L 117.65927040629907 -0.5 L 88.55229145314954 -0.5 Z"/><text text-anchor="middle" pointer-events="none" font-size="8px" fill="#000000" x="71.32963520314954" y="3" transform="rotate(180 71.32963520314954 0)" font-family="sans-serif">ORIGIN</text></g><g class="relationship" transform="translate(617.2379000169652 -71.00736469772662) rotate(389.4573363188624)"><path class="outline" fill="#A5ABB6" stroke="none" d="M 25 0.5 L 40.89991054624355 0.5 L 40.89991054624355 -0.5 L 25 -0.5 Z M 100.08741054624355 0.5 L 115.9873210924871 0.5 L 115.9873210924871 3.5 L 122.9873210924871 0 L 115.9873210924871 -3.5 L 115.9873210924871 -0.5 L 100.08741054624355 -0.5 Z"/><text text-anchor="middle" pointer-events="none" font-size="8px" fill="#000000" x="70.49366054624355" y="3" font-family="sans-serif">DESTINATION</text></g><g class="relationship" transform="translate(613.0692265138061 103.18230281553963) rotate(218.76168401941334)"><path class="outline" fill="#A5ABB6" stroke="none" d="M 25 0.5 L 60.61257807289191 0.5 L 60.61257807289191 -0.5 L 25 -0.5 Z M 95.0578905728919 0.5 L 130.6704686457838 0.5 L 130.6704686457838 3.5 L 137.6704686457838 0 L 130.6704686457838 -3.5 L 130.6704686457838 -0.5 L 95.0578905728919 -0.5 Z"/><text text-anchor="middle" pointer-events="none" font-size="8px" fill="#000000" x="77.8352343228919" y="3" transform="rotate(180 77.8352343228919 0)" font-family="sans-serif">ORIGIN</text></g><g class="relationship" transform="translate(613.0692265138061 103.18230281553963) rotate(322.6793918157915)"><path class="outline" fill="#A5ABB6" stroke="none" d="M 25 0.5 L 50.54258671063218 0.5 L 50.54258671063218 -0.5 L 25 -0.5 Z M 109.73008671063218 0.5 L 135.27267342126436 0.5 L 135.27267342126436 3.5 L 142.27267342126436 0 L 135.27267342126436 -3.5 L 135.27267342126436 -0.5 L 109.73008671063218 -0.5 Z"/><text text-anchor="middle" pointer-events="none" font-size="8px" fill="#000000" x="80.13633671063218" y="3" font-family="sans-serif">DESTINATION</text></g><g class="relationship" transform="translate(369.24924453102983 89.55762119717997) rotate(491.17974480146756)"><path class="outline" fill="#A5ABB6" stroke="none" d="M 25 0.5 L 48.462849545187495 0.5 L 48.462849545187495 -0.5 L 25 -0.5 Z M 107.6503495451875 0.5 L 131.113199090375 0.5 L 131.113199090375 3.5 L 138.113199090375 0 L 131.113199090375 -3.5 L 131.113199090375 -0.5 L 107.6503495451875 -0.5 Z"/><text text-anchor="middle" pointer-events="none" font-size="8px" fill="#000000" x="78.0565995451875" y="3" transform="rotate(180 78.0565995451875 0)" font-family="sans-serif">DESTINATION</text></g><g class="relationship" transform="translate(369.24924453102983 89.55762119717997) rotate(322.9774257119835)"><path class="outline" fill="#A5ABB6" stroke="none" d="M 25 0.5 L 52.534368789545795 0.5 L 52.534368789545795 -0.5 L 25 -0.5 Z M 86.9796812895458 0.5 L 114.51405007909159 0.5 L 114.51405007909159 3.5 L 121.51405007909159 0 L 114.51405007909159 -3.5 L 114.51405007909159 -0.5 L 86.9796812895458 -0.5 Z"/><text text-anchor="middle" pointer-events="none" font-size="8px" fill="#000000" x="69.7570250395458" y="3" font-family="sans-serif">ORIGIN</text></g><g class="relationship" transform="translate(402.2582384576337 139.58746633192482) rotate(512.6138028850967)"><path class="outline" fill="#A5ABB6" stroke="none" d="M 25 0.5 L 45.970558139971516 0.5 L 45.970558139971516 -0.5 L 25 -0.5 Z M 105.15805813997152 0.5 L 126.12861627994303 0.5 L 126.12861627994303 3.5 L 133.12861627994303 0 L 126.12861627994303 -3.5 L 126.12861627994303 -0.5 L 105.15805813997152 -0.5 Z"/><text text-anchor="middle" pointer-events="none" font-size="8px" fill="#000000" x="75.56430813997152" y="3" transform="rotate(180 75.56430813997152 0)" font-family="sans-serif">DESTINATION</text></g><g class="relationship" transform="translate(402.2582384576337 139.58746633192482) rotate(301.272784799148)"><path class="outline" fill="#A5ABB6" stroke="none" d="M 25 0.5 L 60.15332749860312 0.5 L 60.15332749860312 -0.5 L 25 -0.5 Z M 94.59863999860312 0.5 L 129.75196749720624 0.5 L 129.75196749720624 3.5 L 136.75196749720624 0 L 129.75196749720624 -3.5 L 129.75196749720624 -0.5 L 94.59863999860312 -0.5 Z"/><text text-anchor="middle" pointer-events="none" font-size="8px" fill="#000000" x="77.37598374860312" y="3" font-family="sans-serif">ORIGIN</text></g><g class="relationship" transform="translate(-210.14855691945405 71.11591206170273) rotate(506.88674773518596)"><path class="outline" fill="#A5ABB6" stroke="none" d="M 25 0.5 L 89.23325135429842 0.5 L 89.23325135429842 -0.5 L 25 -0.5 Z M 123.67856385429842 0.5 L 187.91181520859683 0.5 L 187.91181520859683 3.5 L 194.91181520859683 0 L 187.91181520859683 -3.5 L 187.91181520859683 -0.5 L 123.67856385429842 -0.5 Z"/><text text-anchor="middle" pointer-events="none" font-size="8px" fill="#000000" x="106.45590760429842" y="3" transform="rotate(180 106.45590760429842 0)" font-family="sans-serif">ORIGIN</text></g><g class="relationship" transform="translate(-210.14855691945405 71.11591206170273) rotate(262.31405434708313)"><path class="outline" fill="#A5ABB6" stroke="none" d="M 25 0.5 L 55.03199365959031 0.5 L 55.03199365959031 -0.5 L 25 -0.5 Z M 114.21949365959031 0.5 L 144.25148731918063 0.5 L 144.25148731918063 3.5 L 151.25148731918063 0 L 144.25148731918063 -3.5 L 144.25148731918063 -0.5 L 114.21949365959031 -0.5 Z"/><text text-anchor="middle" pointer-events="none" font-size="8px" fill="#000000" x="84.62574365959031" y="3" transform="rotate(180 84.62574365959031 0)" font-family="sans-serif">DESTINATION</text></g><g class="relationship" transform="translate(-96.47390818366299 -192.41005337196708) rotate(507.0797557278238)"><path class="outline" fill="#A5ABB6" stroke="none" d="M 25 0.5 L 61.027706085408326 0.5 L 61.027706085408326 -0.5 L 25 -0.5 Z M 95.47301858540833 0.5 L 131.50072467081665 0.5 L 131.50072467081665 3.5 L 138.50072467081665 0 L 131.50072467081665 -3.5 L 131.50072467081665 -0.5 L 95.47301858540833 -0.5 Z"/><text text-anchor="middle" pointer-events="none" font-size="8px" fill="#000000" x="78.25036233540833" y="3" transform="rotate(180 78.25036233540833 0)" font-family="sans-serif">ORIGIN</text></g><g class="relationship" transform="translate(-96.47390818366299 -192.41005337196708) rotate(363.5773188831141)"><path class="outline" fill="#A5ABB6" stroke="none" d="M 25 0.5 L 51.10402422427269 0.5 L 51.10402422427269 -0.5 L 25 -0.5 Z M 110.29152422427269 0.5 L 136.39554844854538 0.5 L 136.39554844854538 3.5 L 143.39554844854538 0 L 136.39554844854538 -3.5 L 136.39554844854538 -0.5 L 110.29152422427269 -0.5 Z"/><text text-anchor="middle" pointer-events="none" font-size="8px" fill="#000000" x="80.69777422427269" y="3" font-family="sans-serif">DESTINATION</text></g><g class="relationship" transform="translate(-280.4070639407395 57.4207838099895) rotate(490.4094302041053)"><path class="outline" fill="#A5ABB6" stroke="none" d="M 25 0.5 L 67.15917355210131 0.5 L 67.15917355210131 -0.5 L 25 -0.5 Z M 101.60448605210131 0.5 L 143.76365960420262 0.5 L 143.76365960420262 3.5 L 150.76365960420262 0 L 143.76365960420262 -3.5 L 143.76365960420262 -0.5 L 101.60448605210131 -0.5 Z"/><text text-anchor="middle" pointer-events="none" font-size="8px" fill="#000000" x="84.38182980210131" y="3" transform="rotate(180 84.38182980210131 0)" font-family="sans-serif">ORIGIN</text></g><g class="relationship" transform="translate(-280.4070639407395 57.4207838099895) rotate(286.17345246350015)"><path class="outline" fill="#A5ABB6" stroke="none" d="M 25 0.5 L 50.70940082256722 0.5 L 50.70940082256722 -0.5 L 25 -0.5 Z M 109.89690082256722 0.5 L 135.60630164513444 0.5 L 135.60630164513444 3.5 L 142.60630164513444 0 L 135.60630164513444 -3.5 L 135.60630164513444 -0.5 L 109.89690082256722 -0.5 Z"/><text text-anchor="middle" pointer-events="none" font-size="8px" fill="#000000" x="80.30315082256722" y="3" font-family="sans-serif">DESTINATION</text></g><g class="relationship" transform="translate(-393.0200856157382 -3.861958169159471) rotate(450.3890627678186)"><path class="outline" fill="#A5ABB6" stroke="none" d="M 25 0.5 L 76.83696838346683 0.5 L 76.83696838346683 -0.5 L 25 -0.5 Z M 111.28228088346683 0.5 L 163.11924926693365 0.5 L 163.11924926693365 3.5 L 170.11924926693365 0 L 163.11924926693365 -3.5 L 163.11924926693365 -0.5 L 111.28228088346683 -0.5 Z"/><text text-anchor="middle" pointer-events="none" font-size="8px" fill="#000000" x="94.05962463346683" y="3" transform="rotate(180 94.05962463346683 0)" font-family="sans-serif">ORIGIN</text></g><g class="relationship" transform="translate(-393.0200856157382 -3.861958169159471) rotate(327.9614612610799)"><path class="outline" fill="#A5ABB6" stroke="none" d="M 25 0.5 L 60.86679760206039 0.5 L 60.86679760206039 -0.5 L 25 -0.5 Z M 120.05429760206039 0.5 L 155.92109520412077 0.5 L 155.92109520412077 3.5 L 162.92109520412077 0 L 155.92109520412077 -3.5 L 155.92109520412077 -0.5 L 120.05429760206039 -0.5 Z"/><text text-anchor="middle" pointer-events="none" font-size="8px" fill="#000000" x="90.46054760206039" y="3" font-family="sans-serif">DESTINATION</text></g><g class="relationship" transform="translate(-342.23588903613 28.078303718927515) rotate(467.71067723869)"><path class="outline" fill="#A5ABB6" stroke="none" d="M 25 0.5 L 64.92381944016552 0.5 L 64.92381944016552 -0.5 L 25 -0.5 Z M 99.36913194016552 0.5 L 139.29295138033103 0.5 L 139.29295138033103 3.5 L 146.29295138033103 0 L 139.29295138033103 -3.5 L 139.29295138033103 -0.5 L 99.36913194016552 -0.5 Z"/><text text-anchor="middle" pointer-events="none" font-size="8px" fill="#000000" x="82.14647569016552" y="3" transform="rotate(180 82.14647569016552 0)" font-family="sans-serif">ORIGIN</text></g><g class="relationship" transform="translate(-342.23588903613 28.078303718927515) rotate(309.5018528062694)"><path class="outline" fill="#A5ABB6" stroke="none" d="M 25 0.5 L 52.20287858843555 0.5 L 52.20287858843555 -0.5 L 25 -0.5 Z M 111.39037858843555 0.5 L 138.5932571768711 0.5 L 138.5932571768711 3.5 L 145.5932571768711 0 L 138.5932571768711 -3.5 L 138.5932571768711 -0.5 L 111.39037858843555 -0.5 Z"/><text text-anchor="middle" pointer-events="none" font-size="8px" fill="#000000" x="81.79662858843555" y="3" font-family="sans-serif">DESTINATION</text></g><g class="relationship" transform="translate(594.9461610489177 -135.43962467355365) rotate(488.4802821395559)"><path class="outline" fill="#A5ABB6" stroke="none" d="M 25 0.5 L 66.63866872179618 0.5 L 66.63866872179618 -0.5 L 25 -0.5 Z M 101.08398122179618 0.5 L 142.72264994359236 0.5 L 142.72264994359236 3.5 L 149.72264994359236 0 L 142.72264994359236 -3.5 L 142.72264994359236 -0.5 L 101.08398122179618 -0.5 Z"/><text text-anchor="middle" pointer-events="none" font-size="8px" fill="#000000" x="83.86132497179618" y="3" transform="rotate(180 83.86132497179618 0)" font-family="sans-serif">ORIGIN</text></g><g class="relationship" transform="translate(594.9461610489177 -135.43962467355365) rotate(402.23254517737803)"><path class="outline" fill="#A5ABB6" stroke="none" d="M 25 0.5 L 68.97465458698933 0.5 L 68.97465458698933 -0.5 L 25 -0.5 Z M 128.16215458698935 0.5 L 172.13680917397866 0.5 L 172.13680917397866 3.5 L 179.13680917397866 0 L 172.13680917397866 -3.5 L 172.13680917397866 -0.5 L 128.16215458698935 -0.5 Z"/><text text-anchor="middle" pointer-events="none" font-size="8px" fill="#000000" x="98.56840458698933" y="3" font-family="sans-serif">DESTINATION</text></g><g class="relationship" transform="translate(8.990112731624308 72.38959037799243) rotate(215.93842727020206)"><path class="outline" fill="#A5ABB6" stroke="none" d="M 25 0.5 L 116.79301136116564 0.5 L 116.79301136116564 -0.5 L 25 -0.5 Z M 175.98051136116564 0.5 L 267.7735227223313 0.5 L 267.7735227223313 3.5 L 274.7735227223313 0 L 267.7735227223313 -3.5 L 267.7735227223313 -0.5 L 175.98051136116564 -0.5 Z"/><text text-anchor="middle" pointer-events="none" font-size="8px" fill="#000000" x="146.38676136116564" y="3" transform="rotate(180 146.38676136116564 0)" font-family="sans-serif">DESTINATION</text></g><g class="relationship" transform="translate(8.990112731624308 72.38959037799243) rotate(388.96035172670656)"><path class="outline" fill="#A5ABB6" stroke="none" d="M 25 0.5 L 123.77710978939854 0.5 L 123.77710978939854 -0.5 L 25 -0.5 Z M 158.22242228939854 0.5 L 256.9995320787971 0.5 L 256.9995320787971 3.5 L 263.9995320787971 0 L 256.9995320787971 -3.5 L 256.9995320787971 -0.5 L 158.22242228939854 -0.5 Z"/><text text-anchor="middle" pointer-events="none" font-size="8px" fill="#000000" x="140.99976603939854" y="3" font-family="sans-serif">ORIGIN</text></g><g class="relationship" transform="translate(40.719899411504684 21.7262128705762) rotate(204.53602237731639)"><path class="outline" fill="#A5ABB6" stroke="none" d="M 25 0.5 L 117.74760695925534 0.5 L 117.74760695925534 -0.5 L 25 -0.5 Z M 176.93510695925534 0.5 L 269.6827139185107 0.5 L 269.6827139185107 3.5 L 276.6827139185107 0 L 269.6827139185107 -3.5 L 269.6827139185107 -0.5 L 176.93510695925534 -0.5 Z"/><text text-anchor="middle" pointer-events="none" font-size="8px" fill="#000000" x="147.34135695925534" y="3" transform="rotate(180 147.34135695925534 0)" font-family="sans-serif">DESTINATION</text></g><g class="relationship" transform="translate(40.719899411504684 21.7262128705762) rotate(400.75874868728584)"><path class="outline" fill="#A5ABB6" stroke="none" d="M 25 0.5 L 125.2456097903289 0.5 L 125.2456097903289 -0.5 L 25 -0.5 Z M 159.6909222903289 0.5 L 259.9365320806578 0.5 L 259.9365320806578 3.5 L 266.9365320806578 0 L 259.9365320806578 -3.5 L 259.9365320806578 -0.5 L 159.6909222903289 -0.5 Z"/><text text-anchor="middle" pointer-events="none" font-size="8px" fill="#000000" x="142.4682660403289" y="3" font-family="sans-serif">ORIGIN</text></g><g class="relationship" transform="translate(-221.3648426907587 296.8923921616432) rotate(211.4125586303074)"><path class="outline" fill="#A5ABB6" stroke="none" d="M 25 0.5 L 80.62065401699194 0.5 L 80.62065401699194 -0.5 L 25 -0.5 Z M 115.06596651699194 0.5 L 170.68662053398387 0.5 L 170.68662053398387 3.5 L 177.68662053398387 0 L 170.68662053398387 -3.5 L 170.68662053398387 -0.5 L 115.06596651699194 -0.5 Z"/><text text-anchor="middle" pointer-events="none" font-size="8px" fill="#000000" x="97.84331026699194" y="3" transform="rotate(180 97.84331026699194 0)" font-family="sans-serif">ORIGIN</text></g><g class="relationship" transform="translate(-221.3648426907587 296.8923921616432) rotate(374.38490099049295)"><path class="outline" fill="#A5ABB6" stroke="none" d="M 25 0.5 L 78.4166345480551 0.5 L 78.4166345480551 -0.5 L 25 -0.5 Z M 137.6041345480551 0.5 L 191.0207690961102 0.5 L 191.0207690961102 3.5 L 198.0207690961102 0 L 191.0207690961102 -3.5 L 191.0207690961102 -0.5 L 137.6041345480551 -0.5 Z"/><text text-anchor="middle" pointer-events="none" font-size="8px" fill="#000000" x="108.0103845480551" y="3" font-family="sans-serif">DESTINATION</text></g><g class="relationship" transform="translate(129.48363897756693 282.4571506409123) rotate(512.6142641161139)"><path class="outline" fill="#A5ABB6" stroke="none" d="M 25 0.5 L 55.19533429923321 0.5 L 55.19533429923321 -0.5 L 25 -0.5 Z M 89.64064679923321 0.5 L 119.83598109846642 0.5 L 119.83598109846642 3.5 L 126.83598109846642 0 L 119.83598109846642 -3.5 L 119.83598109846642 -0.5 L 89.64064679923321 -0.5 Z"/><text text-anchor="middle" pointer-events="none" font-size="8px" fill="#000000" x="72.41799054923321" y="3" transform="rotate(180 72.41799054923321 0)" font-family="sans-serif">ORIGIN</text></g><g class="relationship" transform="translate(129.48363897756693 282.4571506409123) rotate(332.0839523536539)"><path class="outline" fill="#A5ABB6" stroke="none" d="M 25 0.5 L 41.806024145324955 0.5 L 41.806024145324955 -0.5 L 25 -0.5 Z M 100.99352414532495 0.5 L 117.79954829064991 0.5 L 117.79954829064991 3.5 L 124.79954829064991 0 L 117.79954829064991 -3.5 L 117.79954829064991 -0.5 L 100.99352414532495 -0.5 Z"/><text text-anchor="middle" pointer-events="none" font-size="8px" fill="#000000" x="71.39977414532495" y="3" font-family="sans-serif">DESTINATION</text></g><g class="relationship" transform="translate(131.85457648184953 342.39707197755) rotate(535.8719735548043)"><path class="outline" fill="#A5ABB6" stroke="none" d="M 25 0.5 L 35.67999494980815 0.5 L 35.67999494980815 -0.5 L 25 -0.5 Z M 94.86749494980815 0.5 L 105.5474898996163 0.5 L 105.5474898996163 3.5 L 112.5474898996163 0 L 105.5474898996163 -3.5 L 105.5474898996163 -0.5 L 94.86749494980815 -0.5 Z"/><text text-anchor="middle" pointer-events="none" font-size="8px" fill="#000000" x="65.27374494980815" y="3" transform="rotate(180 65.27374494980815 0)" font-family="sans-serif">DESTINATION</text></g><g class="relationship" transform="translate(131.85457648184953 342.39707197755) rotate(314.9833542457169)"><path class="outline" fill="#A5ABB6" stroke="none" d="M 25 0.5 L 71.2259036383088 0.5 L 71.2259036383088 -0.5 L 25 -0.5 Z M 105.6712161383088 0.5 L 151.8971197766176 0.5 L 151.8971197766176 3.5 L 158.8971197766176 0 L 151.8971197766176 -3.5 L 151.8971197766176 -0.5 L 105.6712161383088 -0.5 Z"/><text text-anchor="middle" pointer-events="none" font-size="8px" fill="#000000" x="88.4485598883088" y="3" font-family="sans-serif">ORIGIN</text></g><g class="relationship" transform="translate(182.47614038102193 310.52990486793897) rotate(527.4617379795825)"><path class="outline" fill="#A5ABB6" stroke="none" d="M 25 0.5 L 63.10661482124769 0.5 L 63.10661482124769 -0.5 L 25 -0.5 Z M 122.29411482124769 0.5 L 160.40072964249538 0.5 L 160.40072964249538 3.5 L 167.40072964249538 0 L 160.40072964249538 -3.5 L 160.40072964249538 -0.5 L 122.29411482124769 -0.5 Z"/><text text-anchor="middle" pointer-events="none" font-size="8px" fill="#000000" x="92.70036482124769" y="3" transform="rotate(180 92.70036482124769 0)" font-family="sans-serif">DESTINATION</text></g><g class="relationship" transform="translate(182.47614038102193 310.52990486793897) rotate(308.9472124780982)"><path class="outline" fill="#A5ABB6" stroke="none" d="M 25 0.5 L 42.41370372654444 0.5 L 42.41370372654444 -0.5 L 25 -0.5 Z M 76.85901622654444 0.5 L 94.27271995308888 0.5 L 94.27271995308888 3.5 L 101.27271995308888 0 L 94.27271995308888 -3.5 L 94.27271995308888 -0.5 L 76.85901622654444 -0.5 Z"/><text text-anchor="middle" pointer-events="none" font-size="8px" fill="#000000" x="59.63635997654444" y="3" font-family="sans-serif">ORIGIN</text></g><g class="relationship" transform="translate(-254.64026643514742 179.46733970965903) rotate(535.1779615651214)"><path class="outline" fill="#A5ABB6" stroke="none" d="M 25 0.5 L 49.377833403661 0.5 L 49.377833403661 -0.5 L 25 -0.5 Z M 83.823145903661 0.5 L 108.200979307322 0.5 L 108.200979307322 3.5 L 115.200979307322 0 L 108.200979307322 -3.5 L 108.200979307322 -0.5 L 83.823145903661 -0.5 Z"/><text text-anchor="middle" pointer-events="none" font-size="8px" fill="#000000" x="66.600489653661" y="3" transform="rotate(180 66.600489653661 0)" font-family="sans-serif">ORIGIN</text></g><g class="relationship" transform="translate(-254.64026643514742 179.46733970965903) rotate(365.00869155489323)"><path class="outline" fill="#A5ABB6" stroke="none" d="M 25 0.5 L 50.35247036410655 0.5 L 50.35247036410655 -0.5 L 25 -0.5 Z M 109.53997036410655 0.5 L 134.8924407282131 0.5 L 134.8924407282131 3.5 L 141.8924407282131 0 L 134.8924407282131 -3.5 L 134.8924407282131 -0.5 L 109.53997036410655 -0.5 Z"/><text text-anchor="middle" pointer-events="none" font-size="8px" fill="#000000" x="79.94622036410655" y="3" font-family="sans-serif">DESTINATION</text></g><g class="relationship" transform="translate(96.18761055650052 171.60801510340082) rotate(533.0711126610711)"><path class="outline" fill="#A5ABB6" stroke="none" d="M 25 0.5 L 72.2426628627174 0.5 L 72.2426628627174 -0.5 L 25 -0.5 Z M 106.6879753627174 0.5 L 153.9306382254348 0.5 L 153.9306382254348 3.5 L 160.9306382254348 0 L 153.9306382254348 -3.5 L 153.9306382254348 -0.5 L 106.6879753627174 -0.5 Z"/><text text-anchor="middle" pointer-events="none" font-size="8px" fill="#000000" x="89.4653191127174" y="3" transform="rotate(180 89.4653191127174 0)" font-family="sans-serif">ORIGIN</text></g><g class="relationship" transform="translate(96.18761055650052 171.60801510340082) rotate(373.80827880730146)"><path class="outline" fill="#A5ABB6" stroke="none" d="M 25 0.5 L 52.20339562797258 0.5 L 52.20339562797258 -0.5 L 25 -0.5 Z M 111.39089562797258 0.5 L 138.59429125594517 0.5 L 138.59429125594517 3.5 L 145.59429125594517 0 L 138.59429125594517 -3.5 L 138.59429125594517 -0.5 L 111.39089562797258 -0.5 Z"/><text text-anchor="middle" pointer-events="none" font-size="8px" fill="#000000" x="81.79714562797258" y="3" font-family="sans-serif">DESTINATION</text></g><g class="relationship" transform="translate(81.704334236427 229.71237468571417) rotate(191.8453880031788)"><path class="outline" fill="#A5ABB6" stroke="none" d="M 25 0.5 L 53.80139693101758 0.5 L 53.80139693101758 -0.5 L 25 -0.5 Z M 112.98889693101758 0.5 L 141.79029386203516 0.5 L 141.79029386203516 3.5 L 148.79029386203516 0 L 141.79029386203516 -3.5 L 141.79029386203516 -0.5 L 112.98889693101758 -0.5 Z"/><text text-anchor="middle" pointer-events="none" font-size="8px" fill="#000000" x="83.39514693101758" y="3" transform="rotate(180 83.39514693101758 0)" font-family="sans-serif">DESTINATION</text></g><g class="relationship" transform="translate(81.704334236427 229.71237468571417) rotate(354.48684116160894)"><path class="outline" fill="#A5ABB6" stroke="none" d="M 25 0.5 L 69.76962611456125 0.5 L 69.76962611456125 -0.5 L 25 -0.5 Z M 104.21493861456125 0.5 L 148.9845647291225 0.5 L 148.9845647291225 3.5 L 155.9845647291225 0 L 148.9845647291225 -3.5 L 148.9845647291225 -0.5 L 104.21493861456125 -0.5 Z"/><text text-anchor="middle" pointer-events="none" font-size="8px" fill="#000000" x="86.99228236456125" y="3" font-family="sans-serif">ORIGIN</text></g><g class="relationship" transform="translate(-261.4912362648506 238.99078237331855) rotate(199.7647478171175)"><path class="outline" fill="#A5ABB6" stroke="none" d="M 25 0.5 L 49.86247509432677 0.5 L 49.86247509432677 -0.5 L 25 -0.5 Z M 84.30778759432677 0.5 L 109.17026268865354 0.5 L 109.17026268865354 3.5 L 116.17026268865354 0 L 109.17026268865354 -3.5 L 109.17026268865354 -0.5 L 84.30778759432677 -0.5 Z"/><text text-anchor="middle" pointer-events="none" font-size="8px" fill="#000000" x="67.08513134432677" y="3" transform="rotate(180 67.08513134432677 0)" font-family="sans-serif">ORIGIN</text></g><g class="relationship" transform="translate(-261.4912362648506 238.99078237331855) rotate(345.44283829484607)"><path class="outline" fill="#A5ABB6" stroke="none" d="M 25 0.5 L 56.330052746056154 0.5 L 56.330052746056154 -0.5 L 25 -0.5 Z M 115.51755274605615 0.5 L 146.8476054921123 0.5 L 146.8476054921123 3.5 L 153.8476054921123 0 L 146.8476054921123 -3.5 L 146.8476054921123 -0.5 L 115.51755274605615 -0.5 Z"/><text text-anchor="middle" pointer-events="none" font-size="8px" fill="#000000" x="85.92380274605615" y="3" font-family="sans-serif">DESTINATION</text></g><g class="relationship" transform="translate(-205.7798692770962 360.12551037521575) rotate(221.8465744031564)"><path class="outline" fill="#A5ABB6" stroke="none" d="M 25 0.5 L 105.8423569081475 0.5 L 105.8423569081475 -0.5 L 25 -0.5 Z M 140.2876694081475 0.5 L 221.130026316295 0.5 L 221.130026316295 3.5 L 228.130026316295 0 L 221.130026316295 -3.5 L 221.130026316295 -0.5 L 140.2876694081475 -0.5 Z"/><text text-anchor="middle" pointer-events="none" font-size="8px" fill="#000000" x="123.0650131581475" y="3" transform="rotate(180 123.0650131581475 0)" font-family="sans-serif">ORIGIN</text></g><g class="relationship" transform="translate(-205.7798692770962 360.12551037521575) rotate(384.23139656794774)"><path class="outline" fill="#A5ABB6" stroke="none" d="M 25 0.5 L 106.08692873740881 0.5 L 106.08692873740881 -0.5 L 25 -0.5 Z M 165.2744287374088 0.5 L 246.36135747481762 0.5 L 246.36135747481762 3.5 L 253.36135747481762 0 L 246.36135747481762 -3.5 L 246.36135747481762 -0.5 L 165.2744287374088 -0.5 Z"/><text text-anchor="middle" pointer-events="none" font-size="8px" fill="#000000" x="135.6806787374088" y="3" font-family="sans-serif">DESTINATION</text></g><g class="relationship" transform="translate(180.80925854232586 384.54682325183927) rotate(505.91651745615684)"><path class="outline" fill="#A5ABB6" stroke="none" d="M 25 0.5 L 47.049443461557374 0.5 L 47.049443461557374 -0.5 L 25 -0.5 Z M 106.23694346155737 0.5 L 128.28638692311475 0.5 L 128.28638692311475 3.5 L 135.28638692311475 0 L 128.28638692311475 -3.5 L 128.28638692311475 -0.5 L 106.23694346155737 -0.5 Z"/><text text-anchor="middle" pointer-events="none" font-size="8px" fill="#000000" x="76.64319346155737" y="3" transform="rotate(180 76.64319346155737 0)" font-family="sans-serif">DESTINATION</text></g><g class="relationship" transform="translate(180.80925854232586 384.54682325183927) rotate(295.2001943086692)"><path class="outline" fill="#A5ABB6" stroke="none" d="M 25 0.5 L 74.44619328292211 0.5 L 74.44619328292211 -0.5 L 25 -0.5 Z M 108.89150578292211 0.5 L 158.33769906584422 0.5 L 158.33769906584422 3.5 L 165.33769906584422 0 L 158.33769906584422 -3.5 L 158.33769906584422 -0.5 L 108.89150578292211 -0.5 Z"/><text text-anchor="middle" pointer-events="none" font-size="8px" fill="#000000" x="91.66884953292211" y="3" font-family="sans-serif">ORIGIN</text></g><g class="relationship" transform="translate(240.63429508892227 384.7801301249786) rotate(515.0511575774998)"><path class="outline" fill="#A5ABB6" stroke="none" d="M 25 0.5 L 73.10508723658029 0.5 L 73.10508723658029 -0.5 L 25 -0.5 Z M 132.2925872365803 0.5 L 180.39767447316058 0.5 L 180.39767447316058 3.5 L 187.39767447316058 0 L 180.39767447316058 -3.5 L 180.39767447316058 -0.5 L 132.2925872365803 -0.5 Z"/><text text-anchor="middle" pointer-events="none" font-size="8px" fill="#000000" x="102.69883723658029" y="3" transform="rotate(180 102.69883723658029 0)" font-family="sans-serif">DESTINATION</text></g><g class="relationship" transform="translate(240.63429508892227 384.7801301249786) rotate(277.0139088487565)"><path class="outline" fill="#A5ABB6" stroke="none" d="M 25 0.5 L 66.15535769370025 0.5 L 66.15535769370025 -0.5 L 25 -0.5 Z M 100.60067019370025 0.5 L 141.7560278874005 0.5 L 141.7560278874005 3.5 L 148.7560278874005 0 L 141.7560278874005 -3.5 L 141.7560278874005 -0.5 L 100.60067019370025 -0.5 Z"/><text text-anchor="middle" pointer-events="none" font-size="8px" fill="#000000" x="83.37801394370025" y="3" font-family="sans-serif">ORIGIN</text></g><g class="relationship" transform="translate(-35.262367132723114 -23.26812002083115) rotate(463.7371196195716)"><path class="outline" fill="#A5ABB6" stroke="none" d="M 25 0.5 L 78.75889893471927 0.5 L 78.75889893471927 -0.5 L 25 -0.5 Z M 137.94639893471927 0.5 L 191.70529786943854 0.5 L 191.70529786943854 3.5 L 198.70529786943854 0 L 191.70529786943854 -3.5 L 191.70529786943854 -0.5 L 137.94639893471927 -0.5 Z"/><text text-anchor="middle" pointer-events="none" font-size="8px" fill="#000000" x="108.35264893471927" y="3" transform="rotate(180 108.35264893471927 0)" font-family="sans-serif">DESTINATION</text></g><g class="relationship" transform="translate(-35.262367132723114 -23.26812002083115) rotate(303.964077527936)"><path class="outline" fill="#A5ABB6" stroke="none" d="M 25 0.5 L 74.91100311725958 0.5 L 74.91100311725958 -0.5 L 25 -0.5 Z M 109.35631561725958 0.5 L 159.26731873451916 0.5 L 159.26731873451916 3.5 L 166.26731873451916 0 L 159.26731873451916 -3.5 L 159.26731873451916 -0.5 L 109.35631561725958 -0.5 Z"/><text text-anchor="middle" pointer-events="none" font-size="8px" fill="#000000" x="92.13365936725958" y="3" font-family="sans-serif">ORIGIN</text></g></g><g class="layer nodes"><g class="node" transform="translate(-394.3450183145525,191.25279265157013)"><circle class="outline" cx="0" cy="0" r="25" fill="#DA7194" stroke="#cc3c6c" stroke-width="2px"/><text text-anchor="middle" pointer-events="none" font-family="sans-serif" dy="1.5625" font-size="25" fill="#FFFFFF"/><text text-anchor="middle" pointer-events="none" x="0" y="5" font-size="10px" fill="#FFFFFF" font-family="sans-serif"> LAX</text></g><g class="node" transform="translate(746.0937345471848,1.7691501381154922)"><circle class="outline" cx="0" cy="0" r="25" fill="#DA7194" stroke="#cc3c6c" stroke-width="2px"/><text text-anchor="middle" pointer-events="none" font-family="sans-serif" dy="1.5625" font-size="25" fill="#FFFFFF"/><text text-anchor="middle" pointer-events="none" x="0" y="5" font-size="10px" fill="#FFFFFF" font-family="sans-serif"> DAY</text></g><g class="node" transform="translate(-128.4765678814583,112.00834013489612)"><circle class="outline" cx="0" cy="0" r="25" fill="#569480" stroke="#447666" stroke-width="2px"/><text text-anchor="middle" pointer-events="none" font-family="sans-serif" dy="1.5625" font-size="25" fill="#FFFFFF"/><text text-anchor="middle" pointer-events="none" x="0" y="5" font-size="10px" fill="#FFFFFF" font-family="sans-serif"> 11/29/20…</text></g><g class="node" transform="translate(157.4164556964511,6.471774877014724)"><circle class="outline" cx="0" cy="0" r="25" fill="#DA7194" stroke="#cc3c6c" stroke-width="2px"/><text text-anchor="middle" pointer-events="none" font-family="sans-serif" dy="1.5625" font-size="25" fill="#FFFFFF"/><text text-anchor="middle" pointer-events="none" x="0" y="5" font-size="10px" fill="#FFFFFF" font-family="sans-serif"> LAS</text></g><g class="node" transform="translate(212.9428836201983,106.7638198217254)"><circle class="outline" cx="0" cy="0" r="25" fill="#569480" stroke="#447666" stroke-width="2px"/><text text-anchor="middle" pointer-events="none" font-family="sans-serif" dy="1.5625" font-size="25" fill="#FFFFFF"/><text text-anchor="middle" pointer-events="none" x="0" y="5" font-size="10px" fill="#FFFFFF" font-family="sans-serif"> 11/29/20…</text></g><g class="node" transform="translate(261.8516932715661,212.32439887325637)"><circle class="outline" cx="0" cy="0" r="25" fill="#DA7194" stroke="#cc3c6c" stroke-width="2px"/><text text-anchor="middle" pointer-events="none" font-family="sans-serif" dy="1.5625" font-size="25" fill="#FFFFFF"/><text text-anchor="middle" pointer-events="none" x="0" y="5" font-size="10px" fill="#FFFFFF" font-family="sans-serif"> ORD</text></g><g class="node" transform="translate(497.07056813995484,192.17586557462482)"><circle class="outline" cx="0" cy="0" r="25" fill="#569480" stroke="#447666" stroke-width="2px"/><text text-anchor="middle" pointer-events="none" font-family="sans-serif" dy="1.5625" font-size="25" fill="#FFFFFF"/><text text-anchor="middle" pointer-events="none" x="0" y="5" font-size="10px" fill="#FFFFFF" font-family="sans-serif"> 11/29/20…</text></g><g class="node" transform="translate(486.22581825088287,1.3371696491270737)"><circle class="outline" cx="0" cy="0" r="25" fill="#DA7194" stroke="#cc3c6c" stroke-width="2px"/><text text-anchor="middle" pointer-events="none" font-family="sans-serif" dy="1.5625" font-size="25" fill="#FFFFFF"/><text text-anchor="middle" pointer-events="none" x="0" y="5" font-size="10px" fill="#FFFFFF" font-family="sans-serif"> MSP</text></g><g class="node" transform="translate(623.9126133217768,44.137755262387984)"><circle class="outline" cx="0" cy="0" r="25" fill="#569480" stroke="#447666" stroke-width="2px"/><text text-anchor="middle" pointer-events="none" font-family="sans-serif" dy="1.5625" font-size="25" fill="#FFFFFF"/><text text-anchor="middle" pointer-events="none" x="0" y="5" font-size="10px" fill="#FFFFFF" font-family="sans-serif"> 11/25/20…</text></g><g class="node" transform="translate(265.1805724363428,77.29602987637608)"><circle class="outline" cx="0" cy="0" r="25" fill="#569480" stroke="#447666" stroke-width="2px"/><text text-anchor="middle" pointer-events="none" font-family="sans-serif" dy="1.5625" font-size="25" fill="#FFFFFF"/><text text-anchor="middle" pointer-events="none" x="0" y="5" font-size="10px" fill="#FFFFFF" font-family="sans-serif"> 11/29/20…</text></g><g class="node" transform="translate(164.81139264339254,-142.8618781689498)"><circle class="outline" cx="0" cy="0" r="25" fill="#569480" stroke="#447666" stroke-width="2px"/><text text-anchor="middle" pointer-events="none" font-family="sans-serif" dy="1.5625" font-size="25" fill="#FFFFFF"/><text text-anchor="middle" pointer-events="none" x="0" y="5" font-size="10px" fill="#FFFFFF" font-family="sans-serif"> 11/29/20…</text></g><g class="node" transform="translate(71.59352263249122,-181.90293977480735)"><circle class="outline" cx="0" cy="0" r="25" fill="#DA7194" stroke="#cc3c6c" stroke-width="2px"/><text text-anchor="middle" pointer-events="none" font-family="sans-serif" dy="1.5625" font-size="25" fill="#FFFFFF"/><text text-anchor="middle" pointer-events="none" x="0" y="5" font-size="10px" fill="#FFFFFF" font-family="sans-serif"> DEN</text></g><g class="node" transform="translate(301.3450659068262,-118.95303178148656)"><circle class="outline" cx="0" cy="0" r="25" fill="#569480" stroke="#447666" stroke-width="2px"/><text text-anchor="middle" pointer-events="none" font-family="sans-serif" dy="1.5625" font-size="25" fill="#FFFFFF"/><text text-anchor="middle" pointer-events="none" x="0" y="5" font-size="10px" fill="#FFFFFF" font-family="sans-serif"> 11/29/20…</text></g><g class="node" transform="translate(604.4631765165182,-12.506701935847133)"><circle class="outline" cx="0" cy="0" r="25" fill="#569480" stroke="#447666" stroke-width="2px"/><text text-anchor="middle" pointer-events="none" font-family="sans-serif" dy="1.5625" font-size="25" fill="#FFFFFF"/><text text-anchor="middle" pointer-events="none" x="0" y="5" font-size="10px" fill="#FFFFFF" font-family="sans-serif"> 11/23/20…</text></g><g class="node" transform="translate(617.2379000169652,-71.00736469772662)"><circle class="outline" cx="0" cy="0" r="25" fill="#569480" stroke="#447666" stroke-width="2px"/><text text-anchor="middle" pointer-events="none" font-family="sans-serif" dy="1.5625" font-size="25" fill="#FFFFFF"/><text text-anchor="middle" pointer-events="none" x="0" y="5" font-size="10px" fill="#FFFFFF" font-family="sans-serif"> 11/11/20…</text></g><g class="node" transform="translate(613.0692265138061,103.18230281553963)"><circle class="outline" cx="0" cy="0" r="25" fill="#569480" stroke="#447666" stroke-width="2px"/><text text-anchor="middle" pointer-events="none" font-family="sans-serif" dy="1.5625" font-size="25" fill="#FFFFFF"/><text text-anchor="middle" pointer-events="none" x="0" y="5" font-size="10px" fill="#FFFFFF" font-family="sans-serif"> 11/20/20…</text></g><g class="node" transform="translate(369.24924453102983,89.55762119717997)"><circle class="outline" cx="0" cy="0" r="25" fill="#569480" stroke="#447666" stroke-width="2px"/><text text-anchor="middle" pointer-events="none" font-family="sans-serif" dy="1.5625" font-size="25" fill="#FFFFFF"/><text text-anchor="middle" pointer-events="none" x="0" y="5" font-size="10px" fill="#FFFFFF" font-family="sans-serif"> 11/29/20…</text></g><g class="node" transform="translate(402.2582384576337,139.58746633192482)"><circle class="outline" cx="0" cy="0" r="25" fill="#569480" stroke="#447666" stroke-width="2px"/><text text-anchor="middle" pointer-events="none" font-family="sans-serif" dy="1.5625" font-size="25" fill="#FFFFFF"/><text text-anchor="middle" pointer-events="none" x="0" y="5" font-size="10px" fill="#FFFFFF" font-family="sans-serif"> 11/30/20…</text></g><g class="node" transform="translate(-210.14855691945405,71.11591206170273)"><circle class="outline" cx="0" cy="0" r="25" fill="#569480" stroke="#447666" stroke-width="2px"/><text text-anchor="middle" pointer-events="none" font-family="sans-serif" dy="1.5625" font-size="25" fill="#FFFFFF"/><text text-anchor="middle" pointer-events="none" x="0" y="5" font-size="10px" fill="#FFFFFF" font-family="sans-serif"> 11/3/2015</text></g><g class="node" transform="translate(-233.72097695433663,-103.5521382392105)"><circle class="outline" cx="0" cy="0" r="25" fill="#DA7194" stroke="#cc3c6c" stroke-width="2px"/><text text-anchor="middle" pointer-events="none" font-family="sans-serif" dy="1.5625" font-size="25" fill="#FFFFFF"/><text text-anchor="middle" pointer-events="none" x="0" y="5" font-size="10px" fill="#FFFFFF" font-family="sans-serif"> SMF</text></g><g class="node" transform="translate(-96.47390818366299,-192.41005337196708)"><circle class="outline" cx="0" cy="0" r="25" fill="#569480" stroke="#447666" stroke-width="2px"/><text text-anchor="middle" pointer-events="none" font-family="sans-serif" dy="1.5625" font-size="25" fill="#FFFFFF"/><text text-anchor="middle" pointer-events="none" x="0" y="5" font-size="10px" fill="#FFFFFF" font-family="sans-serif"> 11/30/20…</text></g><g class="node" transform="translate(-280.4070639407395,57.4207838099895)"><circle class="outline" cx="0" cy="0" r="25" fill="#569480" stroke="#447666" stroke-width="2px"/><text text-anchor="middle" pointer-events="none" font-family="sans-serif" dy="1.5625" font-size="25" fill="#FFFFFF"/><text text-anchor="middle" pointer-events="none" x="0" y="5" font-size="10px" fill="#FFFFFF" font-family="sans-serif"> 11/1/2015</text></g><g class="node" transform="translate(-393.0200856157382,-3.861958169159471)"><circle class="outline" cx="0" cy="0" r="25" fill="#569480" stroke="#447666" stroke-width="2px"/><text text-anchor="middle" pointer-events="none" font-family="sans-serif" dy="1.5625" font-size="25" fill="#FFFFFF"/><text text-anchor="middle" pointer-events="none" x="0" y="5" font-size="10px" fill="#FFFFFF" font-family="sans-serif"> 11/2/2015</text></g><g class="node" transform="translate(-342.23588903613,28.078303718927515)"><circle class="outline" cx="0" cy="0" r="25" fill="#569480" stroke="#447666" stroke-width="2px"/><text text-anchor="middle" pointer-events="none" font-family="sans-serif" dy="1.5625" font-size="25" fill="#FFFFFF"/><text text-anchor="middle" pointer-events="none" x="0" y="5" font-size="10px" fill="#FFFFFF" font-family="sans-serif"> 11/4/2015</text></g><g class="node" transform="translate(594.9461610489177,-135.43962467355365)"><circle class="outline" cx="0" cy="0" r="25" fill="#569480" stroke="#447666" stroke-width="2px"/><text text-anchor="middle" pointer-events="none" font-family="sans-serif" dy="1.5625" font-size="25" fill="#FFFFFF"/><text text-anchor="middle" pointer-events="none" x="0" y="5" font-size="10px" fill="#FFFFFF" font-family="sans-serif"> 11/16/20…</text></g><g class="node" transform="translate(8.990112731624308,72.38959037799243)"><circle class="outline" cx="0" cy="0" r="25" fill="#569480" stroke="#447666" stroke-width="2px"/><text text-anchor="middle" pointer-events="none" font-family="sans-serif" dy="1.5625" font-size="25" fill="#FFFFFF"/><text text-anchor="middle" pointer-events="none" x="0" y="5" font-size="10px" fill="#FFFFFF" font-family="sans-serif"> 11/30/20…</text></g><g class="node" transform="translate(40.719899411504684,21.7262128705762)"><circle class="outline" cx="0" cy="0" r="25" fill="#569480" stroke="#447666" stroke-width="2px"/><text text-anchor="middle" pointer-events="none" font-family="sans-serif" dy="1.5625" font-size="25" fill="#FFFFFF"/><text text-anchor="middle" pointer-events="none" x="0" y="5" font-size="10px" fill="#FFFFFF" font-family="sans-serif"> 11/29/20…</text></g><g class="node" transform="translate(-221.3648426907587,296.8923921616432)"><circle class="outline" cx="0" cy="0" r="25" fill="#569480" stroke="#447666" stroke-width="2px"/><text text-anchor="middle" pointer-events="none" font-family="sans-serif" dy="1.5625" font-size="25" fill="#FFFFFF"/><text text-anchor="middle" pointer-events="none" x="0" y="5" font-size="10px" fill="#FFFFFF" font-family="sans-serif"> 11/30/20…</text></g><g class="node" transform="translate(-5.336072638772723,352.2984744816075)"><circle class="outline" cx="0" cy="0" r="25" fill="#DA7194" stroke="#cc3c6c" stroke-width="2px"/><text text-anchor="middle" pointer-events="none" font-family="sans-serif" dy="1.5625" font-size="25" fill="#FFFFFF"/><text text-anchor="middle" pointer-events="none" x="0" y="5" font-size="10px" fill="#FFFFFF" font-family="sans-serif"> IAH</text></g><g class="node" transform="translate(129.48363897756693,282.4571506409123)"><circle class="outline" cx="0" cy="0" r="25" fill="#569480" stroke="#447666" stroke-width="2px"/><text text-anchor="middle" pointer-events="none" font-family="sans-serif" dy="1.5625" font-size="25" fill="#FFFFFF"/><text text-anchor="middle" pointer-events="none" x="0" y="5" font-size="10px" fill="#FFFFFF" font-family="sans-serif"> 11/29/20…</text></g><g class="node" transform="translate(131.85457648184953,342.39707197755)"><circle class="outline" cx="0" cy="0" r="25" fill="#569480" stroke="#447666" stroke-width="2px"/><text text-anchor="middle" pointer-events="none" font-family="sans-serif" dy="1.5625" font-size="25" fill="#FFFFFF"/><text text-anchor="middle" pointer-events="none" x="0" y="5" font-size="10px" fill="#FFFFFF" font-family="sans-serif"> 11/29/20…</text></g><g class="node" transform="translate(182.47614038102193,310.52990486793897)"><circle class="outline" cx="0" cy="0" r="25" fill="#569480" stroke="#447666" stroke-width="2px"/><text text-anchor="middle" pointer-events="none" font-family="sans-serif" dy="1.5625" font-size="25" fill="#FFFFFF"/><text text-anchor="middle" pointer-events="none" x="0" y="5" font-size="10px" fill="#FFFFFF" font-family="sans-serif"> 11/30/20…</text></g><g class="node" transform="translate(-254.64026643514742,179.46733970965903)"><circle class="outline" cx="0" cy="0" r="25" fill="#569480" stroke="#447666" stroke-width="2px"/><text text-anchor="middle" pointer-events="none" font-family="sans-serif" dy="1.5625" font-size="25" fill="#FFFFFF"/><text text-anchor="middle" pointer-events="none" x="0" y="5" font-size="10px" fill="#FFFFFF" font-family="sans-serif"> 11/30/20…</text></g><g class="node" transform="translate(-88.38511026126622,194.03819479158528)"><circle class="outline" cx="0" cy="0" r="25" fill="#DA7194" stroke="#cc3c6c" stroke-width="2px"/><text text-anchor="middle" pointer-events="none" font-family="sans-serif" dy="1.5625" font-size="25" fill="#FFFFFF"/><text text-anchor="middle" pointer-events="none" x="0" y="5" font-size="10px" fill="#FFFFFF" font-family="sans-serif"> EWR</text></g><g class="node" transform="translate(96.18761055650052,171.60801510340082)"><circle class="outline" cx="0" cy="0" r="25" fill="#569480" stroke="#447666" stroke-width="2px"/><text text-anchor="middle" pointer-events="none" font-family="sans-serif" dy="1.5625" font-size="25" fill="#FFFFFF"/><text text-anchor="middle" pointer-events="none" x="0" y="5" font-size="10px" fill="#FFFFFF" font-family="sans-serif"> 11/30/20…</text></g><g class="node" transform="translate(81.704334236427,229.71237468571417)"><circle class="outline" cx="0" cy="0" r="25" fill="#569480" stroke="#447666" stroke-width="2px"/><text text-anchor="middle" pointer-events="none" font-family="sans-serif" dy="1.5625" font-size="25" fill="#FFFFFF"/><text text-anchor="middle" pointer-events="none" x="0" y="5" font-size="10px" fill="#FFFFFF" font-family="sans-serif"> 11/30/20…</text></g><g class="node" transform="translate(-261.4912362648506,238.99078237331855)"><circle class="outline" cx="0" cy="0" r="25" fill="#569480" stroke="#447666" stroke-width="2px"/><text text-anchor="middle" pointer-events="none" font-family="sans-serif" dy="1.5625" font-size="25" fill="#FFFFFF"/><text text-anchor="middle" pointer-events="none" x="0" y="5" font-size="10px" fill="#FFFFFF" font-family="sans-serif"> 11/29/20…</text></g><g class="node" transform="translate(-205.7798692770962,360.12551037521575)"><circle class="outline" cx="0" cy="0" r="25" fill="#569480" stroke="#447666" stroke-width="2px"/><text text-anchor="middle" pointer-events="none" font-family="sans-serif" dy="1.5625" font-size="25" fill="#FFFFFF"/><text text-anchor="middle" pointer-events="none" x="0" y="5" font-size="10px" fill="#FFFFFF" font-family="sans-serif"> 11/29/20…</text></g><g class="node" transform="translate(48.05655886045537,474.3713553131951)"><circle class="outline" cx="0" cy="0" r="25" fill="#DA7194" stroke="#cc3c6c" stroke-width="2px"/><text text-anchor="middle" pointer-events="none" font-family="sans-serif" dy="1.5625" font-size="25" fill="#FFFFFF"/><text text-anchor="middle" pointer-events="none" x="0" y="5" font-size="10px" fill="#FFFFFF" font-family="sans-serif"> BOS</text></g><g class="node" transform="translate(180.80925854232586,384.54682325183927)"><circle class="outline" cx="0" cy="0" r="25" fill="#569480" stroke="#447666" stroke-width="2px"/><text text-anchor="middle" pointer-events="none" font-family="sans-serif" dy="1.5625" font-size="25" fill="#FFFFFF"/><text text-anchor="middle" pointer-events="none" x="0" y="5" font-size="10px" fill="#FFFFFF" font-family="sans-serif"> 11/30/20…</text></g><g class="node" transform="translate(240.63429508892227,384.7801301249786)"><circle class="outline" cx="0" cy="0" r="25" fill="#569480" stroke="#447666" stroke-width="2px"/><text text-anchor="middle" pointer-events="none" font-family="sans-serif" dy="1.5625" font-size="25" fill="#FFFFFF"/><text text-anchor="middle" pointer-events="none" x="0" y="5" font-size="10px" fill="#FFFFFF" font-family="sans-serif"> 11/29/20…</text></g><g class="node" transform="translate(-35.262367132723114,-23.26812002083115)"><circle class="outline" cx="0" cy="0" r="25" fill="#569480" stroke="#447666" stroke-width="2px"/><text text-anchor="middle" pointer-events="none" font-family="sans-serif" dy="1.5625" font-size="25" fill="#FFFFFF"/><text text-anchor="middle" pointer-events="none" x="0" y="5" font-size="10px" fill="#FFFFFF" font-family="sans-serif"> 11/30/20…</text></g></g></svg>