<svg xmlns="http://www.w3.org/2000/svg" width="647.26611328125" height="655.2413330078125" viewBox="-225.61419677734375 -237.52452087402344 647.26611328125 655.2413330078125"><title>Neo4j Graph Visualization</title><desc>Created using Neo4j (http://www.neo4j.com/)</desc><g class="layer relationships"><g class="relationship" transform="translate(205.2455517342405 -56.959386734241036) rotate(494.39485739727013)"><path class="outline" fill="#A5ABB6" stroke="none" d="M 25 0.5 L 71.81194746993114 0.5 L 71.81194746993114 -0.5 L 25 -0.5 Z M 106.25725996993114 0.5 L 153.06920743986228 0.5 L 153.06920743986228 3.5 L 160.06920743986228 0 L 153.06920743986228 -3.5 L 153.06920743986228 -0.5 L 106.25725996993114 -0.5 Z"/><text text-anchor="middle" pointer-events="none" font-size="8px" fill="#000000" x="89.03460371993114" y="3" transform="rotate(180 89.03460371993114 0)" font-family="sans-serif">ORIGIN</text></g><g class="relationship" transform="translate(205.2455517342405 -56.959386734241036) rotate(311.08877116344513)"><path class="outline" fill="#A5ABB6" stroke="none" d="M 25 0.5 L 25.14732381836921 0.5 L 25.14732381836921 -0.5 L 25 -0.5 Z M 68.48326131836922 0.5 L 68.63058513673842 0.5 L 68.63058513673842 3.5 L 75.63058513673842 0 L 68.63058513673842 -3.5 L 68.63058513673842 -0.5 L 68.48326131836922 -0.5 Z"/><text text-anchor="middle" pointer-events="none" font-size="8px" fill="#000000" x="46.81529256836921" y="3" font-family="sans-serif">DESTIN…</text></g><g class="relationship" transform="translate(217.6993931183712 199.673058215894) rotate(221.23318153418052)"><path class="outline" fill="#A5ABB6" stroke="none" d="M 25 0.5 L 73.64025914316225 0.5 L 73.64025914316225 -0.5 L 25 -0.5 Z M 108.08557164316225 0.5 L 156.7258307863245 0.5 L 156.7258307863245 3.5 L 163.7258307863245 0 L 156.7258307863245 -3.5 L 156.7258307863245 -0.5 L 108.08557164316225 -0.5 Z"/><text text-anchor="middle" pointer-events="none" font-size="8px" fill="#000000" x="90.86291539316225" y="3" transform="rotate(180 90.86291539316225 0)" font-family="sans-serif">ORIGIN</text></g><g class="relationship" transform="translate(217.6993931183712 199.673058215894) rotate(403.2865513468552)"><path class="outline" fill="#A5ABB6" stroke="none" d="M 25 0.5 L 25.572050407180676 0.5 L 25.572050407180676 -0.5 L 25 -0.5 Z M 68.90798790718068 0.5 L 69.48003831436135 0.5 L 69.48003831436135 3.5 L 76.48003831436135 0 L 69.48003831436135 -3.5 L 69.48003831436135 -0.5 L 68.90798790718068 -0.5 Z"/><text text-anchor="middle" pointer-events="none" font-size="8px" fill="#000000" x="47.240019157180676" y="3" font-family="sans-serif">DESTIN…</text></g><g class="relationship" transform="translate(238.9170466573781 68.61591199893958) rotate(537.6612200046)"><path class="outline" fill="#A5ABB6" stroke="none" d="M 25 0.5 L 60.918233442484535 0.5 L 60.918233442484535 -0.5 L 25 -0.5 Z M 95.36354594248454 0.5 L 131.28177938496907 0.5 L 131.28177938496907 3.5 L 138.28177938496907 0 L 131.28177938496907 -3.5 L 131.28177938496907 -0.5 L 95.36354594248454 -0.5 Z"/><text text-anchor="middle" pointer-events="none" font-size="8px" fill="#000000" x="78.14088969248454" y="3" transform="rotate(180 78.14088969248454 0)" font-family="sans-serif">ORIGIN</text></g><g class="relationship" transform="translate(238.9170466573781 68.61591199893958) rotate(362.0278474042864)"><path class="outline" fill="#A5ABB6" stroke="none" d="M 25 0.5 L 43.82186813374199 0.5 L 43.82186813374199 -0.5 L 25 -0.5 Z M 103.00936813374199 0.5 L 121.83123626748397 0.5 L 121.83123626748397 3.5 L 128.83123626748397 0 L 121.83123626748397 -3.5 L 121.83123626748397 -0.5 L 103.00936813374199 -0.5 Z"/><text text-anchor="middle" pointer-events="none" font-size="8px" fill="#000000" x="73.41561813374199" y="3" font-family="sans-serif">DESTINATION</text></g><g class="relationship" transform="translate(223.35167314268722 -0.04268427155616783) rotate(512.9612256727847)"><path class="outline" fill="#A5ABB6" stroke="none" d="M 25 0.5 L 62.1226025510975 0.5 L 62.1226025510975 -0.5 L 25 -0.5 Z M 96.5679150510975 0.5 L 133.690517602195 0.5 L 133.690517602195 3.5 L 140.690517602195 0 L 133.690517602195 -3.5 L 133.690517602195 -0.5 L 96.5679150510975 -0.5 Z"/><text text-anchor="middle" pointer-events="none" font-size="8px" fill="#000000" x="79.3452588010975" y="3" transform="rotate(180 79.3452588010975 0)" font-family="sans-serif">ORIGIN</text></g><g class="relationship" transform="translate(223.35167314268722 -0.04268427155616783) rotate(289.8893883806107)"><path class="outline" fill="#A5ABB6" stroke="none" d="M 25 0.5 L 37.497534090393486 0.5 L 37.497534090393486 -0.5 L 25 -0.5 Z M 96.68503409039349 0.5 L 109.18256818078697 0.5 L 109.18256818078697 3.5 L 116.18256818078697 0 L 109.18256818078697 -3.5 L 109.18256818078697 -0.5 L 96.68503409039349 -0.5 Z"/><text text-anchor="middle" pointer-events="none" font-size="8px" fill="#000000" x="67.09128409039349" y="3" font-family="sans-serif">DESTINATION</text></g><g class="relationship" transform="translate(66.15101367378158 -85.94162958734225) rotate(446.58513040379637)"><path class="outline" fill="#A5ABB6" stroke="none" d="M 25 0.5 L 60.031108374768436 0.5 L 60.031108374768436 -0.5 L 25 -0.5 Z M 94.47642087476844 0.5 L 129.50752924953687 0.5 L 129.50752924953687 3.5 L 136.50752924953687 0 L 129.50752924953687 -3.5 L 129.50752924953687 -0.5 L 94.47642087476844 -0.5 Z"/><text text-anchor="middle" pointer-events="none" font-size="8px" fill="#000000" x="77.25376462476844" y="3" font-family="sans-serif">ORIGIN</text></g><g class="relationship" transform="translate(66.15101367378158 -85.94162958734225) rotate(245.31685726233968)"><path class="outline" fill="#A5ABB6" stroke="none" d="M 25 0.5 L 34.3609600955476 0.5 L 34.3609600955476 -0.5 L 25 -0.5 Z M 93.5484600955476 0.5 L 102.9094201910952 0.5 L 102.9094201910952 3.5 L 109.9094201910952 0 L 102.9094201910952 -3.5 L 102.9094201910952 -0.5 L 93.5484600955476 -0.5 Z"/><text text-anchor="middle" pointer-events="none" font-size="8px" fill="#000000" x="63.9547100955476" y="3" transform="rotate(180 63.9547100955476 0)" font-family="sans-serif">DESTINATION</text></g><g class="relationship" transform="translate(-109.41660166916861 22.995451951038273) rotate(375.76584499382335)"><path class="outline" fill="#A5ABB6" stroke="none" d="M 25 0.5 L 75.4908230402767 0.5 L 75.4908230402767 -0.5 L 25 -0.5 Z M 109.9361355402767 0.5 L 160.4269585805534 0.5 L 160.4269585805534 3.5 L 167.4269585805534 0 L 160.4269585805534 -3.5 L 160.4269585805534 -0.5 L 109.9361355402767 -0.5 Z"/><text text-anchor="middle" pointer-events="none" font-size="8px" fill="#000000" x="92.7134792902767" y="3" font-family="sans-serif">ORIGIN</text></g><g class="relationship" transform="translate(-109.41660166916861 22.995451951038273) rotate(502.287980663319)"><path class="outline" fill="#A5ABB6" stroke="none" d="M 25 0.5 L 25.129524396372823 0.5 L 25.129524396372823 -0.5 L 25 -0.5 Z M 78.09436814637283 0.5 L 78.22389254274565 0.5 L 78.22389254274565 3.5 L 85.22389254274565 0 L 78.22389254274565 -3.5 L 78.22389254274565 -0.5 L 78.09436814637283 -0.5 Z"/><text text-anchor="middle" pointer-events="none" font-size="8px" fill="#000000" x="51.61194627137282" y="3" transform="rotate(180 51.61194627137282 0)" font-family="sans-serif">DESTINAT…</text></g><g class="relationship" transform="translate(162.93596891423996 223.93190611889992) rotate(239.61416070946234)"><path class="outline" fill="#A5ABB6" stroke="none" d="M 25 0.5 L 65.43901091018331 0.5 L 65.43901091018331 -0.5 L 25 -0.5 Z M 99.88432341018331 0.5 L 140.32333432036663 0.5 L 140.32333432036663 3.5 L 147.32333432036663 0 L 140.32333432036663 -3.5 L 140.32333432036663 -0.5 L 99.88432341018331 -0.5 Z"/><text text-anchor="middle" pointer-events="none" font-size="8px" fill="#000000" x="82.66166716018331" y="3" transform="rotate(180 82.66166716018331 0)" font-family="sans-serif">ORIGIN</text></g><g class="relationship" transform="translate(162.93596891423996 223.93190611889992) rotate(379.4084984590584)"><path class="outline" fill="#A5ABB6" stroke="none" d="M 25 0.5 L 35.0984659355681 0.5 L 35.0984659355681 -0.5 L 25 -0.5 Z M 94.2859659355681 0.5 L 104.3844318711362 0.5 L 104.3844318711362 3.5 L 111.3844318711362 0 L 104.3844318711362 -3.5 L 104.3844318711362 -0.5 L 94.2859659355681 -0.5 Z"/><text text-anchor="middle" pointer-events="none" font-size="8px" fill="#000000" x="64.6922159355681" y="3" font-family="sans-serif">DESTINATION</text></g><g class="relationship" transform="translate(231.94079507920074 141.6266934471775) rotate(203.01788509392355)"><path class="outline" fill="#A5ABB6" stroke="none" d="M 25 0.5 L 64.11677566853464 0.5 L 64.11677566853464 -0.5 L 25 -0.5 Z M 98.56208816853464 0.5 L 137.6788638370693 0.5 L 137.6788638370693 3.5 L 144.6788638370693 0 L 137.6788638370693 -3.5 L 137.6788638370693 -0.5 L 98.56208816853464 -0.5 Z"/><text text-anchor="middle" pointer-events="none" font-size="8px" fill="#000000" x="81.33943191853464" y="3" transform="rotate(180 81.33943191853464 0)" font-family="sans-serif">ORIGIN</text></g><g class="relationship" transform="translate(231.94079507920074 141.6266934471775) rotate(424.957090454261)"><path class="outline" fill="#A5ABB6" stroke="none" d="M 25 0.5 L 37.34066722819394 0.5 L 37.34066722819394 -0.5 L 25 -0.5 Z M 96.52816722819394 0.5 L 108.86883445638787 0.5 L 108.86883445638787 3.5 L 115.86883445638787 0 L 108.86883445638787 -3.5 L 108.86883445638787 -0.5 L 96.52816722819394 -0.5 Z"/><text text-anchor="middle" pointer-events="none" font-size="8px" fill="#000000" x="66.93441722819394" y="3" font-family="sans-serif">DESTINATION</text></g><g class="relationship" transform="translate(155.63047450815588 -24.132073440496892) rotate(488.77567551650793)"><path class="outline" fill="#A5ABB6" stroke="none" d="M 25 0.5 L 43.034848651932435 0.5 L 43.034848651932435 -0.5 L 25 -0.5 Z M 77.48016115193244 0.5 L 95.51500980386487 0.5 L 95.51500980386487 3.5 L 102.51500980386487 0 L 95.51500980386487 -3.5 L 95.51500980386487 -0.5 L 77.48016115193244 -0.5 Z"/><text text-anchor="middle" pointer-events="none" font-size="8px" fill="#000000" x="60.257504901932435" y="3" transform="rotate(180 60.257504901932435 0)" font-family="sans-serif">ORIGIN</text></g><g class="relationship" transform="translate(155.63047450815588 -24.132073440496892) rotate(316.80705415926025)"><path class="outline" fill="#A5ABB6" stroke="none" d="M 25 0.5 L 46.291620920207805 0.5 L 46.291620920207805 -0.5 L 25 -0.5 Z M 105.4791209202078 0.5 L 126.77074184041561 0.5 L 126.77074184041561 3.5 L 133.7707418404156 0 L 126.77074184041561 -3.5 L 126.77074184041561 -0.5 L 105.4791209202078 -0.5 Z"/><text text-anchor="middle" pointer-events="none" font-size="8px" fill="#000000" x="75.8853709202078" y="3" font-family="sans-serif">DESTINATION</text></g><g class="relationship" transform="translate(-60.05114968835228 -10.183586001716566) rotate(392.17908201160367)"><path class="outline" fill="#A5ABB6" stroke="none" d="M 25 0.5 L 59.51388140157316 0.5 L 59.51388140157316 -0.5 L 25 -0.5 Z M 93.95919390157316 0.5 L 128.47307530314632 0.5 L 128.47307530314632 3.5 L 135.47307530314632 0 L 128.47307530314632 -3.5 L 128.47307530314632 -0.5 L 93.95919390157316 -0.5 Z"/><text text-anchor="middle" pointer-events="none" font-size="8px" fill="#000000" x="76.73653765157316" y="3" font-family="sans-serif">ORIGIN</text></g><g class="relationship" transform="translate(-60.05114968835228 -10.183586001716566) rotate(503.6219521715875)"><path class="outline" fill="#A5ABB6" stroke="none" d="M 25 0.5 L 51.71526062115976 0.5 L 51.71526062115976 -0.5 L 25 -0.5 Z M 110.90276062115976 0.5 L 137.61802124231951 0.5 L 137.61802124231951 3.5 L 144.61802124231951 0 L 137.61802124231951 -3.5 L 137.61802124231951 -0.5 L 110.90276062115976 -0.5 Z"/><text text-anchor="middle" pointer-events="none" font-size="8px" fill="#000000" x="81.30901062115976" y="3" transform="rotate(180 81.30901062115976 0)" font-family="sans-serif">DESTINATION</text></g><g class="relationship" transform="translate(147.79978255017656 -83.42199748224641) rotate(474.41152028560754)"><path class="outline" fill="#A5ABB6" stroke="none" d="M 25 0.5 L 66.4182528371043 0.5 L 66.4182528371043 -0.5 L 25 -0.5 Z M 100.8635653371043 0.5 L 142.2818181742086 0.5 L 142.2818181742086 3.5 L 149.2818181742086 0 L 142.2818181742086 -3.5 L 142.2818181742086 -0.5 L 100.8635653371043 -0.5 Z"/><text text-anchor="middle" pointer-events="none" font-size="8px" fill="#000000" x="83.6409090871043" y="3" transform="rotate(180 83.6409090871043 0)" font-family="sans-serif">ORIGIN</text></g><g class="relationship" transform="translate(147.79978255017656 -83.42199748224641) rotate(338.21909970526735)"><path class="outline" fill="#A5ABB6" stroke="none" d="M 25 0.5 L 33.44818852475045 0.5 L 33.44818852475045 -0.5 L 25 -0.5 Z M 92.63568852475045 0.5 L 101.0838770495009 0.5 L 101.0838770495009 3.5 L 108.0838770495009 0 L 101.0838770495009 -3.5 L 101.0838770495009 -0.5 L 92.63568852475045 -0.5 Z"/><text text-anchor="middle" pointer-events="none" font-size="8px" fill="#000000" x="63.04193852475045" y="3" font-family="sans-serif">DESTINATION</text></g><g class="relationship" transform="translate(-48.698208802431424 114.88625361299748) rotate(342.34853908000946)"><path class="outline" fill="#A5ABB6" stroke="none" d="M 25 0.5 L 44.58694908835594 0.5 L 44.58694908835594 -0.5 L 25 -0.5 Z M 79.03226158835594 0.5 L 98.61921067671187 0.5 L 98.61921067671187 3.5 L 105.61921067671187 0 L 98.61921067671187 -3.5 L 98.61921067671187 -0.5 L 79.03226158835594 -0.5 Z"/><text text-anchor="middle" pointer-events="none" font-size="8px" fill="#000000" x="61.80960533835594" y="3" font-family="sans-serif">ORIGIN</text></g><g class="relationship" transform="translate(-48.698208802431424 114.88625361299748) rotate(189.39256658980207)"><path class="outline" fill="#A5ABB6" stroke="none" d="M 25 0.5 L 41.86924752389909 0.5 L 41.86924752389909 -0.5 L 25 -0.5 Z M 101.05674752389909 0.5 L 117.92599504779818 0.5 L 117.92599504779818 3.5 L 124.92599504779818 0 L 117.92599504779818 -3.5 L 117.92599504779818 -0.5 L 101.05674752389909 -0.5 Z"/><text text-anchor="middle" pointer-events="none" font-size="8px" fill="#000000" x="71.46299752389909" y="3" transform="rotate(180 71.46299752389909 0)" font-family="sans-serif">DESTINATION</text></g><g class="relationship" transform="translate(7.47247442585027 -74.16893477426594) rotate(425.43926897011914)"><path class="outline" fill="#A5ABB6" stroke="none" d="M 25 0.5 L 61.434890843296785 0.5 L 61.434890843296785 -0.5 L 25 -0.5 Z M 95.88020334329678 0.5 L 132.31509418659357 0.5 L 132.31509418659357 3.5 L 139.31509418659357 0 L 132.31509418659357 -3.5 L 132.31509418659357 -0.5 L 95.88020334329678 -0.5 Z"/><text text-anchor="middle" pointer-events="none" font-size="8px" fill="#000000" x="78.65754709329678" y="3" font-family="sans-serif">ORIGIN</text></g><g class="relationship" transform="translate(7.47247442585027 -74.16893477426594) rotate(270.9979589380764)"><path class="outline" fill="#A5ABB6" stroke="none" d="M 25 0.5 L 34.094234875845075 0.5 L 34.094234875845075 -0.5 L 25 -0.5 Z M 93.28173487584507 0.5 L 102.37596975169015 0.5 L 102.37596975169015 3.5 L 109.37596975169015 0 L 102.37596975169015 -3.5 L 102.37596975169015 -0.5 L 93.28173487584507 -0.5 Z"/><text text-anchor="middle" pointer-events="none" font-size="8px" fill="#000000" x="63.687984875845075" y="3" font-family="sans-serif">DESTINATION</text></g><g class="relationship" transform="translate(-49.22467475507801 48.562668213009225) rotate(372.06478202881516)"><path class="outline" fill="#A5ABB6" stroke="none" d="M 25 0.5 L 43.186963527675886 0.5 L 43.186963527675886 -0.5 L 25 -0.5 Z M 77.63227602767589 0.5 L 95.81923955535177 0.5 L 95.81923955535177 3.5 L 102.81923955535177 0 L 95.81923955535177 -3.5 L 95.81923955535177 -0.5 L 77.63227602767589 -0.5 Z"/><text text-anchor="middle" pointer-events="none" font-size="8px" fill="#000000" x="60.409619777675886" y="3" font-family="sans-serif">ORIGIN</text></g><g class="relationship" transform="translate(-49.22467475507801 48.562668213009225) rotate(524.1464091424486)"><path class="outline" fill="#A5ABB6" stroke="none" d="M 25 0.5 L 43.51498555684951 0.5 L 43.51498555684951 -0.5 L 25 -0.5 Z M 102.70248555684951 0.5 L 121.21747111369902 0.5 L 121.21747111369902 3.5 L 128.21747111369902 0 L 121.21747111369902 -3.5 L 121.21747111369902 -0.5 L 102.70248555684951 -0.5 Z"/><text text-anchor="middle" pointer-events="none" font-size="8px" fill="#000000" x="73.10873555684951" y="3" transform="rotate(180 73.10873555684951 0)" font-family="sans-serif">DESTINATION</text></g><g class="relationship" transform="translate(-102.20053202524312 141.8511589219405) rotate(339.4912169109059)"><path class="outline" fill="#A5ABB6" stroke="none" d="M 25 0.5 L 74.28497688012675 0.5 L 74.28497688012675 -0.5 L 25 -0.5 Z M 108.73028938012675 0.5 L 158.0152662602535 0.5 L 158.0152662602535 3.5 L 165.0152662602535 0 L 158.0152662602535 -3.5 L 158.0152662602535 -0.5 L 108.73028938012675 -0.5 Z"/><text text-anchor="middle" pointer-events="none" font-size="8px" fill="#000000" x="91.50763313012675" y="3" font-family="sans-serif">ORIGIN</text></g><g class="relationship" transform="translate(-102.20053202524312 141.8511589219405) rotate(208.5796567082245)"><path class="outline" fill="#A5ABB6" stroke="none" d="M 25 0.5 L 25.921026243390656 0.5 L 25.921026243390656 -0.5 L 25 -0.5 Z M 74.59290124339066 0.5 L 75.51392748678131 0.5 L 75.51392748678131 3.5 L 82.51392748678131 0 L 75.51392748678131 -3.5 L 75.51392748678131 -0.5 L 74.59290124339066 -0.5 Z"/><text text-anchor="middle" pointer-events="none" font-size="8px" fill="#000000" x="50.256963743390656" y="3" transform="rotate(180 50.256963743390656 0)" font-family="sans-serif">DESTINA…</text></g><g class="relationship" transform="translate(-98.53987201784457 81.91814667816786) rotate(357.8188199259315)"><path class="outline" fill="#A5ABB6" stroke="none" d="M 25 0.5 L 66.4961124336908 0.5 L 66.4961124336908 -0.5 L 25 -0.5 Z M 100.9414249336908 0.5 L 142.4375373673816 0.5 L 142.4375373673816 3.5 L 149.4375373673816 0 L 142.4375373673816 -3.5 L 142.4375373673816 -0.5 L 100.9414249336908 -0.5 Z"/><text text-anchor="middle" pointer-events="none" font-size="8px" fill="#000000" x="83.7187686836908" y="3" font-family="sans-serif">ORIGIN</text></g><g class="relationship" transform="translate(-98.53987201784457 81.91814667816786) rotate(535.0463281009713)"><path class="outline" fill="#A5ABB6" stroke="none" d="M 25 0.5 L 26.941713953552245 0.5 L 26.941713953552245 -0.5 L 25 -0.5 Z M 64.50030770355224 0.5 L 66.44202165710449 0.5 L 66.44202165710449 3.5 L 73.44202165710449 0 L 66.44202165710449 -3.5 L 66.44202165710449 -0.5 L 64.50030770355224 -0.5 Z"/><text text-anchor="middle" pointer-events="none" font-size="8px" fill="#000000" x="45.721010828552245" y="3" transform="rotate(180 45.721010828552245 0)" font-family="sans-serif">DESTI…</text></g><g class="relationship" transform="translate(19.11154522062546 227.29260996805107) rotate(290.44185096899855)"><path class="outline" fill="#A5ABB6" stroke="none" d="M 25 0.5 L 60.39211504143637 0.5 L 60.39211504143637 -0.5 L 25 -0.5 Z M 94.83742754143637 0.5 L 130.22954258287274 0.5 L 130.22954258287274 3.5 L 137.22954258287274 0 L 130.22954258287274 -3.5 L 130.22954258287274 -0.5 L 94.83742754143637 -0.5 Z"/><text text-anchor="middle" pointer-events="none" font-size="8px" fill="#000000" x="77.61477129143637" y="3" font-family="sans-serif">ORIGIN</text></g><g class="relationship" transform="translate(19.11154522062546 227.29260996805107) rotate(474.9190514253353)"><path class="outline" fill="#A5ABB6" stroke="none" d="M 25 0.5 L 42.52477441685079 0.5 L 42.52477441685079 -0.5 L 25 -0.5 Z M 101.71227441685079 0.5 L 119.23704883370158 0.5 L 119.23704883370158 3.5 L 126.23704883370158 0 L 119.23704883370158 -3.5 L 119.23704883370158 -0.5 L 101.71227441685079 -0.5 Z"/><text text-anchor="middle" pointer-events="none" font-size="8px" fill="#000000" x="72.11852441685079" y="3" transform="rotate(180 72.11852441685079 0)" font-family="sans-serif">DESTINATION</text></g><g class="relationship" transform="translate(169.71058909919037 164.47092637623973) rotate(223.5149909329299)"><path class="outline" fill="#A5ABB6" stroke="none" d="M 25 0.5 L 44.04572092118583 0.5 L 44.04572092118583 -0.5 L 25 -0.5 Z M 78.49103342118583 0.5 L 97.53675434237167 0.5 L 97.53675434237167 3.5 L 104.53675434237167 0 L 97.53675434237167 -3.5 L 97.53675434237167 -0.5 L 78.49103342118583 -0.5 Z"/><text text-anchor="middle" pointer-events="none" font-size="8px" fill="#000000" x="61.26837717118583" y="3" transform="rotate(180 61.26837717118583 0)" font-family="sans-serif">ORIGIN</text></g><g class="relationship" transform="translate(169.71058909919037 164.47092637623973) rotate(400.69078954177655)"><path class="outline" fill="#A5ABB6" stroke="none" d="M 25 0.5 L 47.26318278961783 0.5 L 47.26318278961783 -0.5 L 25 -0.5 Z M 106.45068278961783 0.5 L 128.71386557923566 0.5 L 128.71386557923566 3.5 L 135.71386557923566 0 L 128.71386557923566 -3.5 L 128.71386557923566 -0.5 L 106.45068278961783 -0.5 Z"/><text text-anchor="middle" pointer-events="none" font-size="8px" fill="#000000" x="76.85693278961783" y="3" font-family="sans-serif">DESTINATION</text></g><g class="relationship" transform="translate(-52.627037252814986 174.71305655055383) rotate(322.2451656995959)"><path class="outline" fill="#A5ABB6" stroke="none" d="M 25 0.5 L 60.47653441025726 0.5 L 60.47653441025726 -0.5 L 25 -0.5 Z M 94.92184691025726 0.5 L 130.39838132051452 0.5 L 130.39838132051452 3.5 L 137.39838132051452 0 L 130.39838132051452 -3.5 L 130.39838132051452 -0.5 L 94.92184691025726 -0.5 Z"/><text text-anchor="middle" pointer-events="none" font-size="8px" fill="#000000" x="77.69919066025726" y="3" font-family="sans-serif">ORIGIN</text></g><g class="relationship" transform="translate(-52.627037252814986 174.71305655055383) rotate(210.34599123327303)"><path class="outline" fill="#A5ABB6" stroke="none" d="M 25 0.5 L 50.3296453843587 0.5 L 50.3296453843587 -0.5 L 25 -0.5 Z M 109.5171453843587 0.5 L 134.8467907687174 0.5 L 134.8467907687174 3.5 L 141.8467907687174 0 L 134.8467907687174 -3.5 L 134.8467907687174 -0.5 L 109.5171453843587 -0.5 Z"/><text text-anchor="middle" pointer-events="none" font-size="8px" fill="#000000" x="79.9233953843587" y="3" transform="rotate(180 79.9233953843587 0)" font-family="sans-serif">DESTINATION</text></g><g class="relationship" transform="translate(86.26169036151815 236.6216164073826) rotate(266.2798927638268)"><path class="outline" fill="#A5ABB6" stroke="none" d="M 25 0.5 L 60.11892876568305 0.5 L 60.11892876568305 -0.5 L 25 -0.5 Z M 94.56424126568305 0.5 L 129.6831700313661 0.5 L 129.6831700313661 3.5 L 136.6831700313661 0 L 129.6831700313661 -3.5 L 129.6831700313661 -0.5 L 94.56424126568305 -0.5 Z"/><text text-anchor="middle" pointer-events="none" font-size="8px" fill="#000000" x="77.34158501568305" y="3" transform="rotate(180 77.34158501568305 0)" font-family="sans-serif">ORIGIN</text></g><g class="relationship" transform="translate(86.26169036151815 236.6216164073826) rotate(441.77847793458193)"><path class="outline" fill="#A5ABB6" stroke="none" d="M 25 0.5 L 43.74354770962593 0.5 L 43.74354770962593 -0.5 L 25 -0.5 Z M 102.93104770962593 0.5 L 121.67459541925186 0.5 L 121.67459541925186 3.5 L 128.67459541925186 0 L 121.67459541925186 -3.5 L 121.67459541925186 -0.5 L 102.93104770962593 -0.5 Z"/><text text-anchor="middle" pointer-events="none" font-size="8px" fill="#000000" x="73.33729770962593" y="3" font-family="sans-serif">DESTINATION</text></g></g><g class="layer nodes"><g class="node" transform="translate(271.3827446275017,-132.80387487386736)"><circle class="outline" cx="0" cy="0" r="25" fill="#DA7194" stroke="#cc3c6c" stroke-width="2px"/><text text-anchor="middle" pointer-events="none" font-family="sans-serif" dy="1.5625" font-size="25" fill="#FFFFFF"/><text text-anchor="middle" pointer-events="none" x="0" y="5" font-size="10px" fill="#FFFFFF" font-family="sans-serif"> SMF</text></g><g class="node" transform="translate(291.5701344209783,269.25259368206065)"><circle class="outline" cx="0" cy="0" r="25" fill="#DA7194" stroke="#cc3c6c" stroke-width="2px"/><text text-anchor="middle" pointer-events="none" font-family="sans-serif" dy="1.5625" font-size="25" fill="#FFFFFF"/><text text-anchor="middle" pointer-events="none" x="0" y="5" font-size="10px" fill="#FFFFFF" font-family="sans-serif"> FAT</text></g><g class="node" transform="translate(392.6519456233398,74.05926496453131)"><circle class="outline" cx="0" cy="0" r="25" fill="#DA7194" stroke="#cc3c6c" stroke-width="2px"/><text text-anchor="middle" pointer-events="none" font-family="sans-serif" dy="1.5625" font-size="25" fill="#FFFFFF"/><text text-anchor="middle" pointer-events="none" x="0" y="5" font-size="10px" fill="#FFFFFF" font-family="sans-serif"> LAS</text></g><g class="node" transform="translate(9.81287228407087,-208.52452187272786)"><circle class="outline" cx="0" cy="0" r="25" fill="#DA7194" stroke="#cc3c6c" stroke-width="2px"/><text text-anchor="middle" pointer-events="none" font-family="sans-serif" dy="1.5625" font-size="25" fill="#FFFFFF"/><text text-anchor="middle" pointer-events="none" x="0" y="5" font-size="10px" fill="#FFFFFF" font-family="sans-serif"> TUS</text></g><g class="node" transform="translate(-196.61419742973396,90.41863624881357)"><circle class="outline" cx="0" cy="0" r="25" fill="#DA7194" stroke="#cc3c6c" stroke-width="2px"/><text text-anchor="middle" pointer-events="none" font-family="sans-serif" dy="1.5625" font-size="25" fill="#FFFFFF"/><text text-anchor="middle" pointer-events="none" x="0" y="5" font-size="10px" fill="#FFFFFF" font-family="sans-serif"> ABQ</text></g><g class="node" transform="translate(-44.610278415234625,364.45008928452063)"><circle class="outline" cx="0" cy="0" r="25" fill="#DA7194" stroke="#cc3c6c" stroke-width="2px"/><text text-anchor="middle" pointer-events="none" font-family="sans-serif" dy="1.5625" font-size="25" fill="#FFFFFF"/><text text-anchor="middle" pointer-events="none" x="0" y="5" font-size="10px" fill="#FFFFFF" font-family="sans-serif"> EWR</text></g><g class="node" transform="translate(108.23726725689525,388.71683427233097)"><circle class="outline" cx="0" cy="0" r="25" fill="#DA7194" stroke="#cc3c6c" stroke-width="2px"/><text text-anchor="middle" pointer-events="none" font-family="sans-serif" dy="1.5625" font-size="25" fill="#FFFFFF"/><text text-anchor="middle" pointer-events="none" x="0" y="5" font-size="10px" fill="#FFFFFF" font-family="sans-serif"> IAH</text></g><g class="node" transform="translate(75.77128042325015,75.27912736398544)"><circle class="outline" cx="0" cy="0" r="25" fill="#DA7194" stroke="#cc3c6c" stroke-width="2px"/><text text-anchor="middle" pointer-events="none" font-family="sans-serif" dy="1.5625" font-size="25" fill="#FFFFFF"/><text text-anchor="middle" pointer-events="none" x="0" y="5" font-size="10px" fill="#FFFFFF" font-family="sans-serif"> LAX</text></g><g class="node" transform="translate(205.2455517342405,-56.959386734241036)"><circle class="outline" cx="0" cy="0" r="25" fill="#569480" stroke="#447666" stroke-width="2px"/><text text-anchor="middle" pointer-events="none" font-family="sans-serif" dy="1.5625" font-size="25" fill="#FFFFFF"/><text text-anchor="middle" pointer-events="none" x="0" y="5" font-size="10px" fill="#FFFFFF" font-family="sans-serif"> 11/4/2015</text></g><g class="node" transform="translate(217.6993931183712,199.673058215894)"><circle class="outline" cx="0" cy="0" r="25" fill="#569480" stroke="#447666" stroke-width="2px"/><text text-anchor="middle" pointer-events="none" font-family="sans-serif" dy="1.5625" font-size="25" fill="#FFFFFF"/><text text-anchor="middle" pointer-events="none" x="0" y="5" font-size="10px" fill="#FFFFFF" font-family="sans-serif"> 11/4/2015</text></g><g class="node" transform="translate(238.9170466573781,68.61591199893958)"><circle class="outline" cx="0" cy="0" r="25" fill="#569480" stroke="#447666" stroke-width="2px"/><text text-anchor="middle" pointer-events="none" font-family="sans-serif" dy="1.5625" font-size="25" fill="#FFFFFF"/><text text-anchor="middle" pointer-events="none" x="0" y="5" font-size="10px" fill="#FFFFFF" font-family="sans-serif"> 11/29/20…</text></g><g class="node" transform="translate(223.35167314268722,-0.04268427155616783)"><circle class="outline" cx="0" cy="0" r="25" fill="#569480" stroke="#447666" stroke-width="2px"/><text text-anchor="middle" pointer-events="none" font-family="sans-serif" dy="1.5625" font-size="25" fill="#FFFFFF"/><text text-anchor="middle" pointer-events="none" x="0" y="5" font-size="10px" fill="#FFFFFF" font-family="sans-serif"> 11/2/2015</text></g><g class="node" transform="translate(66.15101367378158,-85.94162958734225)"><circle class="outline" cx="0" cy="0" r="25" fill="#569480" stroke="#447666" stroke-width="2px"/><text text-anchor="middle" pointer-events="none" font-family="sans-serif" dy="1.5625" font-size="25" fill="#FFFFFF"/><text text-anchor="middle" pointer-events="none" x="0" y="5" font-size="10px" fill="#FFFFFF" font-family="sans-serif"> 11/1/2015</text></g><g class="node" transform="translate(-109.41660166916861,22.995451951038273)"><circle class="outline" cx="0" cy="0" r="25" fill="#569480" stroke="#447666" stroke-width="2px"/><text text-anchor="middle" pointer-events="none" font-family="sans-serif" dy="1.5625" font-size="25" fill="#FFFFFF"/><text text-anchor="middle" pointer-events="none" x="0" y="5" font-size="10px" fill="#FFFFFF" font-family="sans-serif"> 11/2/2015</text></g><g class="node" transform="translate(162.93596891423996,223.93190611889992)"><circle class="outline" cx="0" cy="0" r="25" fill="#569480" stroke="#447666" stroke-width="2px"/><text text-anchor="middle" pointer-events="none" font-family="sans-serif" dy="1.5625" font-size="25" fill="#FFFFFF"/><text text-anchor="middle" pointer-events="none" x="0" y="5" font-size="10px" fill="#FFFFFF" font-family="sans-serif"> 11/3/2015</text></g><g class="node" transform="translate(231.94079507920074,141.6266934471775)"><circle class="outline" cx="0" cy="0" r="25" fill="#569480" stroke="#447666" stroke-width="2px"/><text text-anchor="middle" pointer-events="none" font-family="sans-serif" dy="1.5625" font-size="25" fill="#FFFFFF"/><text text-anchor="middle" pointer-events="none" x="0" y="5" font-size="10px" fill="#FFFFFF" font-family="sans-serif"> 11/1/2015</text></g><g class="node" transform="translate(155.63047450815588,-24.132073440496892)"><circle class="outline" cx="0" cy="0" r="25" fill="#569480" stroke="#447666" stroke-width="2px"/><text text-anchor="middle" pointer-events="none" font-family="sans-serif" dy="1.5625" font-size="25" fill="#FFFFFF"/><text text-anchor="middle" pointer-events="none" x="0" y="5" font-size="10px" fill="#FFFFFF" font-family="sans-serif"> 11/1/2015</text></g><g class="node" transform="translate(-60.05114968835228,-10.183586001716566)"><circle class="outline" cx="0" cy="0" r="25" fill="#569480" stroke="#447666" stroke-width="2px"/><text text-anchor="middle" pointer-events="none" font-family="sans-serif" dy="1.5625" font-size="25" fill="#FFFFFF"/><text text-anchor="middle" pointer-events="none" x="0" y="5" font-size="10px" fill="#FFFFFF" font-family="sans-serif"> 11/3/2015</text></g><g class="node" transform="translate(147.79978255017656,-83.42199748224641)"><circle class="outline" cx="0" cy="0" r="25" fill="#569480" stroke="#447666" stroke-width="2px"/><text text-anchor="middle" pointer-events="none" font-family="sans-serif" dy="1.5625" font-size="25" fill="#FFFFFF"/><text text-anchor="middle" pointer-events="none" x="0" y="5" font-size="10px" fill="#FFFFFF" font-family="sans-serif"> 11/3/2015</text></g><g class="node" transform="translate(-48.698208802431424,114.88625361299748)"><circle class="outline" cx="0" cy="0" r="25" fill="#569480" stroke="#447666" stroke-width="2px"/><text text-anchor="middle" pointer-events="none" font-family="sans-serif" dy="1.5625" font-size="25" fill="#FFFFFF"/><text text-anchor="middle" pointer-events="none" x="0" y="5" font-size="10px" fill="#FFFFFF" font-family="sans-serif"> 11/1/2015</text></g><g class="node" transform="translate(7.47247442585027,-74.16893477426594)"><circle class="outline" cx="0" cy="0" r="25" fill="#569480" stroke="#447666" stroke-width="2px"/><text text-anchor="middle" pointer-events="none" font-family="sans-serif" dy="1.5625" font-size="25" fill="#FFFFFF"/><text text-anchor="middle" pointer-events="none" x="0" y="5" font-size="10px" fill="#FFFFFF" font-family="sans-serif"> 11/2/2015</text></g><g class="node" transform="translate(-49.22467475507801,48.562668213009225)"><circle class="outline" cx="0" cy="0" r="25" fill="#569480" stroke="#447666" stroke-width="2px"/><text text-anchor="middle" pointer-events="none" font-family="sans-serif" dy="1.5625" font-size="25" fill="#FFFFFF"/><text text-anchor="middle" pointer-events="none" x="0" y="5" font-size="10px" fill="#FFFFFF" font-family="sans-serif"> 11/1/2015</text></g><g class="node" transform="translate(-102.20053202524312,141.8511589219405)"><circle class="outline" cx="0" cy="0" r="25" fill="#569480" stroke="#447666" stroke-width="2px"/><text text-anchor="middle" pointer-events="none" font-family="sans-serif" dy="1.5625" font-size="25" fill="#FFFFFF"/><text text-anchor="middle" pointer-events="none" x="0" y="5" font-size="10px" fill="#FFFFFF" font-family="sans-serif"> 11/2/2015</text></g><g class="node" transform="translate(-98.53987201784457,81.91814667816786)"><circle class="outline" cx="0" cy="0" r="25" fill="#569480" stroke="#447666" stroke-width="2px"/><text text-anchor="middle" pointer-events="none" font-family="sans-serif" dy="1.5625" font-size="25" fill="#FFFFFF"/><text text-anchor="middle" pointer-events="none" x="0" y="5" font-size="10px" fill="#FFFFFF" font-family="sans-serif"> 11/4/2015</text></g><g class="node" transform="translate(19.11154522062546,227.29260996805107)"><circle class="outline" cx="0" cy="0" r="25" fill="#569480" stroke="#447666" stroke-width="2px"/><text text-anchor="middle" pointer-events="none" font-family="sans-serif" dy="1.5625" font-size="25" fill="#FFFFFF"/><text text-anchor="middle" pointer-events="none" x="0" y="5" font-size="10px" fill="#FFFFFF" font-family="sans-serif"> 11/30/20…</text></g><g class="node" transform="translate(169.71058909919037,164.47092637623973)"><circle class="outline" cx="0" cy="0" r="25" fill="#569480" stroke="#447666" stroke-width="2px"/><text text-anchor="middle" pointer-events="none" font-family="sans-serif" dy="1.5625" font-size="25" fill="#FFFFFF"/><text text-anchor="middle" pointer-events="none" x="0" y="5" font-size="10px" fill="#FFFFFF" font-family="sans-serif"> 11/2/2015</text></g><g class="node" transform="translate(-52.627037252814986,174.71305655055383)"><circle class="outline" cx="0" cy="0" r="25" fill="#569480" stroke="#447666" stroke-width="2px"/><text text-anchor="middle" pointer-events="none" font-family="sans-serif" dy="1.5625" font-size="25" fill="#FFFFFF"/><text text-anchor="middle" pointer-events="none" x="0" y="5" font-size="10px" fill="#FFFFFF" font-family="sans-serif"> 11/3/2015</text></g><g class="node" transform="translate(86.26169036151815,236.6216164073826)"><circle class="outline" cx="0" cy="0" r="25" fill="#569480" stroke="#447666" stroke-width="2px"/><text text-anchor="middle" pointer-events="none" font-family="sans-serif" dy="1.5625" font-size="25" fill="#FFFFFF"/><text text-anchor="middle" pointer-events="none" x="0" y="5" font-size="10px" fill="#FFFFFF" font-family="sans-serif"> 11/30/20…</text></g></g></svg>