<svg xmlns="http://www.w3.org/2000/svg" width="816.4072265625" height="254.40098571777344" viewBox="-307.2554931640625 -35.925357818603516 816.4072265625 254.40098571777344"><title>Neo4j Graph Visualization</title><desc>Created using Neo4j (http://www.neo4j.com/)</desc><g class="layer relationships"><g class="relationship" transform="translate(336.9853321787147 136.5903052816912) rotate(359.89483328797087)"><path class="outline" fill="#A5ABB6" stroke="none" d="M 25 0.5 L 50.86064727876425 0.5 L 50.86064727876425 -0.5 L 25 -0.5 Z M 85.30595977876425 0.5 L 111.1666070575285 0.5 L 111.1666070575285 3.5 L 118.1666070575285 0 L 111.1666070575285 -3.5 L 111.1666070575285 -0.5 L 85.30595977876425 -0.5 Z"/><text text-anchor="middle" pointer-events="none" font-size="8px" fill="#000000" x="68.08330352876425" y="3" font-family="sans-serif">ORIGIN</text></g><g class="relationship" transform="translate(336.9853321787147 136.5903052816912) rotate(205.62456036030733)"><path class="outline" fill="#A5ABB6" stroke="none" d="M 25 0.5 L 25.60359926966475 0.5 L 25.60359926966475 -0.5 L 25 -0.5 Z M 80.79109926966476 0.5 L 81.3946985393295 0.5 L 81.3946985393295 3.5 L 88.3946985393295 0 L 81.3946985393295 -3.5 L 81.3946985393295 -0.5 L 80.79109926966476 -0.5 Z"/><text text-anchor="middle" pointer-events="none" font-size="8px" fill="#000000" x="53.19734926966475" y="3" transform="rotate(180 53.19734926966475 0)" font-family="sans-serif">DESTINATI…</text></g><g class="relationship" transform="translate(172.37724332896258 -6.925357786037971) rotate(416.57004436383653)"><path class="outline" fill="#A5ABB6" stroke="none" d="M 25 0.5 L 25.508294584577634 0.5 L 25.508294584577634 -0.5 L 25 -0.5 Z M 80.69579458457764 0.5 L 81.20408916915527 0.5 L 81.20408916915527 3.5 L 88.20408916915527 0 L 81.20408916915527 -3.5 L 81.20408916915527 -0.5 L 80.69579458457764 -0.5 Z"/><text text-anchor="middle" pointer-events="none" font-size="8px" fill="#000000" x="53.102044584577634" y="3" font-family="sans-serif">DESTINATI…</text></g><g class="relationship" transform="translate(172.37724332896258 -6.925357786037971) rotate(538.4604559521781)"><path class="outline" fill="#A5ABB6" stroke="none" d="M 25 0.5 L 33.382919604105865 0.5 L 33.382919604105865 -0.5 L 25 -0.5 Z M 67.82823210410587 0.5 L 76.21115170821173 0.5 L 76.21115170821173 3.5 L 83.21115170821173 0 L 76.21115170821173 -3.5 L 76.21115170821173 -0.5 L 67.82823210410587 -0.5 Z"/><text text-anchor="middle" pointer-events="none" font-size="8px" fill="#000000" x="50.605575854105865" y="3" transform="rotate(180 50.605575854105865 0)" font-family="sans-serif">ORIGIN</text></g><g class="relationship" transform="translate(60.18841473702628 108.18584995679535) rotate(272.05023111402795)"><path class="outline" fill="#A5ABB6" stroke="none" d="M 25 0.5 L 25.044142754341202 0.5 L 25.044142754341202 -0.5 L 25 -0.5 Z M 80.23164275434121 0.5 L 80.2757855086824 0.5 L 80.2757855086824 3.5 L 87.2757855086824 0 L 80.2757855086824 -3.5 L 80.2757855086824 -0.5 L 80.23164275434121 -0.5 Z"/><text text-anchor="middle" pointer-events="none" font-size="8px" fill="#000000" x="52.6378927543412" y="3" font-family="sans-serif">DESTINATI…</text></g><g class="relationship" transform="translate(60.18841473702628 108.18584995679535) rotate(490.7199060432386)"><path class="outline" fill="#A5ABB6" stroke="none" d="M 25 0.5 L 32.90510369113544 0.5 L 32.90510369113544 -0.5 L 25 -0.5 Z M 67.35041619113544 0.5 L 75.25551988227087 0.5 L 75.25551988227087 3.5 L 82.25551988227087 0 L 75.25551988227087 -3.5 L 75.25551988227087 -0.5 L 67.35041619113544 -0.5 Z"/><text text-anchor="middle" pointer-events="none" font-size="8px" fill="#000000" x="50.12775994113544" y="3" transform="rotate(180 50.12775994113544 0)" font-family="sans-serif">ORIGIN</text></g><g class="relationship" transform="translate(-126.91133508650475 150.17796030744688) rotate(378.54679865324977)"><path class="outline" fill="#A5ABB6" stroke="none" d="M 25 0.5 L 41.05077329239406 0.5 L 41.05077329239406 -0.5 L 25 -0.5 Z M 75.49608579239407 0.5 L 91.54685908478812 0.5 L 91.54685908478812 3.5 L 98.54685908478812 0 L 91.54685908478812 -3.5 L 91.54685908478812 -0.5 L 75.49608579239407 -0.5 Z"/><text text-anchor="middle" pointer-events="none" font-size="8px" fill="#000000" x="58.27342954239406" y="3" font-family="sans-serif">ORIGIN</text></g><g class="relationship" transform="translate(-126.91133508650475 150.17796030744688) rotate(189.63247971636633)"><path class="outline" fill="#A5ABB6" stroke="none" d="M 25 0.5 L 43.660463149964244 0.5 L 43.660463149964244 -0.5 L 25 -0.5 Z M 102.84796314996424 0.5 L 121.50842629992849 0.5 L 121.50842629992849 3.5 L 128.5084262999285 0 L 121.50842629992849 -3.5 L 121.50842629992849 -0.5 L 102.84796314996424 -0.5 Z"/><text text-anchor="middle" pointer-events="none" font-size="8px" fill="#000000" x="73.25421314996424" y="3" transform="rotate(180 73.25421314996424 0)" font-family="sans-serif">DESTINATION</text></g></g><g class="layer nodes"><g class="node" transform="translate(480.15169806643246,136.32752235055358)"><circle class="outline" cx="0" cy="0" r="25" fill="#DA7194" stroke="#cc3c6c" stroke-width="2px"/><text text-anchor="middle" pointer-events="none" font-family="sans-serif" dy="1.5625" font-size="25" fill="#FFFFFF"/><text text-anchor="middle" pointer-events="none" x="0" y="5" font-size="10px" fill="#FFFFFF" font-family="sans-serif"> LAX</text></g><g class="node" transform="translate(-278.2554984485616,124.49175464527036)"><circle class="outline" cx="0" cy="0" r="25" fill="#DA7194" stroke="#cc3c6c" stroke-width="2px"/><text text-anchor="middle" pointer-events="none" font-family="sans-serif" dy="1.5625" font-size="25" fill="#FFFFFF"/><text text-anchor="middle" pointer-events="none" x="0" y="5" font-size="10px" fill="#FFFFFF" font-family="sans-serif"> DAY</text></g><g class="node" transform="translate(336.9853321787147,136.5903052816912)"><circle class="outline" cx="0" cy="0" r="25" fill="#569480" stroke="#447666" stroke-width="2px"/><text text-anchor="middle" pointer-events="none" font-family="sans-serif" dy="1.5625" font-size="25" fill="#FFFFFF"/><text text-anchor="middle" pointer-events="none" x="0" y="5" font-size="10px" fill="#FFFFFF" font-family="sans-serif"> 11/29/20…</text></g><g class="node" transform="translate(234.74331679257722,87.55024057326897)"><circle class="outline" cx="0" cy="0" r="25" fill="#DA7194" stroke="#cc3c6c" stroke-width="2px"/><text text-anchor="middle" pointer-events="none" font-family="sans-serif" dy="1.5625" font-size="25" fill="#FFFFFF"/><text text-anchor="middle" pointer-events="none" x="0" y="5" font-size="10px" fill="#FFFFFF" font-family="sans-serif"> LAS</text></g><g class="node" transform="translate(172.37724332896258,-6.925357786037971)"><circle class="outline" cx="0" cy="0" r="25" fill="#569480" stroke="#447666" stroke-width="2px"/><text text-anchor="middle" pointer-events="none" font-family="sans-serif" dy="1.5625" font-size="25" fill="#FFFFFF"/><text text-anchor="middle" pointer-events="none" x="0" y="5" font-size="10px" fill="#FFFFFF" font-family="sans-serif"> 11/29/20…</text></g><g class="node" transform="translate(64.20515365590418,-4.018061829065433)"><circle class="outline" cx="0" cy="0" r="25" fill="#DA7194" stroke="#cc3c6c" stroke-width="2px"/><text text-anchor="middle" pointer-events="none" font-family="sans-serif" dy="1.5625" font-size="25" fill="#FFFFFF"/><text text-anchor="middle" pointer-events="none" x="0" y="5" font-size="10px" fill="#FFFFFF" font-family="sans-serif"> ORD</text></g><g class="node" transform="translate(60.18841473702628,108.18584995679535)"><circle class="outline" cx="0" cy="0" r="25" fill="#569480" stroke="#447666" stroke-width="2px"/><text text-anchor="middle" pointer-events="none" font-family="sans-serif" dy="1.5625" font-size="25" fill="#FFFFFF"/><text text-anchor="middle" pointer-events="none" x="0" y="5" font-size="10px" fill="#FFFFFF" font-family="sans-serif"> 11/29/20…</text></g><g class="node" transform="translate(-9.780984988010268,189.47563804444053)"><circle class="outline" cx="0" cy="0" r="25" fill="#DA7194" stroke="#cc3c6c" stroke-width="2px"/><text text-anchor="middle" pointer-events="none" font-family="sans-serif" dy="1.5625" font-size="25" fill="#FFFFFF"/><text text-anchor="middle" pointer-events="none" x="0" y="5" font-size="10px" fill="#FFFFFF" font-family="sans-serif"> MSP</text></g><g class="node" transform="translate(-126.91133508650475,150.17796030744688)"><circle class="outline" cx="0" cy="0" r="25" fill="#569480" stroke="#447666" stroke-width="2px"/><text text-anchor="middle" pointer-events="none" font-family="sans-serif" dy="1.5625" font-size="25" fill="#FFFFFF"/><text text-anchor="middle" pointer-events="none" x="0" y="5" font-size="10px" fill="#FFFFFF" font-family="sans-serif"> 11/25/20…</text></g></g></svg>