<svg xmlns="http://www.w3.org/2000/svg" width="539.3984375" height="84.89397430419922" viewBox="-203.8758544921875 64.49068450927734 539.3984375 84.89397430419922"><title>Neo4j Graph Visualization</title><desc>Created using Neo4j (http://www.neo4j.com/)</desc><g class="layer relationships"><g class="relationship" transform="translate(306.5226188551276 107.77141140694823) rotate(180.46993913844176)"><path class="outline" fill="#A5ABB6" stroke="none" d="M 21.40063509461097,12.933012701892217 L 21.90063509461097,12.06698729810778 A 158.18257416169527 158.18257416169527 0 0 0 88.73062726084524,32.78350951509681 L 88.6531136979285,33.78050081273382 A 159.18257416169527 159.18257416169527 0 0 1 21.40063509461097,12.933012701892217 Z M 108.03528786996857,34.10353323855445 L 107.99104077991112,33.104512620638346 A 158.18257416169527 158.18257416169527 0 0 0 175.47426719408196,14.62651764175408 L 174.06167774647656,11.979898845532407 L 181.88514262653345,11.771578730045078 L 177.35771979088918,18.155342703382978 L 175.94513034328378,15.508723907161304 A 159.18257416169527 159.18257416169527 0 0 1 108.03528786996857,34.10353323855445"/><text text-anchor="middle" pointer-events="none" font-size="8px" fill="#000000" x="98.34761103309141" y="36.73739966350378" transform="rotate(180 98.34761103309141 33.73739966350378)" font-family="sans-serif">trek</text></g><g class="relationship" transform="translate(102.58917934817427 106.09871483514279) rotate(538.1036776775065)"><path class="outline" fill="#A5ABB6" stroke="none" d="M 25 0.5 L 53.98146192413128 0.5 L 53.98146192413128 -0.5 L 25 -0.5 Z M 73.31739942413128 0.5 L 102.29886134826256 0.5 L 102.29886134826256 3.5 L 109.29886134826256 0 L 102.29886134826256 -3.5 L 102.29886134826256 -0.5 L 73.31739942413128 -0.5 Z"/><text text-anchor="middle" pointer-events="none" font-size="8px" fill="#000000" x="63.64943067413128" y="3" transform="rotate(180 63.64943067413128 0)" font-family="sans-serif">trek</text></g><g class="relationship" transform="translate(-31.636132158789014 110.54280195158421) rotate(180.42288107562922)"><path class="outline" fill="#A5ABB6" stroke="none" d="M 25 0.5 L 58.453839606654896 0.5 L 58.453839606654896 -0.5 L 25 -0.5 Z M 77.7897771066549 0.5 L 111.24361671330979 0.5 L 111.24361671330979 3.5 L 118.24361671330979 0 L 111.24361671330979 -3.5 L 111.24361671330979 -0.5 L 77.7897771066549 -0.5 Z"/><text text-anchor="middle" pointer-events="none" font-size="8px" fill="#000000" x="68.1218083566549" y="3" transform="rotate(180 68.1218083566549 0)" font-family="sans-serif">trek</text></g><g class="relationship" transform="translate(306.5226188551276 107.77141140694823) rotate(180.46993913844176)"><path class="outline" fill="#A5ABB6" stroke="none" d="M 25 0.5 L 87.46429025585705 0.5 L 87.46429025585705 -0.5 L 25 -0.5 Z M 109.47600900585705 0.5 L 171.9402992617141 0.5 L 171.9402992617141 3.5 L 178.9402992617141 0 L 171.9402992617141 -3.5 L 171.9402992617141 -0.5 L 109.47600900585705 -0.5 Z"/><text text-anchor="middle" pointer-events="none" font-size="8px" fill="#000000" x="98.47014963085705" y="3" transform="rotate(180 98.47014963085705 0)" font-family="sans-serif">road</text></g><g class="relationship" transform="translate(306.5226188551276 107.77141140694823) rotate(180.46993913844176)"><path class="outline" fill="#A5ABB6" stroke="none" d="M 21.40063509461097,-12.933012701892217 L 21.90063509461097,-12.06698729810778 A 158.18257416169527 158.18257416169527 0 0 1 67.83746541135145,-29.745889392236464 L 67.62786927258702,-30.723677436045065 A 159.18257416169527 159.18257416169527 0 0 0 21.40063509461097,-12.933012701892217 Z M 129.1507197387063,-31.74904618224791 L 128.9738235067441,-30.764816674908488 A 158.18257416169527 158.18257416169527 0 0 1 175.47426719408196,-14.62651764175408 L 174.06167774647656,-11.979898845532407 L 181.88514262653345,-11.771578730045078 L 177.35771979088918,-18.155342703382978 L 175.94513034328378,-15.508723907161304 A 159.18257416169527 159.18257416169527 0 0 0 129.1507197387063,-31.74904618224791"/><text text-anchor="middle" pointer-events="none" font-size="8px" fill="#000000" x="98.34761103309137" y="-30.73739966350378" transform="rotate(180 98.34761103309137 -33.73739966350378)" font-family="sans-serif">PublicTransport</text></g></g><g class="layer nodes"><g class="node" transform="translate(306.5226188551276,107.77141140694823)"><circle class="outline" cx="0" cy="0" r="25" fill="#ECB5C9" stroke="#da7298" stroke-width="2px"/><text text-anchor="middle" pointer-events="none" font-family="sans-serif" dy="1.5625" font-size="25" fill="#2A2C34"/><text text-anchor="middle" pointer-events="none" x="0" y="5" font-size="10px" fill="#2A2C34" font-family="sans-serif"> Darjeeling</text></g><g class="node" transform="translate(-174.87584734572738,109.4855780990427)"><circle class="outline" cx="0" cy="0" r="25" fill="#FFC454" stroke="#d7a013" stroke-width="2px"/><text text-anchor="middle" pointer-events="none" font-family="sans-serif" dy="1.5625" font-size="25" fill="#2A2C34"/><text text-anchor="middle" pointer-events="none" x="0" y="5" font-size="10px" fill="#2A2C34" font-family="sans-serif"> Sandak…</text></g><g class="node" transform="translate(102.58917934817427,106.09871483514279)"><circle class="outline" cx="0" cy="0" r="25" fill="#ECB5C9" stroke="#da7298" stroke-width="2px"/><text text-anchor="middle" pointer-events="none" font-family="sans-serif" dy="1.5625" font-size="25" fill="#2A2C34"/><text text-anchor="middle" pointer-events="none" x="0" y="5" font-size="10px" fill="#2A2C34" font-family="sans-serif"> Rimbik</text></g><g class="node" transform="translate(-31.636132158789014,110.54280195158421)"><circle class="outline" cx="0" cy="0" r="25" fill="#4C8EDA" stroke="#2870c2" stroke-width="2px"/><text text-anchor="middle" pointer-events="none" font-family="sans-serif" dy="1.5625" font-size="25" fill="#FFFFFF"/><text text-anchor="middle" pointer-events="none" x="0" y="5" font-size="10px" fill="#FFFFFF" font-family="sans-serif"> BhikeBh…</text></g></g></svg>