<svg xmlns="http://www.w3.org/2000/svg" width="473.7917785644531" height="157.73095703125" viewBox="-153.83322143554688 25.02310562133789 473.7917785644531 157.73095703125"><title>Neo4j Graph Visualization</title><desc>Created using Neo4j (http://www.neo4j.com/)</desc><g class="layer relationships"><g class="relationship" transform="translate(177.39419797019852 54.02310624329075) rotate(361.67434926814525)"><path class="outline" fill="#A5ABB6" stroke="none" d="M 25 0.5 L 36.08377018608919 0.5 L 36.08377018608919 -0.5 L 25 -0.5 Z M 70.5290826860892 0.5 L 81.61285287217838 0.5 L 81.61285287217838 3.5 L 88.61285287217838 0 L 81.61285287217838 -3.5 L 81.61285287217838 -0.5 L 70.5290826860892 -0.5 Z"/><text text-anchor="middle" pointer-events="none" font-size="8px" fill="#000000" x="53.30642643608919" y="3" font-family="sans-serif">ORIGIN</text></g><g class="relationship" transform="translate(177.39419797019852 54.02310624329075) rotate(522.6275888476918)"><path class="outline" fill="#A5ABB6" stroke="none" d="M 25 0.5 L 26.4404619162106 0.5 L 26.4404619162106 -0.5 L 25 -0.5 Z M 69.77639941621061 0.5 L 71.2168613324212 0.5 L 71.2168613324212 3.5 L 78.2168613324212 0 L 71.2168613324212 -3.5 L 71.2168613324212 -0.5 L 69.77639941621061 -0.5 Z"/><text text-anchor="middle" pointer-events="none" font-size="8px" fill="#000000" x="48.1084306662106" y="3" transform="rotate(180 48.1084306662106 0)" font-family="sans-serif">DESTIN…</text></g><g class="relationship" transform="translate(-4.0116471504657705 150.24358717612915) rotate(321.7283120729533)"><path class="outline" fill="#A5ABB6" stroke="none" d="M 25 0.5 L 32.0726226080115 0.5 L 32.0726226080115 -0.5 L 25 -0.5 Z M 66.5179351080115 0.5 L 73.590557716023 0.5 L 73.590557716023 3.5 L 80.590557716023 0 L 73.590557716023 -3.5 L 73.590557716023 -0.5 L 66.5179351080115 -0.5 Z"/><text text-anchor="middle" pointer-events="none" font-size="8px" fill="#000000" x="49.2952788580115" y="3" font-family="sans-serif">ORIGIN</text></g><g class="relationship" transform="translate(-4.0116471504657705 150.24358717612915) rotate(538.3357400559732)"><path class="outline" fill="#A5ABB6" stroke="none" d="M 25 0.5 L 27.342525790759467 0.5 L 27.342525790759467 -0.5 L 25 -0.5 Z M 86.53002579075947 0.5 L 88.87255158151893 0.5 L 88.87255158151893 3.5 L 95.87255158151893 0 L 88.87255158151893 -3.5 L 88.87255158151893 -0.5 L 86.53002579075947 -0.5 Z"/><text text-anchor="middle" pointer-events="none" font-size="8px" fill="#000000" x="56.93627579075947" y="3" transform="rotate(180 56.93627579075947 0)" font-family="sans-serif">DESTINATION</text></g></g><g class="layer nodes"><g class="node" transform="translate(290.9585428376293,57.3427316116869)"><circle class="outline" cx="0" cy="0" r="25" fill="#DA7194" stroke="#cc3c6c" stroke-width="2px"/><text text-anchor="middle" pointer-events="none" font-family="sans-serif" dy="1.5625" font-size="25" fill="#FFFFFF"/><text text-anchor="middle" pointer-events="none" x="0" y="5" font-size="10px" fill="#FFFFFF" font-family="sans-serif"> MSN</text></g><g class="node" transform="translate(-124.83321117363909,153.75405620763917)"><circle class="outline" cx="0" cy="0" r="25" fill="#DA7194" stroke="#cc3c6c" stroke-width="2px"/><text text-anchor="middle" pointer-events="none" font-family="sans-serif" dy="1.5625" font-size="25" fill="#FFFFFF"/><text text-anchor="middle" pointer-events="none" x="0" y="5" font-size="10px" fill="#FFFFFF" font-family="sans-serif"> GRR</text></g><g class="node" transform="translate(177.39419797019852,54.02310624329075)"><circle class="outline" cx="0" cy="0" r="25" fill="#569480" stroke="#447666" stroke-width="2px"/><text text-anchor="middle" pointer-events="none" font-family="sans-serif" dy="1.5625" font-size="25" fill="#FFFFFF"/><text text-anchor="middle" pointer-events="none" x="0" y="5" font-size="10px" fill="#FFFFFF" font-family="sans-serif"> 11/30/20…</text></g><g class="node" transform="translate(78.88565521781472,84.84172834289215)"><circle class="outline" cx="0" cy="0" r="25" fill="#DA7194" stroke="#cc3c6c" stroke-width="2px"/><text text-anchor="middle" pointer-events="none" font-family="sans-serif" dy="1.5625" font-size="25" fill="#FFFFFF"/><text text-anchor="middle" pointer-events="none" x="0" y="5" font-size="10px" fill="#FFFFFF" font-family="sans-serif"> ORD</text></g><g class="node" transform="translate(-4.0116471504657705,150.24358717612915)"><circle class="outline" cx="0" cy="0" r="25" fill="#569480" stroke="#447666" stroke-width="2px"/><text text-anchor="middle" pointer-events="none" font-family="sans-serif" dy="1.5625" font-size="25" fill="#FFFFFF"/><text text-anchor="middle" pointer-events="none" x="0" y="5" font-size="10px" fill="#FFFFFF" font-family="sans-serif"> 11/17/20…</text></g></g></svg>