<svg xmlns="http://www.w3.org/2000/svg" width="902.4480590820312" height="277.28265380859375" viewBox="-354.9588623046875 -53.153167724609375 902.4480590820312 277.28265380859375"><title>Neo4j Graph Visualization</title><desc>Created using Neo4j (http://www.neo4j.com/)</desc><g class="layer relationships"><g class="relationship" transform="translate(358.60438695217067 154.03251730645883) rotate(365.7981624742931)"><path class="outline" fill="#A5ABB6" stroke="none" d="M 25 0.5 L 59.6308283791965 0.5 L 59.6308283791965 -0.5 L 25 -0.5 Z M 94.0761408791965 0.5 L 128.706969258393 0.5 L 128.706969258393 3.5 L 135.706969258393 0 L 128.706969258393 -3.5 L 128.706969258393 -0.5 L 94.0761408791965 -0.5 Z"/><text text-anchor="middle" pointer-events="none" font-size="8px" fill="#000000" x="76.8534846291965" y="3" font-family="sans-serif">ORIGIN</text></g><g class="relationship" transform="translate(358.60438695217067 154.03251730645883) rotate(187.61415075991647)"><path class="outline" fill="#A5ABB6" stroke="none" d="M 25 0.5 L 26.050209109503243 0.5 L 26.050209109503243 -0.5 L 25 -0.5 Z M 85.23770910950324 0.5 L 86.28791821900649 0.5 L 86.28791821900649 3.5 L 93.28791821900649 0 L 86.28791821900649 -3.5 L 86.28791821900649 -0.5 L 85.23770910950324 -0.5 Z"/><text text-anchor="middle" pointer-events="none" font-size="8px" fill="#000000" x="55.64395910950324" y="3" transform="rotate(180 55.64395910950324 0)" font-family="sans-serif">DESTINATION</text></g><g class="relationship" transform="translate(178.1411684578496 48.6116334601054) rotate(414.8391088568508)"><path class="outline" fill="#A5ABB6" stroke="none" d="M 25 0.5 L 34.166275510080226 0.5 L 34.166275510080226 -0.5 L 25 -0.5 Z M 68.61158801008023 0.5 L 77.77786352016045 0.5 L 77.77786352016045 3.5 L 84.77786352016045 0 L 77.77786352016045 -3.5 L 77.77786352016045 -0.5 L 68.61158801008023 -0.5 Z"/><text text-anchor="middle" pointer-events="none" font-size="8px" fill="#000000" x="51.388931760080226" y="3" font-family="sans-serif">ORIGIN</text></g><g class="relationship" transform="translate(178.1411684578496 48.6116334601054) rotate(221.83904776312284)"><path class="outline" fill="#A5ABB6" stroke="none" d="M 25 0.5 L 26.707090616960585 0.5 L 26.707090616960585 -0.5 L 25 -0.5 Z M 75.37896561696058 0.5 L 77.08605623392117 0.5 L 77.08605623392117 3.5 L 84.08605623392117 0 L 77.08605623392117 -3.5 L 77.08605623392117 -0.5 L 75.37896561696058 -0.5 Z"/><text text-anchor="middle" pointer-events="none" font-size="8px" fill="#000000" x="51.043028116960585" y="3" transform="rotate(180 51.043028116960585 0)" font-family="sans-serif">DESTINA…</text></g><g class="relationship" transform="translate(18.25562698994022 52.79052197531476) rotate(315.61522032442343)"><path class="outline" fill="#A5ABB6" stroke="none" d="M 25 0.5 L 25.01872486863566 0.5 L 25.01872486863566 -0.5 L 25 -0.5 Z M 77.98356861863566 0.5 L 78.00229348727132 0.5 L 78.00229348727132 3.5 L 85.00229348727132 0 L 78.00229348727132 -3.5 L 78.00229348727132 -0.5 L 77.98356861863566 -0.5 Z"/><text text-anchor="middle" pointer-events="none" font-size="8px" fill="#000000" x="51.50114674363566" y="3" font-family="sans-serif">DESTINAT…</text></g><g class="relationship" transform="translate(18.25562698994022 52.79052197531476) rotate(485.313332129075)"><path class="outline" fill="#A5ABB6" stroke="none" d="M 25 0.5 L 35.3278324300689 0.5 L 35.3278324300689 -0.5 L 25 -0.5 Z M 69.7731449300689 0.5 L 80.1009773601378 0.5 L 80.1009773601378 3.5 L 87.1009773601378 0 L 80.1009773601378 -3.5 L 80.1009773601378 -0.5 L 69.7731449300689 -0.5 Z"/><text text-anchor="middle" pointer-events="none" font-size="8px" fill="#000000" x="52.5504886800689" y="3" transform="rotate(180 52.5504886800689 0)" font-family="sans-serif">ORIGIN</text></g><g class="relationship" transform="translate(-164.03083286276024 167.56305335424452) rotate(348.7836798253845)"><path class="outline" fill="#A5ABB6" stroke="none" d="M 25 0.5 L 39.16458689536048 0.5 L 39.16458689536048 -0.5 L 25 -0.5 Z M 73.60989939536049 0.5 L 87.77448629072096 0.5 L 87.77448629072096 3.5 L 94.77448629072096 0 L 87.77448629072096 -3.5 L 87.77448629072096 -0.5 L 73.60989939536049 -0.5 Z"/><text text-anchor="middle" pointer-events="none" font-size="8px" fill="#000000" x="56.38724314536048" y="3" font-family="sans-serif">ORIGIN</text></g><g class="relationship" transform="translate(-164.03083286276024 167.56305335424452) rotate(530.3386599847684)"><path class="outline" fill="#A5ABB6" stroke="none" d="M 25 0.5 L 49.035108463390856 0.5 L 49.035108463390856 -0.5 L 25 -0.5 Z M 108.22260846339086 0.5 L 132.2577169267817 0.5 L 132.2577169267817 3.5 L 139.2577169267817 0 L 132.2577169267817 -3.5 L 132.2577169267817 -0.5 L 108.22260846339086 -0.5 Z"/><text text-anchor="middle" pointer-events="none" font-size="8px" fill="#000000" x="78.62885846339086" y="3" transform="rotate(180 78.62885846339086 0)" font-family="sans-serif">DESTINATION</text></g></g><g class="layer nodes"><g class="node" transform="translate(518.4891712049234,170.26784091483745)"><circle class="outline" cx="0" cy="0" r="25" fill="#DA7194" stroke="#cc3c6c" stroke-width="2px"/><text text-anchor="middle" pointer-events="none" font-family="sans-serif" dy="1.5625" font-size="25" fill="#FFFFFF"/><text text-anchor="middle" pointer-events="none" x="0" y="5" font-size="10px" fill="#FFFFFF" font-family="sans-serif"> LAX</text></g><g class="node" transform="translate(-325.95887140388385,195.1294804753485)"><circle class="outline" cx="0" cy="0" r="25" fill="#DA7194" stroke="#cc3c6c" stroke-width="2px"/><text text-anchor="middle" pointer-events="none" font-family="sans-serif" dy="1.5625" font-size="25" fill="#FFFFFF"/><text text-anchor="middle" pointer-events="none" x="0" y="5" font-size="10px" fill="#FFFFFF" font-family="sans-serif"> DAY</text></g><g class="node" transform="translate(358.60438695217067,154.03251730645883)"><circle class="outline" cx="0" cy="0" r="25" fill="#569480" stroke="#447666" stroke-width="2px"/><text text-anchor="middle" pointer-events="none" font-family="sans-serif" dy="1.5625" font-size="25" fill="#FFFFFF"/><text text-anchor="middle" pointer-events="none" x="0" y="5" font-size="10px" fill="#FFFFFF" font-family="sans-serif"> 11/29/20…</text></g><g class="node" transform="translate(241.35943156136926,138.35922690541813)"><circle class="outline" cx="0" cy="0" r="25" fill="#DA7194" stroke="#cc3c6c" stroke-width="2px"/><text text-anchor="middle" pointer-events="none" font-family="sans-serif" dy="1.5625" font-size="25" fill="#FFFFFF"/><text text-anchor="middle" pointer-events="none" x="0" y="5" font-size="10px" fill="#FFFFFF" font-family="sans-serif"> LAS</text></g><g class="node" transform="translate(178.1411684578496,48.6116334601054)"><circle class="outline" cx="0" cy="0" r="25" fill="#569480" stroke="#447666" stroke-width="2px"/><text text-anchor="middle" pointer-events="none" font-family="sans-serif" dy="1.5625" font-size="25" fill="#FFFFFF"/><text text-anchor="middle" pointer-events="none" x="0" y="5" font-size="10px" fill="#FFFFFF" font-family="sans-serif"> 11/29/20…</text></g><g class="node" transform="translate(96.86970284664024,-24.15316944676864)"><circle class="outline" cx="0" cy="0" r="25" fill="#DA7194" stroke="#cc3c6c" stroke-width="2px"/><text text-anchor="middle" pointer-events="none" font-family="sans-serif" dy="1.5625" font-size="25" fill="#FFFFFF"/><text text-anchor="middle" pointer-events="none" x="0" y="5" font-size="10px" fill="#FFFFFF" font-family="sans-serif"> DEN</text></g><g class="node" transform="translate(18.25562698994022,52.79052197531476)"><circle class="outline" cx="0" cy="0" r="25" fill="#569480" stroke="#447666" stroke-width="2px"/><text text-anchor="middle" pointer-events="none" font-family="sans-serif" dy="1.5625" font-size="25" fill="#FFFFFF"/><text text-anchor="middle" pointer-events="none" x="0" y="5" font-size="10px" fill="#FFFFFF" font-family="sans-serif"> 11/29/20…</text></g><g class="node" transform="translate(-46.544064449844974,144.2652677492537)"><circle class="outline" cx="0" cy="0" r="25" fill="#DA7194" stroke="#cc3c6c" stroke-width="2px"/><text text-anchor="middle" pointer-events="none" font-family="sans-serif" dy="1.5625" font-size="25" fill="#FFFFFF"/><text text-anchor="middle" pointer-events="none" x="0" y="5" font-size="10px" fill="#FFFFFF" font-family="sans-serif"> MSP</text></g><g class="node" transform="translate(-164.03083286276024,167.56305335424452)"><circle class="outline" cx="0" cy="0" r="25" fill="#569480" stroke="#447666" stroke-width="2px"/><text text-anchor="middle" pointer-events="none" font-family="sans-serif" dy="1.5625" font-size="25" fill="#FFFFFF"/><text text-anchor="middle" pointer-events="none" x="0" y="5" font-size="10px" fill="#FFFFFF" font-family="sans-serif"> 11/23/20…</text></g></g></svg>