<svg xmlns="http://www.w3.org/2000/svg" width="384.3224792480469" height="355.06280517578125" viewBox="-73.36853790283203 -78.06338500976562 384.3224792480469 355.06280517578125"><title>Neo4j Graph Visualization</title><desc>Created using Neo4j (http://www.neo4j.com/)</desc><g class="layer relationships"><g class="relationship" transform="translate(24.376500466234095 -43.45265630460656) rotate(388.23142584542506)"><path class="outline" fill="#A5ABB6" stroke="none" d="M 24.018736134675446,-6.953439040707552 L 24.277555179777966,-5.987513214418485 A 169.05794193010658 169.05794193010658 0 0 1 56.30086322187218,-11.34044530980978 L 56.23146626292834,-12.33803443469506 A 170.05794193010658 170.05794193010658 0 0 0 24.018736134675446,-6.953439040707552 Z M 75.61241766369004,-12.579031726275701 L 75.5678478700036,-11.580025453277017 A 169.05794193010658 169.05794193010658 0 0 1 107.7143585293726,-7.025029031346306 L 107.01019661069765,-4.108840424227758 L 114.63615893242837,-5.868015988957862 L 108.65324108760586,-10.913280507504371 L 107.94907916893091,-7.997091900385823 A 170.05794193010658 170.05794193010658 0 0 0 75.61241766369004,-12.579031726275701"/><text text-anchor="middle" pointer-events="none" font-size="8px" fill="#000000" x="65.92472259041271" y="-9.23491563481329" font-family="sans-serif">trek</text></g><g class="relationship" transform="translate(146.78677288143885 22.269624603362423) rotate(378.7818420748191)"><path class="outline" fill="#A5ABB6" stroke="none" d="M 21.40063509461097,-12.933012701892217 L 21.90063509461097,-12.06698729810778 A 96.17348549816633 96.17348549816633 0 0 1 58.138348474612606,-24.2190716925399 L 58.01514373364159,-25.21145296594355 A 97.17348549816633 97.17348549816633 0 0 0 21.40063509461097,-12.933012701892217 Z M 77.41334333724649,-25.66763079661237 L 77.33692366931463,-24.670555055079575 A 96.17348549816633 96.17348549816633 0 0 1 114.1058115775627,-14.235330662128654 L 112.72959753565685,-11.56961595292567 L 120.55518157268732,-11.468450349215486 L 115.94076363343719,-17.789616941065965 L 114.56454959153133,-15.123902231862981 A 97.17348549816633 97.17348549816633 0 0 0 77.41334333724649,-25.66763079661237"/><text text-anchor="middle" pointer-events="none" font-size="8px" fill="#000000" x="67.7145838448199" y="-22.42507079400447" font-family="sans-serif">trek</text></g><g class="relationship" transform="translate(281.9539612008817 68.23649309480915) rotate(192.36229970132877)"><path class="outline" fill="#A5ABB6" stroke="none" d="M 21.40063509461097,12.933012701892217 L 21.90063509461097,12.06698729810778 A 35.61914602037386 35.61914602037386 0 0 0 28.965043089522737,15.179657459732212 L 28.66337485162818,16.133070420754663 A 36.61914602037386 36.61914602037386 0 0 1 21.40063509461097,12.933012701892217 Z M 48.019171288152876,16.883931285709913 L 47.792269132140504,15.910013726777464 A 35.61914602037386 35.61914602037386 0 0 0 55.07658115352152,13.353967125323575 L 53.78235812190245,10.647495853644024 L 61.607384626043654,10.785191930158984 L 56.802211862346965,16.962595487562975 L 55.50798883072789,14.256124215883425 A 36.61914602037386 36.61914602037386 0 0 1 48.019171288152876,16.883931285709913"/><text text-anchor="middle" pointer-events="none" font-size="8px" fill="#000000" x="38.310107104767205" y="20.31190146289228" transform="rotate(180 38.310107104767205 17.31190146289228)" font-family="sans-serif">trek</text></g><g class="relationship" transform="translate(199.74406722315945 50.21817599180965) rotate(465.72345629522107)"><path class="outline" fill="#A5ABB6" stroke="none" d="M 25 0.5 L 54.126812018902655 0.5 L 54.126812018902655 -0.5 L 25 -0.5 Z M 73.46274951890265 0.5 L 102.58956153780531 0.5 L 102.58956153780531 3.5 L 109.58956153780531 0 L 102.58956153780531 -3.5 L 102.58956153780531 -0.5 L 73.46274951890265 -0.5 Z"/><text text-anchor="middle" pointer-events="none" font-size="8px" fill="#000000" x="63.794780768902655" y="3" transform="rotate(180 63.794780768902655 0)" font-family="sans-serif">trek</text></g><g class="relationship" transform="translate(24.376500466234095 -43.45265630460656) rotate(388.23142584542506)"><path class="outline" fill="#A5ABB6" stroke="none" d="M 24.018736134675446,6.953439040707552 L 24.277555179777966,5.987513214418485 A 169.05794193010658 169.05794193010658 0 0 0 54.970512827454364,11.242624508455833 L 54.8932466706531,12.239635010413139 A 170.05794193010658 170.05794193010658 0 0 1 24.018736134675446,6.953439040707552 Z M 76.95267024706547,12.51393843472988 L 76.900219300825,11.515314932984381 A 169.05794193010658 169.05794193010658 0 0 0 107.7143585293726,7.025029031346306 L 107.01019661069765,4.108840424227758 L 114.63615893242837,5.868015988957862 L 108.65324108760586,10.913280507504371 L 107.94907916893091,7.997091900385823 A 170.05794193010658 170.05794193010658 0 0 1 76.95267024706547,12.51393843472988"/><text text-anchor="middle" pointer-events="none" font-size="8px" fill="#000000" x="65.9247225904128" y="15.23491563481329" font-family="sans-serif">road</text></g><g class="relationship" transform="translate(146.78677288143885 22.269624603362423) rotate(378.7818420748191)"><path class="outline" fill="#A5ABB6" stroke="none" d="M 25 0.5 L 56.87887603302276 0.5 L 56.87887603302276 -0.5 L 25 -0.5 Z M 78.89059478302276 0.5 L 110.76947081604553 0.5 L 110.76947081604553 3.5 L 117.76947081604553 0 L 110.76947081604553 -3.5 L 110.76947081604553 -0.5 L 78.89059478302276 -0.5 Z"/><text text-anchor="middle" pointer-events="none" font-size="8px" fill="#000000" x="67.88473540802276" y="3" font-family="sans-serif">road</text></g><g class="relationship" transform="translate(146.78677288143885 22.269624603362423) rotate(378.7818420748191)"><path class="outline" fill="#A5ABB6" stroke="none" d="M 21.40063509461097,12.933012701892217 L 21.90063509461097,12.06698729810778 A 96.17348549816633 96.17348549816633 0 0 0 44.907205683055,21.62400713359591 L 44.64642515679324,22.589405246874904 A 97.17348549816633 97.17348549816633 0 0 1 21.40063509461097,12.933012701892217 Z M 90.89053821674875,23.676905097787568 L 90.67542644767005,22.7003156616355 A 96.17348549816633 96.17348549816633 0 0 0 114.1058115775627,14.235330662128654 L 112.72959753565685,11.56961595292567 L 120.55518157268732,11.468450349215486 L 115.94076363343719,17.789616941065965 L 114.56454959153133,15.123902231862981 A 97.17348549816633 97.17348549816633 0 0 1 90.89053821674875,23.676905097787568"/><text text-anchor="middle" pointer-events="none" font-size="8px" fill="#000000" x="67.71458384481991" y="28.42507079400447" font-family="sans-serif">twowheeler</text></g><g class="relationship" transform="translate(281.9539612008817 68.23649309480915) rotate(192.36229970132877)"><path class="outline" fill="#A5ABB6" stroke="none" d="M 25 0.5 L 27.574796570019956 0.5 L 27.574796570019956 -0.5 L 25 -0.5 Z M 49.586515320019956 0.5 L 52.16131189003991 0.5 L 52.16131189003991 3.5 L 59.16131189003991 0 L 52.16131189003991 -3.5 L 52.16131189003991 -0.5 L 49.586515320019956 -0.5 Z"/><text text-anchor="middle" pointer-events="none" font-size="8px" fill="#000000" x="38.580655945019956" y="3" transform="rotate(180 38.580655945019956 0)" font-family="sans-serif">road</text></g><g class="relationship" transform="translate(281.9539612008817 68.23649309480915) rotate(192.36229970132877)"><path class="outline" fill="#A5ABB6" stroke="none" d="M 21.40063509461097,-12.933012701892217 L 21.90063509461097,-12.06698729810778 A 35.61914602037386 35.61914602037386 0 0 1 23.10780026872174,-12.73313122545925 L 22.64169117597202,-13.617858479281601 A 36.61914602037386 36.61914602037386 0 0 0 21.40063509461097,-12.933012701892217 Z M 54.2176083737969,-14.842769093353503 L 53.82143855976226,-13.924591834624152 A 35.61914602037386 35.61914602037386 0 0 1 55.07658115352152,-13.353967125323575 L 53.78235812190245,-10.647495853644024 L 61.607384626043654,-10.785191930158984 L 56.802211862346965,-16.962595487562975 L 55.50798883072789,-14.256124215883425 A 36.61914602037386 36.61914602037386 0 0 0 54.2176083737969,-14.842769093353503"/><text text-anchor="middle" pointer-events="none" font-size="8px" fill="#000000" x="38.3101071047672" y="-14.311901462892273" transform="rotate(180 38.3101071047672 -17.311901462892273)" font-family="sans-serif">twow…</text></g><g class="relationship" transform="translate(24.376500466234095 -43.45265630460656) rotate(356.2241166908318)"><path class="outline" fill="#A5ABB6" stroke="none" d="M 21.40063509461097,12.933012701892217 L 21.90063509461097,12.06698729810778 A 36.71527735287202 36.71527735287202 0 0 0 22.041610795045013,12.147964021462688 L 21.54545049640636,13.016194957363275 A 37.71527735287202 37.71527735287202 0 0 1 21.40063509461097,12.933012701892217 Z M 56.40815749244304,14.35322115890338 L 55.9799521376131,13.449539702805623 A 36.71527735287202 36.71527735287202 0 0 0 56.126715734136916,13.379598123086843 L 54.83010763741105,10.674268671152216 L 62.65525247143869,10.805067472715585 L 57.85552652977141,16.98670405899968 L 56.55891843304554,14.281374607065054 A 37.71527735287202 37.71527735287202 0 0 1 56.40815749244304,14.35322115890338"/><text text-anchor="middle" pointer-events="none" font-size="8px" fill="#000000" x="38.83207215635982" y="20.4585635425222" font-family="sans-serif">Public…</text></g><g class="relationship" transform="translate(109.39122004837402 -49.06338685979731) rotate(407.6957142953929)"><path class="outline" fill="#A5ABB6" stroke="none" d="M 25 0.5 L 53.95219534926251 0.5 L 53.95219534926251 -0.5 L 25 -0.5 Z M 73.28813284926251 0.5 L 102.24032819852502 0.5 L 102.24032819852502 3.5 L 109.24032819852502 0 L 102.24032819852502 -3.5 L 102.24032819852502 -0.5 L 73.28813284926251 -0.5 Z"/><text text-anchor="middle" pointer-events="none" font-size="8px" fill="#000000" x="63.62016409926251" y="3" font-family="sans-serif">trek</text></g><g class="relationship" transform="translate(24.376500466234095 -43.45265630460656) rotate(356.2241166908318)"><path class="outline" fill="#A5ABB6" stroke="none" d="M 25 0.5 L 28.093972910446965 0.5 L 28.093972910446965 -0.5 L 25 -0.5 Z M 50.105691660446965 0.5 L 53.19966457089393 0.5 L 53.19966457089393 3.5 L 60.19966457089393 0 L 53.19966457089393 -3.5 L 53.19966457089393 -0.5 L 50.105691660446965 -0.5 Z"/><text text-anchor="middle" pointer-events="none" font-size="8px" fill="#000000" x="39.099832285446965" y="3" font-family="sans-serif">road</text></g><g class="relationship" transform="translate(24.376500466234095 -43.45265630460656) rotate(356.2241166908318)"><path class="outline" fill="#A5ABB6" stroke="none" d="M 21.40063509461097,-12.933012701892217 L 21.90063509461097,-12.06698729810778 A 36.71527735287202 36.71527735287202 0 0 1 29.4742215538409,-15.366433396554065 L 29.180500438416384,-16.322324554769146 A 37.71527735287202 37.71527735287202 0 0 0 21.40063509461097,-12.933012701892217 Z M 48.54231847802039,-17.064873262514233 L 48.32267155273158,-16.089293830478496 A 36.71527735287202 36.71527735287202 0 0 1 56.126715734136916,-13.379598123086843 L 54.83010763741105,-10.674268671152216 L 62.65525247143869,-10.805067472715585 L 57.85552652977141,-16.98670405899968 L 56.55891843304554,-14.281374607065054 A 37.71527735287202 37.71527735287202 0 0 0 48.54231847802039,-17.064873262514233"/><text text-anchor="middle" pointer-events="none" font-size="8px" fill="#000000" x="38.832072156359814" y="-14.4585635425222" font-family="sans-serif">trek</text></g><g class="relationship" transform="translate(109.39122004837402 -49.06338685979731) rotate(493.50301595278023)"><path class="outline" fill="#A5ABB6" stroke="none" d="M 24.018736134675446,-6.953439040707552 L 24.277555179777966,-5.987513214418485 A 179.75991077534047 179.75991077534047 0 0 1 59.01532556597277,-11.725791849966129 L 58.9497518904099,-12.72363958037053 A 180.75991077534047 180.75991077534047 0 0 0 24.018736134675446,-6.953439040707552 Z M 78.3286359669786,-12.955950559388924 L 78.28700177773645,-11.956817638158668 A 179.75991077534047 179.75991077534047 0 0 1 113.15234875879976,-7.052930099354948 L 112.44558096599593,-4.137371956039127 L 120.07311239200399,-5.889731606698638 L 114.09470581587155,-10.940340957109376 L 113.38793802306772,-8.024782813793555 A 180.75991077534047 180.75991077534047 0 0 0 78.3286359669786,-12.955950559388924"/><text text-anchor="middle" pointer-events="none" font-size="8px" fill="#000000" x="68.64207175925608" y="-9.599732610991168" transform="rotate(180 68.64207175925608 -12.599732610991168)" font-family="sans-serif">trek</text></g><g class="relationship" transform="translate(10.008349898501594 55.653266602488934) rotate(426.7403148943332)"><path class="outline" fill="#A5ABB6" stroke="none" d="M 24.018736134675446,-6.953439040707552 L 24.277555179777966,-5.987513214418485 A 115.77834247757494 115.77834247757494 0 0 1 42.869787470796425,-9.372580796577807 L 42.771553142085224,-10.367744108131575 A 116.77834247757494 116.77834247757494 0 0 0 24.018736134675446,-6.953439040707552 Z M 62.166014256572595,-10.663493010675921 L 62.09816932175758,-9.66579713275523 A 115.77834247757494 115.77834247757494 0 0 1 80.78497163849143,-6.8492028640885 L 80.09723222590856,-3.9290976433164504 L 87.71317372239001,-5.731161771523834 L 81.70195752193524,-10.742676491784568 L 81.01421810935237,-7.822571271012517 A 116.77834247757494 116.77834247757494 0 0 0 62.166014256572595,-10.663493010675921"/><text text-anchor="middle" pointer-events="none" font-size="8px" fill="#000000" x="52.47025632587213" y="-7.419047454717187" font-family="sans-serif">trek</text></g><g class="relationship" transform="translate(54.25576772804207 158.5939400665841) rotate(370.9934944108704)"><path class="outline" fill="#A5ABB6" stroke="none" d="M 24.018736134675446,6.953439040707552 L 24.277555179777966,5.987513214418485 A 113.79617756683788 113.79617756683788 0 0 0 42.37363450231624,9.296930596863831 L 42.27383731286357,10.291938396319367 A 114.79617756683788 114.79617756683788 0 0 1 24.018736134675446,6.953439040707552 Z M 61.66891812738148,10.590192470867805 L 61.599762994329986,9.592586552895867 A 113.79617756683788 113.79617756683788 0 0 0 79.78904490415799,6.841158948245853 L 79.10205684531282,3.920876871629941 L 86.71753442606932,5.724900490376436 L 80.70502898261823,10.734868383733735 L 80.01804092377306,7.814586307117824 A 114.79617756683788 114.79617756683788 0 0 1 61.66891812738148,10.590192470867805"/><text text-anchor="middle" pointer-events="none" font-size="8px" fill="#000000" x="51.9727548551771" y="13.351512103210965" font-family="sans-serif">trek</text></g><g class="relationship" transform="translate(109.39122004837402 -49.06338685979731) rotate(493.50301595278023)"><path class="outline" fill="#A5ABB6" stroke="none" d="M 24.018736134675446,6.953439040707552 L 24.277555179777966,5.987513214418485 A 179.75991077534047 179.75991077534047 0 0 0 45.56370285285719,10.332016864418733 L 45.423298128173876,11.32211105856723 A 180.75991077534047 180.75991077534047 0 0 1 24.018736134675446,6.953439040707552 Z M 91.88480033326647,11.87908415471071 L 91.76817072989661,10.88590867393313 A 179.75991077534047 179.75991077534047 0 0 0 113.15234875879976,7.052930099354948 L 112.44558096599593,4.137371956039127 L 120.07311239200399,5.889731606698638 L 114.09470581587155,10.940340957109376 L 113.38793802306772,8.024782813793555 A 180.75991077534047 180.75991077534047 0 0 1 91.88480033326647,11.87908415471071"/><text text-anchor="middle" pointer-events="none" font-size="8px" fill="#000000" x="68.64207175925611" y="15.599732610991168" transform="rotate(180 68.64207175925611 12.599732610991168)" font-family="sans-serif">twowheeler</text></g><g class="relationship" transform="translate(10.008349898501594 55.653266602488934) rotate(426.7403148943332)"><path class="outline" fill="#A5ABB6" stroke="none" d="M 24.018736134675446,6.953439040707552 L 24.277555179777966,5.987513214418485 A 115.77834247757494 115.77834247757494 0 0 0 29.536749860716313,7.265742920038932 L 29.323355500130734,8.242709064217053 A 116.77834247757494 116.77834247757494 0 0 1 24.018736134675446,6.953439040707552 Z M 75.67275382052992,8.949497647098056 L 75.48924754580035,7.966479108547091 A 115.77834247757494 115.77834247757494 0 0 0 80.78497163849143,6.8492028640885 L 80.09723222590856,3.9290976433164504 L 87.71317372239001,5.731161771523834 L 81.70195752193524,10.742676491784568 L 81.01421810935237,7.822571271012517 A 116.77834247757494 116.77834247757494 0 0 1 75.67275382052992,8.949497647098056"/><text text-anchor="middle" pointer-events="none" font-size="8px" fill="#000000" x="52.47025632587215" y="13.419047454717187" font-family="sans-serif">twowheeler</text></g><g class="relationship" transform="translate(54.25576772804207 158.5939400665841) rotate(370.9934944108704)"><path class="outline" fill="#A5ABB6" stroke="none" d="M 24.018736134675446,-6.953439040707552 L 24.277555179777966,-5.987513214418485 A 113.79617756683788 113.79617756683788 0 0 1 29.047344016582727,-7.155875192194102 L 28.830440165283648,-8.132068164557467 A 114.79617756683788 114.79617756683788 0 0 0 24.018736134675446,-6.953439040707552 Z M 75.1723711489139,-8.844706068492599 L 74.98558620180634,-7.86230524218287 A 113.79617756683788 113.79617756683788 0 0 1 79.78904490415799,-6.841158948245853 L 79.10205684531282,-3.920876871629941 L 86.71753442606932,-5.724900490376436 L 80.70502898261823,-10.734868383733735 L 80.01804092377306,-7.814586307117824 A 114.79617756683788 114.79617756683788 0 0 0 75.1723711489139,-8.844706068492599"/><text text-anchor="middle" pointer-events="none" font-size="8px" fill="#000000" x="51.97275485517707" y="-7.351512103210965" font-family="sans-serif">twowheeler</text></g><g class="relationship" transform="translate(109.39122004837402 -49.06338685979731) rotate(422.3347149281246)"><path class="outline" fill="#A5ABB6" stroke="none" d="M 25 0.5 L 27.102448109320633 0.5 L 27.102448109320633 -0.5 L 25 -0.5 Z M 46.43838560932063 0.5 L 48.54083371864127 0.5 L 48.54083371864127 3.5 L 55.54083371864127 0 L 48.54083371864127 -3.5 L 48.54083371864127 -0.5 L 46.43838560932063 -0.5 Z"/><text text-anchor="middle" pointer-events="none" font-size="8px" fill="#000000" x="36.77041685932063" y="3" font-family="sans-serif">trek</text></g><g class="relationship" transform="translate(10.008349898501594 55.653266602488934) rotate(475.48496704273737)"><path class="outline" fill="#A5ABB6" stroke="none" d="M 24.018736134675446,-6.953439040707552 L 24.277555179777966,-5.987513214418485 A 144.24159652662485 144.24159652662485 0 0 1 50.025248814973644,-10.436457436697566 L 49.94493371225118,-11.433226960847804 A 145.24159652662485 145.24159652662485 0 0 0 24.018736134675446,-6.953439040707552 Z M 69.33144661364744,-11.697035893613076 L 69.27828402564622,-10.698450023876774 A 144.24159652662485 144.24159652662485 0 0 1 95.13750262227613,-6.951765383216911 L 94.44018348606096,-4.033932964747999 L 102.0619981214061,-5.810992801793016 L 96.06726147056301,-10.842208607842126 L 95.36994233434784,-7.9243761893732145 A 145.24159652662485 145.24159652662485 0 0 0 69.33144661364744,-11.697035893613076"/><text text-anchor="middle" pointer-events="none" font-size="8px" fill="#000000" x="59.64058656559896" y="-8.389027114168158" transform="rotate(180 59.64058656559896 -11.389027114168158)" font-family="sans-serif">trek</text></g><g class="relationship" transform="translate(-44.36853651589789 169.73380026448623) rotate(353.55561312350403)"><path class="outline" fill="#A5ABB6" stroke="none" d="M 21.40063509461097,12.933012701892217 L 21.90063509461097,12.06698729810778 A 51.430085027919105 51.430085027919105 0 0 0 36.42249554331414,17.724501186990345 L 36.2048567418387,18.70053056774296 A 52.430085027919105 52.430085027919105 0 0 1 21.40063509461097,12.933012701892217 Z M 55.60367851103858,19.345232294089868 L 55.45132321925878,18.356906505158555 A 51.430085027919105 51.430085027919105 0 0 0 70.3167696766963,13.67605231862744 L 68.99257827846301,10.984116743461318 L 76.81865125178946,11.034928318610776 L 72.08235820767402,17.26529975218227 L 70.75816680944074,14.573364177016147 A 52.430085027919105 52.430085027919105 0 0 1 55.60367851103858,19.345232294089868"/><text text-anchor="middle" pointer-events="none" font-size="8px" fill="#000000" x="45.890782039819605" y="22.42865743644709" font-family="sans-serif">trek</text></g><g class="relationship" transform="translate(10.008349898501594 55.653266602488934) rotate(475.48496704273737)"><path class="outline" fill="#A5ABB6" stroke="none" d="M 24.018736134675446,6.953439040707552 L 24.277555179777966,5.987513214418485 A 144.24159652662485 144.24159652662485 0 0 0 36.62186962941391,8.721486445466269 L 36.44863140667393,9.706366396618648 A 145.24159652662485 145.24159652662485 0 0 1 24.018736134675446,6.953439040707552 Z M 82.86974056954469,10.33805830162109 L 82.72336574565747,9.348829101217063 A 144.24159652662485 144.24159652662485 0 0 0 95.13750262227613,6.951765383216911 L 94.44018348606096,4.033932964747999 L 102.0619981214061,5.810992801793016 L 96.06726147056301,10.842208607842126 L 95.36994233434784,7.9243761893732145 A 145.24159652662485 145.24159652662485 0 0 1 82.86974056954469,10.33805830162109"/><text text-anchor="middle" pointer-events="none" font-size="8px" fill="#000000" x="59.64058656559897" y="14.389027114168158" transform="rotate(180 59.64058656559897 11.389027114168158)" font-family="sans-serif">twowheeler</text></g><g class="relationship" transform="translate(-44.36853651589789 169.73380026448623) rotate(353.55561312350403)"><path class="outline" fill="#A5ABB6" stroke="none" d="M 25 0.5 L 35.11986448075357 0.5 L 35.11986448075357 -0.5 L 25 -0.5 Z M 57.13158323075357 0.5 L 67.25144771150714 0.5 L 67.25144771150714 3.5 L 74.25144771150714 0 L 67.25144771150714 -3.5 L 67.25144771150714 -0.5 L 57.13158323075357 -0.5 Z"/><text text-anchor="middle" pointer-events="none" font-size="8px" fill="#000000" x="46.12572385575357" y="3" font-family="sans-serif">road</text></g><g class="relationship" transform="translate(-44.36853651589789 169.73380026448623) rotate(353.55561312350403)"><path class="outline" fill="#A5ABB6" stroke="none" d="M 21.40063509461097,-12.933012701892217 L 21.90063509461097,-12.06698729810778 A 51.430085027919105 51.430085027919105 0 0 1 23.838937151080607,-13.131177184536782 L 23.37662524853208,-14.017894560458764 A 52.430085027919105 52.430085027919105 0 0 0 21.40063509461097,-12.933012701892217 Z M 68.71450630140122,-15.524656699492581 L 68.31208794404787,-14.60920082089163 A 51.430085027919105 51.430085027919105 0 0 1 70.3167696766963,-13.67605231862744 L 68.99257827846301,-10.984116743461318 L 76.81865125178946,-11.034928318610776 L 72.08235820767402,-17.26529975218227 L 70.75816680944074,-14.573364177016147 A 52.430085027919105 52.430085027919105 0 0 0 68.71450630140122,-15.524656699492581"/><text text-anchor="middle" pointer-events="none" font-size="8px" fill="#000000" x="45.890782039819584" y="-16.42865743644709" font-family="sans-serif">twowheeler</text></g><g class="relationship" transform="translate(-44.36853651589789 169.73380026448623) rotate(397.77335045202017)"><path class="outline" fill="#A5ABB6" stroke="none" d="M 25 0.5 L 50.718217393732914 0.5 L 50.718217393732914 -0.5 L 25 -0.5 Z M 70.05415489373291 0.5 L 95.77237228746583 0.5 L 95.77237228746583 3.5 L 102.77237228746583 0 L 95.77237228746583 -3.5 L 95.77237228746583 -0.5 L 70.05415489373291 -0.5 Z"/><text text-anchor="middle" pointer-events="none" font-size="8px" fill="#000000" x="60.386186143732914" y="3" font-family="sans-serif">trek</text></g><g class="relationship" transform="translate(56.6278579036598 247.99942128812535) rotate(327.3898004695276)"><path class="outline" fill="#A5ABB6" stroke="none" d="M 25 0.5 L 50.13253191191865 0.5 L 50.13253191191865 -0.5 L 25 -0.5 Z M 69.46846941191865 0.5 L 94.6010013238373 0.5 L 94.6010013238373 3.5 L 101.6010013238373 0 L 94.6010013238373 -3.5 L 94.6010013238373 -0.5 L 69.46846941191865 -0.5 Z"/><text text-anchor="middle" pointer-events="none" font-size="8px" fill="#000000" x="59.80050066191865" y="3" font-family="sans-serif">trek</text></g></g><g class="layer nodes"><g class="node" transform="translate(24.376500466234095,-43.45265630460656)"><circle class="outline" cx="0" cy="0" r="25" fill="#ECB5C9" stroke="#da7298" stroke-width="2px"/><text text-anchor="middle" pointer-events="none" font-family="sans-serif" dy="1.5625" font-size="25" fill="#2A2C34"/><text text-anchor="middle" pointer-events="none" x="0" y="5" font-size="10px" fill="#2A2C34" font-family="sans-serif"> Darjeeling</text></g><g class="node" transform="translate(163.27103100499556,179.77151521534023)"><circle class="outline" cx="0" cy="0" r="25" fill="#FFC454" stroke="#d7a013" stroke-width="2px"/><text text-anchor="middle" pointer-events="none" font-family="sans-serif" dy="1.5625" font-size="25" fill="#2A2C34"/><text text-anchor="middle" pointer-events="none" x="0" y="5" font-size="10px" fill="#2A2C34" font-family="sans-serif"> Sandak…</text></g><g class="node" transform="translate(146.78677288143885,22.269624603362423)"><circle class="outline" cx="0" cy="0" r="25" fill="#4C8EDA" stroke="#2870c2" stroke-width="2px"/><text text-anchor="middle" pointer-events="none" font-family="sans-serif" dy="1.5625" font-size="25" fill="#FFFFFF"/><text text-anchor="middle" pointer-events="none" x="0" y="5" font-size="10px" fill="#FFFFFF" font-family="sans-serif"> Tumbling</text></g><g class="node" transform="translate(281.9539612008817,68.23649309480915)"><circle class="outline" cx="0" cy="0" r="25" fill="#4C8EDA" stroke="#2870c2" stroke-width="2px"/><text text-anchor="middle" pointer-events="none" font-family="sans-serif" dy="1.5625" font-size="25" fill="#FFFFFF"/><text text-anchor="middle" pointer-events="none" x="0" y="5" font-size="10px" fill="#FFFFFF" font-family="sans-serif"> Gairibus</text></g><g class="node" transform="translate(199.74406722315945,50.21817599180965)"><circle class="outline" cx="0" cy="0" r="25" fill="#4C8EDA" stroke="#2870c2" stroke-width="2px"/><text text-anchor="middle" pointer-events="none" font-family="sans-serif" dy="1.5625" font-size="25" fill="#FFFFFF"/><text text-anchor="middle" pointer-events="none" x="0" y="5" font-size="10px" fill="#FFFFFF" font-family="sans-serif"> BhikeBh…</text></g><g class="node" transform="translate(109.39122004837402,-49.06338685979731)"><circle class="outline" cx="0" cy="0" r="25" fill="#ECB5C9" stroke="#da7298" stroke-width="2px"/><text text-anchor="middle" pointer-events="none" font-family="sans-serif" dy="1.5625" font-size="25" fill="#2A2C34"/><text text-anchor="middle" pointer-events="none" x="0" y="5" font-size="10px" fill="#2A2C34" font-family="sans-serif"> Rimbik</text></g><g class="node" transform="translate(10.008349898501594,55.653266602488934)"><circle class="outline" cx="0" cy="0" r="25" fill="#4C8EDA" stroke="#2870c2" stroke-width="2px"/><text text-anchor="middle" pointer-events="none" font-family="sans-serif" dy="1.5625" font-size="25" fill="#FFFFFF"/><text text-anchor="middle" pointer-events="none" x="0" y="5" font-size="10px" fill="#FFFFFF" font-family="sans-serif"> Sirikhola</text></g><g class="node" transform="translate(54.25576772804207,158.5939400665841)"><circle class="outline" cx="0" cy="0" r="25" fill="#4C8EDA" stroke="#2870c2" stroke-width="2px"/><text text-anchor="middle" pointer-events="none" font-family="sans-serif" dy="1.5625" font-size="25" fill="#FFFFFF"/><text text-anchor="middle" pointer-events="none" x="0" y="5" font-size="10px" fill="#FFFFFF" font-family="sans-serif"> Gurdum</text></g><g class="node" transform="translate(-44.36853651589789,169.73380026448623)"><circle class="outline" cx="0" cy="0" r="25" fill="#4C8EDA" stroke="#2870c2" stroke-width="2px"/><text text-anchor="middle" pointer-events="none" font-family="sans-serif" dy="1.5625" font-size="25" fill="#FFFFFF"/><text text-anchor="middle" pointer-events="none" x="0" y="5" font-size="10px" fill="#FFFFFF" font-family="sans-serif"> Rammam</text></g><g class="node" transform="translate(56.6278579036598,247.99942128812535)"><circle class="outline" cx="0" cy="0" r="25" fill="#FFC454" stroke="#d7a013" stroke-width="2px"/><text text-anchor="middle" pointer-events="none" font-family="sans-serif" dy="1.5625" font-size="25" fill="#2A2C34"/><text text-anchor="middle" pointer-events="none" x="0" y="5" font-size="10px" fill="#2A2C34" font-family="sans-serif"> Sabargr…</text></g></g></svg>